<svg width="25" height="25" viewBox="0 0 25 25" fill="none" xmlns="http://www.w3.org/2000/svg">
<path d="M19.8008 4.5H18.8008V3.5C18.8008 2.9 18.4008 2.5 17.8008 2.5C17.2008 2.5 16.8008 2.9 16.8008 3.5V4.5H8.80078V3.5C8.80078 2.9 8.40078 2.5 7.80078 2.5C7.20078 2.5 6.80078 2.9 6.80078 3.5V4.5H5.80078C4.10078 4.5 2.80078 5.8 2.80078 7.5V8.5H22.8008V7.5C22.8008 5.8 21.5008 4.5 19.8008 4.5ZM2.80078 19.5C2.80078 21.2 4.10078 22.5 5.80078 22.5H19.8008C21.5008 22.5 22.8008 21.2 22.8008 19.5V10.5H2.80078V19.5ZM17.8008 12.5C18.4008 12.5 18.8008 12.9 18.8008 13.5C18.8008 14.1 18.4008 14.5 17.8008 14.5C17.2008 14.5 16.8008 14.1 16.8008 13.5C16.8008 12.9 17.2008 12.5 17.8008 12.5ZM17.8008 16.5C18.4008 16.5 18.8008 16.9 18.8008 17.5C18.8008 18.1 18.4008 18.5 17.8008 18.5C17.2008 18.5 16.8008 18.1 16.8008 17.5C16.8008 16.9 17.2008 16.5 17.8008 16.5ZM12.8008 12.5C13.4008 12.5 13.8008 12.9 13.8008 13.5C13.8008 14.1 13.4008 14.5 12.8008 14.5C12.2008 14.5 11.8008 14.1 11.8008 13.5C11.8008 12.9 12.2008 12.5 12.8008 12.5ZM12.8008 16.5C13.4008 16.5 13.8008 16.9 13.8008 17.5C13.8008 18.1 13.4008 18.5 12.8008 18.5C12.2008 18.5 11.8008 18.1 11.8008 17.5C11.8008 16.9 12.2008 16.5 12.8008 16.5ZM7.80078 12.5C8.40078 12.5 8.80078 12.9 8.80078 13.5C8.80078 14.1 8.40078 14.5 7.80078 14.5C7.20078 14.5 6.80078 14.1 6.80078 13.5C6.80078 12.9 7.20078 12.5 7.80078 12.5ZM7.80078 16.5C8.40078 16.5 8.80078 16.9 8.80078 17.5C8.80078 18.1 8.40078 18.5 7.80078 18.5C7.20078 18.5 6.80078 18.1 6.80078 17.5C6.80078 16.9 7.20078 16.5 7.80078 16.5Z" fill="#2E2A2A"/>
</svg>
