<svg width="40" height="40" viewBox="0 0 40 40" fill="none" xmlns="http://www.w3.org/2000/svg">
<path d="M26.6638 30.5772C25.3716 31.7909 23.9606 31.5993 22.6024 31.0244C21.1651 30.4367 19.8464 30.4111 18.33 31.0244C16.4311 31.8165 15.429 31.5865 14.2949 30.5772C7.85994 24.1508 8.80937 14.3643 16.1147 14.0065C17.8948 14.096 19.1344 14.952 20.1761 15.0286C21.7321 14.722 23.2222 13.8404 24.8837 13.9554C26.8748 14.1087 28.3781 14.8753 29.3671 16.2551C25.2529 18.6443 26.2287 23.8953 30 25.3645C29.2484 27.281 28.2726 29.1846 26.6506 30.59L26.6638 30.5772ZM20.0442 13.9299C19.8464 11.0808 22.2332 8.72997 24.976 8.5C25.3584 11.7963 21.8903 14.2493 20.0442 13.9299Z" fill="#2E2A2A"/>
</svg>
