<svg width="25" height="14" viewBox="0 0 25 14" fill="none" xmlns="http://www.w3.org/2000/svg">
<path d="M0.791792 13.2064L0.792696 13.2073C1.18296 13.5976 1.81654 13.5976 2.2068 13.2073L12.5002 2.91388L22.7927 13.2073L22.7927 13.2073C23.183 13.5976 23.8165 13.5976 24.2068 13.2073C24.5971 12.817 24.5971 12.1835 24.2068 11.7932L13.2086 0.795019C13.2082 0.794653 13.2079 0.794287 13.2075 0.793922C13.0126 0.597547 12.7552 0.499756 12.5002 0.499756C12.2447 0.499756 11.989 0.597862 11.7945 0.790395L11.7945 0.79039L11.7927 0.792202L0.792695 11.7922L0.791793 11.7931C0.402736 12.1842 0.402736 12.8154 0.791792 13.2064Z" fill="#969696" stroke="#969696"/>
</svg>
