<svg width="24" height="25" viewBox="0 0 24 25" fill="none" xmlns="http://www.w3.org/2000/svg">
<path d="M11.87 2.27739L11.87 2.27739L11.8691 2.27831C11.5212 2.63914 11.5182 3.21848 11.8617 3.58307L20.3088 12.5485L11.763 21.4091L11.763 21.4091C11.4151 21.77 11.4121 22.3493 11.7556 22.7139C12.1119 23.0921 12.7045 23.096 13.0655 22.7217L12.7072 22.3762L13.0655 22.7217L22.2346 13.2138C22.235 13.2133 22.2354 13.2129 22.2358 13.2125C22.4133 13.0296 22.4987 12.7922 22.5 12.5614C22.5013 12.3299 22.4181 12.0932 22.2464 11.909L22.2446 11.9072L13.1798 2.2861L13.1798 2.2861L13.1789 2.28517C12.822 1.90822 12.2317 1.90431 11.87 2.27739Z" fill="#FCFCFC" stroke="#FCFCFC"/>
</svg>
