<svg width="24" height="24" viewBox="0 0 24 24" fill="none" xmlns="http://www.w3.org/2000/svg">
<path d="M16.6631 1.77831L16.6622 1.77739C16.3006 1.40431 15.7103 1.40822 15.3533 1.78517L15.3524 1.7861L6.28763 11.4072L6.28762 11.4072L6.28588 11.409C6.11412 11.5932 6.03096 11.8299 6.03224 12.0614C6.03352 12.2922 6.11897 12.5298 6.29659 12.7127C6.29694 12.713 6.2973 12.7134 6.29766 12.7138L15.4668 22.2217C15.8277 22.596 16.4203 22.5921 16.7766 22.2139C17.1201 21.8493 17.1172 21.27 16.7692 20.9091L16.7692 20.9091L8.22348 12.0485L16.6705 3.08307L16.3066 2.74019L16.6705 3.08306C17.014 2.71848 17.0111 2.13914 16.6631 1.77831Z" fill="#FCFCFC" stroke="#FCFCFC"/>
</svg>
