<svg width="25" height="14" viewBox="0 0 25 14" fill="none" xmlns="http://www.w3.org/2000/svg">
<path d="M24.2077 0.793357L24.2068 0.792453C23.8165 0.40219 23.183 0.40219 22.7927 0.792453L12.4993 11.0859L2.20682 0.792469L2.2068 0.792452C1.81654 0.40219 1.18296 0.40219 0.792697 0.792452C0.402434 1.18271 0.402434 1.8163 0.792697 2.20656L11.7909 13.2047C11.7913 13.2051 11.7916 13.2055 11.792 13.2058C11.9869 13.4022 12.2443 13.5 12.4993 13.5C12.7548 13.5 13.0105 13.4019 13.205 13.2094L13.2068 13.2076L24.2068 2.20756L24.2077 2.20665C24.5968 1.8156 24.5968 1.18441 24.2077 0.793357Z" fill="#969696" stroke="#969696"/>
</svg>
