<svg width="31" height="39" viewBox="0 0 31 39" fill="none" xmlns="http://www.w3.org/2000/svg">
<path d="M28.1667 0.000976562C28.6974 0.00104657 29.2096 0.195882 29.6061 0.548527C30.0027 0.901171 30.2561 1.3871 30.3182 1.91414L30.3333 2.16764V36.8343C30.3327 37.3866 30.1213 37.9177 29.7422 38.3193C29.3631 38.7208 28.8449 38.9625 28.2936 38.9949C27.7424 39.0272 27.1995 38.8479 26.776 38.4934C26.3526 38.139 26.0804 37.6362 26.0152 37.0878L26 36.8343V26.001H23.8333C23.3026 26.0009 22.7904 25.8061 22.3939 25.4534C21.9973 25.1008 21.7439 24.6149 21.6818 24.0878L21.6667 23.8343V10.8343C21.6667 6.04598 24.9167 0.000976562 28.1667 0.000976562ZM15.1667 0.000976562C15.6974 0.00104657 16.2096 0.195882 16.6061 0.548527C17.0027 0.901171 17.2561 1.3871 17.3182 1.91414L17.3333 2.16764V13.001C17.3331 14.9225 16.6945 16.7896 15.518 18.3088C14.3415 19.8281 12.6937 20.9135 10.8333 21.3946V36.8343C10.8327 37.3866 10.6213 37.9177 10.2422 38.3193C9.86306 38.7208 9.34494 38.9625 8.79364 38.9949C8.24235 39.0272 7.69951 38.8479 7.27603 38.4934C6.85255 38.139 6.58039 37.6362 6.51517 37.0878L6.5 36.8343V21.3946C4.71348 20.9328 3.12088 19.9131 1.95382 18.4838C0.786762 17.0544 0.106102 15.2901 0.0108336 13.4473L0 13.001V2.16764C0.000612533 1.6154 0.212071 1.08424 0.591171 0.682679C0.970271 0.281117 1.4884 0.0394674 2.03969 0.00710364C2.59098 -0.0252601 3.13382 0.154105 3.5573 0.50855C3.98079 0.862996 4.25294 1.36577 4.31817 1.91414L4.33333 2.16764V13.001C4.33335 13.7616 4.53359 14.5089 4.91392 15.1676C5.29425 15.8263 5.84127 16.3733 6.5 16.7536V2.16764C6.50061 1.6154 6.71207 1.08424 7.09117 0.682679C7.47027 0.281117 7.9884 0.0394674 8.53969 0.00710364C9.09098 -0.0252601 9.63382 0.154105 10.0573 0.50855C10.4808 0.862996 10.7529 1.36577 10.8182 1.91414L10.8333 2.16764L10.8355 16.7536C11.4401 16.4041 11.9513 15.9137 12.3256 15.324C12.6998 14.7344 12.926 14.063 12.9848 13.3671L13 13.001V2.16764C13 1.59301 13.2283 1.04191 13.6346 0.635578C14.0409 0.22925 14.592 0.000976563 15.1667 0.000976562Z" fill="#FCFCFC"/>
</svg>
