<svg width="40" height="41" viewBox="0 0 40 41" fill="none" xmlns="http://www.w3.org/2000/svg">
<path d="M38.5857 14.202C40.9783 11.8095 39.8873 9.01509 38.5857 7.65617L32.8435 1.91424C30.4317 -0.478226 27.6563 0.61274 26.2973 1.91424L23.0434 5.18714H18.0859C14.4492 5.18714 12.3437 7.10112 11.2718 9.30219L2.77331 17.8002V25.4561L1.41432 26.7959C-0.978278 29.2075 0.112746 31.9828 1.41432 33.3417L7.15655 39.0837C8.19015 40.1172 9.30031 40.5 10.3531 40.5C11.712 40.5 12.9562 39.8301 13.7027 39.0837L18.8707 33.8968H25.7422C28.9962 33.8968 30.6423 31.868 31.2356 29.8774C33.3985 29.3032 34.5853 27.6572 35.0638 26.0495C38.0306 25.2839 39.1408 22.4703 39.1408 20.4989V14.757H38.0115L38.5857 14.202ZM35.3126 20.4989C35.3126 21.3602 34.9489 22.4129 33.3985 22.4129H31.4845V24.3269C31.4845 25.1882 31.1208 26.2409 29.5704 26.2409H27.6563V28.1549C27.6563 29.0161 27.2926 30.0688 25.7422 30.0688H17.3012L11.023 36.3467C10.4296 36.9017 10.0851 36.5763 9.87454 36.3658L4.15145 30.6622C3.59637 30.0688 3.92176 29.7243 4.13231 29.5138L6.60147 27.0256V19.3697L10.4296 15.5418V18.585C10.4296 20.9009 11.9609 24.3269 16.1718 24.3269C20.3828 24.3269 21.9141 20.9009 21.9141 18.585H35.3126V20.4989ZM35.8677 11.4841L32.6138 14.757H18.0859V18.585C18.0859 19.4463 17.7223 20.4989 16.1718 20.4989C14.6214 20.4989 14.2578 19.4463 14.2578 18.585V12.843C14.2578 11.9626 14.5832 9.01509 18.0859 9.01509H24.6129L28.977 4.65123C29.5704 4.09618 29.9149 4.42155 30.1255 4.63209L35.8486 10.3357C36.4036 10.9291 36.0782 11.2736 35.8677 11.4841Z" fill="#FCFCFC"/>
</svg>
