<svg width="19" height="20" viewBox="0 0 19 20" fill="none" xmlns="http://www.w3.org/2000/svg">
<path d="M18.75 9.60423C18.7536 10.9791 18.4324 12.3354 17.8125 13.5626C17.0775 15.0331 15.9477 16.27 14.5494 17.1347C13.1512 17.9994 11.5398 18.4578 9.89583 18.4584C8.52097 18.462 7.1647 18.1408 5.9375 17.5209L0 19.5001L1.97917 13.5626C1.3593 12.3354 1.03808 10.9791 1.04167 9.60423C1.0423 7.96022 1.50064 6.34886 2.36533 4.95063C3.23003 3.5524 4.46693 2.42253 5.9375 1.68756C7.1647 1.0677 8.52097 0.746476 9.89583 0.75006H10.4167C12.5879 0.869843 14.6386 1.78627 16.1762 3.32387C17.7138 4.86147 18.6302 6.9122 18.75 9.08339V9.60423Z" fill="#FCFCFC"/>
</svg>
