<svg width="19" height="20" viewBox="0 0 19 20" fill="none" xmlns="http://www.w3.org/2000/svg">
<path d="M18.75 9.35426C18.7536 10.7291 18.4324 12.0854 17.8125 13.3126C17.0775 14.7832 15.9477 16.0201 14.5494 16.8848C13.1512 17.7495 11.5398 18.2078 9.89583 18.2084C8.52097 18.212 7.1647 17.8908 5.9375 17.2709L0 19.2501L1.97917 13.3126C1.3593 12.0854 1.03808 10.7291 1.04167 9.35426C1.0423 7.71026 1.50064 6.09889 2.36533 4.70066C3.23003 3.30243 4.46693 2.17256 5.9375 1.43759C7.1647 0.817727 8.52097 0.496506 9.89583 0.500091H10.4167C12.5879 0.619874 14.6386 1.5363 16.1762 3.0739C17.7138 4.6115 18.6302 6.66223 18.75 8.83342V9.35426Z" fill="#969696"/>
</svg>
