<svg width="40" height="40" viewBox="0 0 40 40" fill="none" xmlns="http://www.w3.org/2000/svg">
<g clip-path="url(#clip0_44_76836)">
<path d="M31.5 20.0703C31.5 13.6802 26.3512 8.5 20 8.5C13.6488 8.5 8.5 13.6801 8.5 20.0703C8.5 25.8453 12.7054 30.632 18.2031 31.5V23.4148H15.2832V20.0703H18.2031V17.5212C18.2031 14.6214 19.92 13.0196 22.5468 13.0196C23.8051 13.0196 25.1211 13.2456 25.1211 13.2456V16.093H23.671C22.2423 16.093 21.7969 16.9849 21.7969 17.8999V20.0703H24.9863L24.4765 23.4148H21.7969V31.5C27.2946 30.632 31.5 25.8454 31.5 20.0703Z" fill="#1877F2"/>
<path d="M24.0728 23.2213L24.5584 19.8553H21.5205V17.671C21.5205 16.75 21.9449 15.8524 23.3056 15.8524H24.6868V12.9867C24.6868 12.9867 23.4333 12.7593 22.2348 12.7593C19.7329 12.7593 18.0976 14.3713 18.0976 17.2898V19.8553H15.3164V23.2213H18.0976V31.3586C18.6637 31.4529 19.236 31.5002 19.809 31.5C20.3821 31.5002 20.9544 31.4529 21.5205 31.3586V23.2213H24.0728Z" fill="#FCFCFC"/>
</g>
<defs>
<clipPath id="clip0_44_76836">
<rect x="8.5" y="8.5" width="23" height="23" rx="11.5" fill="white"/>
</clipPath>
</defs>
</svg>
