<svg width="33" height="25" viewBox="0 0 33 25" fill="none" xmlns="http://www.w3.org/2000/svg">
<path d="M0 24.5V20.3C0 19.45 0.219 18.6685 0.657 17.9555C1.095 17.2425 1.676 16.699 2.4 16.325C3.95 15.55 5.525 14.9685 7.125 14.5805C8.725 14.1925 10.35 13.999 12 14C13.65 14 15.275 14.194 16.875 14.582C18.475 14.97 20.05 15.551 21.6 16.325C22.325 16.7 22.9065 17.244 23.3445 17.957C23.7825 18.67 24.001 19.451 24 20.3V24.5H0ZM27 24.5V20C27 18.9 26.6935 17.8435 26.0805 16.8305C25.4675 15.8175 24.599 14.949 23.475 14.225C24.75 14.375 25.95 14.6315 27.075 14.9945C28.2 15.3575 29.25 15.801 30.225 16.325C31.125 16.825 31.8125 17.381 32.2875 17.993C32.7625 18.605 33 19.274 33 20V24.5H27ZM12 12.5C10.35 12.5 8.9375 11.9125 7.7625 10.7375C6.5875 9.56252 6 8.15003 6 6.50003C6 4.85003 6.5875 3.43753 7.7625 2.26254C8.9375 1.08754 10.35 0.500038 12 0.500038C13.65 0.500038 15.0625 1.08754 16.2375 2.26254C17.4125 3.43753 18 4.85003 18 6.50003C18 8.15003 17.4125 9.56252 16.2375 10.7375C15.0625 11.9125 13.65 12.5 12 12.5ZM27 6.50003C27 8.15003 26.4125 9.56252 25.2375 10.7375C24.0625 11.9125 22.65 12.5 21 12.5C20.725 12.5 20.375 12.4685 19.95 12.4055C19.525 12.3425 19.175 12.274 18.9 12.2C19.575 11.4 20.094 10.5125 20.457 9.53752C20.82 8.56253 21.001 7.55003 21 6.50003C21 5.45003 20.819 4.43753 20.457 3.46253C20.095 2.48754 19.576 1.60004 18.9 0.800038C19.25 0.675038 19.6 0.593539 19.95 0.555539C20.3 0.517539 20.65 0.499038 21 0.500038C22.65 0.500038 24.0625 1.08754 25.2375 2.26254C26.4125 3.43753 27 4.85003 27 6.50003Z" fill="#FCFCFC"/>
</svg>
