<svg width="24" height="24" viewBox="0 0 24 24" fill="none" xmlns="http://www.w3.org/2000/svg">
<path d="M16.6631 1.78221L16.6622 1.7813C16.3006 1.40821 15.7103 1.41212 15.3533 1.78908L15.3524 1.79001L6.28763 11.4111L6.28762 11.4111L6.28588 11.4129C6.11412 11.5971 6.03096 11.8338 6.03224 12.0653C6.03352 12.2961 6.11894 12.5336 6.29648 12.7165C6.29688 12.7169 6.29727 12.7173 6.29766 12.7177L15.4668 22.2256C15.8277 22.5999 16.4203 22.596 16.7766 22.2178C17.1201 21.8532 17.1172 21.2739 16.7692 20.9131L16.7692 20.913L8.22348 12.0524L16.6705 3.08697C17.014 2.72238 17.0111 2.14305 16.6631 1.78221Z" fill="#B60006" stroke="#B60006"/>
</svg>
