<svg width="73" height="73" viewBox="0 0 73 73" fill="none" xmlns="http://www.w3.org/2000/svg">
<path d="M0 12C0 5.37259 5.37258 0 12 0H61C67.6274 0 73 5.37258 73 12V61C73 67.6274 67.6274 73 61 73H12C5.37259 73 0 67.6274 0 61V12Z" fill="#2E2A2A"/>
<path d="M42.7871 58.0877L32.2827 60.9513C31.5343 61.1553 30.758 60.6993 30.5574 59.9379C30.357 59.1766 30.8052 58.3867 31.5535 58.1827L42.0579 55.3191C42.8063 55.1151 43.5826 55.571 43.7831 56.3324C43.9838 57.0938 43.5354 57.8836 42.7871 58.0877ZM37.9235 25.2443C37.8294 26.5471 37.1051 27.2814 35.9805 27.2628C34.8609 27.2445 34.046 26.4638 34.0729 25.2749C34.099 24.1182 34.8118 23.3584 36.0244 23.3719C37.2363 23.3852 37.837 24.1137 37.9235 25.2443ZM51.3903 20.8536C47.2115 13.8316 38.9349 10.4199 31.2456 12.7056C24.5165 14.7059 20.129 19.2264 18.5337 26.1786C16.9546 33.0597 18.9201 38.9783 23.8944 43.9349C25.061 45.0974 26.1336 46.5054 26.7913 48.008C27.4506 49.514 27.662 49.985 29.2679 49.5896C31.4983 49.0405 33.6988 48.3661 35.9287 47.8149C37.0719 47.5324 37.5062 46.883 37.4986 45.7105C37.4681 40.9784 37.4783 36.2459 37.4953 31.5137C37.499 30.4425 37.1681 29.5605 36.0353 29.5337C34.8885 29.5066 34.5375 30.3591 34.547 31.4512C34.5736 34.5193 34.5551 37.5875 34.5549 40.6557C34.5547 45.5914 34.5549 45.5914 29.7847 46.3006C27.9713 44.1865 26.32 42.2862 24.6951 40.3626C18.8633 33.4588 19.9298 23.2532 27.2083 17.9675C32.4374 14.1699 38.0547 13.9586 43.6552 17.165C48.8553 20.1424 51.6843 26.2765 50.9345 32.2104C50.4336 36.1744 48.5731 39.3386 45.8136 42.0587C44.1483 43.7003 42.6307 45.4677 42.0844 47.8414C41.8289 48.9516 41.2171 49.5022 40.16 49.7673C40.3575 49.5805 28.766 52.8849 28.766 52.8849C28.0326 53.0848 27.5935 53.8588 27.7901 54.6048L27.8203 54.7202C28.0168 55.4662 28.7775 55.9131 29.5108 55.7132C29.5108 55.7132 42.811 52.077 42.9854 52.0268C44.217 51.6808 44.8874 50.7887 44.9155 49.5154C44.9574 47.6145 45.7692 46.135 47.0903 44.872C47.7976 44.1957 48.5017 43.5135 49.1673 42.7956C54.6608 36.8676 55.5674 27.8732 51.3903 20.8536Z" fill="#FCFCFC"/>
</svg>
