<svg width="24" height="24" viewBox="0 0 24 24" fill="none" xmlns="http://www.w3.org/2000/svg">
<g clip-path="url(#clip0_43_74344)">
<path d="M23.5 12.0703C23.5 5.68023 18.3512 0.5 12 0.5C5.64877 0.5 0.5 5.68014 0.5 12.0703C0.5 17.8453 4.70541 22.632 10.2031 23.5V15.4148H7.2832V12.0703H10.2031V9.5212C10.2031 6.6214 11.92 5.01964 14.5468 5.01964C15.8051 5.01964 17.1211 5.24562 17.1211 5.24562V8.093H15.671C14.2423 8.093 13.7969 8.9849 13.7969 9.89995V12.0703H16.9863L16.4765 15.4148H13.7969V23.5C19.2946 22.632 23.5 17.8454 23.5 12.0703Z" fill="#1877F2"/>
<path d="M16.0708 15.2213L16.5565 11.8553H13.5186V9.67097C13.5186 8.74995 13.9429 7.85239 15.3037 7.85239H16.6848V4.9867C16.6848 4.9867 15.4313 4.75926 14.2329 4.75926C11.7309 4.75926 10.0956 6.37133 10.0956 9.28979V11.8553H7.31445V15.2213H10.0956V23.3585C10.6618 23.4529 11.234 23.5002 11.8071 23.5C12.3802 23.5002 12.9524 23.4529 13.5186 23.3585V15.2213H16.0708Z" fill="#FCFCFC"/>
</g>
<defs>
<clipPath id="clip0_43_74344">
<rect x="0.5" y="0.5" width="23" height="23" rx="11.5" fill="white"/>
</clipPath>
</defs>
</svg>
