<svg width="40" height="40" viewBox="0 0 40 40" fill="none" xmlns="http://www.w3.org/2000/svg">
<path d="M31.2763 17.7477H30.35V17.7H20V22.3H26.4992C25.5511 24.9778 23.0032 26.9 20 26.9C16.1895 26.9 13.1 23.8105 13.1 20C13.1 16.1895 16.1895 13.1 20 13.1C21.7589 13.1 23.3591 13.7635 24.5776 14.8474L27.8303 11.5947C25.7764 9.68047 23.0291 8.5 20 8.5C13.6491 8.5 8.5 13.6491 8.5 20C8.5 26.3509 13.6491 31.5 20 31.5C26.3509 31.5 31.5 26.3509 31.5 20C31.5 19.2289 31.4207 18.4762 31.2763 17.7477Z" fill="#FFC107"/>
<path d="M9.82595 14.6473L13.6043 17.4183C14.6266 14.8871 17.1026 13.1 20 13.1C21.7589 13.1 23.3591 13.7635 24.5776 14.8474L27.8303 11.5947C25.7764 9.68047 23.0291 8.5 20 8.5C15.5828 8.5 11.7522 10.9938 9.82595 14.6473Z" fill="#FF3D00"/>
<path d="M20 31.5C22.9704 31.5 25.6695 30.3632 27.7102 28.5146L24.1509 25.5028C22.9575 26.4103 21.4993 26.9012 20 26.9C17.0089 26.9 14.4691 24.9927 13.5123 22.331L9.76213 25.2204C11.6654 28.9447 15.5305 31.5 20 31.5Z" fill="#4CAF50"/>
<path d="M31.2763 17.7477H30.35V17.7H20V22.3H26.4992C26.0457 23.5744 25.2287 24.6881 24.1492 25.5033L24.1509 25.5028L27.7102 28.5146C27.4583 28.7434 31.5 25.75 31.5 20C31.5 19.2289 31.4207 18.4762 31.2763 17.7477Z" fill="#1976D2"/>
</svg>
