<svg width="25" height="25" viewBox="0 0 25 25" fill="none" xmlns="http://www.w3.org/2000/svg">
<path d="M1.80078 20.5V17.7C1.80078 17.1334 1.94678 16.6124 2.23878 16.137C2.53078 15.6617 2.91811 15.2994 3.40078 15.05C4.43411 14.5334 5.48411 14.1457 6.55078 13.887C7.61745 13.6284 8.70078 13.4994 9.80078 13.5C10.9008 13.5 11.9841 13.6294 13.0508 13.888C14.1174 14.1467 15.1674 14.534 16.2008 15.05C16.6841 15.3 17.0718 15.6627 17.3638 16.138C17.6558 16.6134 17.8014 17.134 17.8008 17.7V20.5H1.80078ZM19.8008 20.5V17.5C19.8008 16.7667 19.5964 16.0624 19.1878 15.387C18.7791 14.7117 18.2001 14.1327 17.4508 13.65C18.3008 13.75 19.1008 13.921 19.8508 14.163C20.6008 14.405 21.3008 14.7007 21.9508 15.05C22.5508 15.3834 23.0091 15.754 23.3258 16.162C23.6424 16.57 23.8008 17.016 23.8008 17.5V20.5H19.8008ZM9.80078 12.5C8.70078 12.5 7.75911 12.1084 6.97578 11.325C6.19245 10.5417 5.80078 9.60003 5.80078 8.50003C5.80078 7.40003 6.19245 6.45836 6.97578 5.67503C7.75911 4.89169 8.70078 4.50003 9.80078 4.50003C10.9008 4.50003 11.8424 4.89169 12.6258 5.67503C13.4091 6.45836 13.8008 7.40003 13.8008 8.50003C13.8008 9.60003 13.4091 10.5417 12.6258 11.325C11.8424 12.1084 10.9008 12.5 9.80078 12.5ZM19.8008 8.50003C19.8008 9.60003 19.4091 10.5417 18.6258 11.325C17.8424 12.1084 16.9008 12.5 15.8008 12.5C15.6174 12.5 15.3841 12.479 15.1008 12.437C14.8174 12.395 14.5841 12.3494 14.4008 12.3C14.8508 11.7667 15.1968 11.175 15.4388 10.525C15.6808 9.87503 15.8014 9.20003 15.8008 8.50003C15.8008 7.80003 15.6801 7.12503 15.4388 6.47503C15.1974 5.82503 14.8514 5.23336 14.4008 4.70003C14.6341 4.61669 14.8674 4.56236 15.1008 4.53703C15.3341 4.51169 15.5674 4.49936 15.8008 4.50003C16.9008 4.50003 17.8424 4.89169 18.6258 5.67503C19.4091 6.45836 19.8008 7.40003 19.8008 8.50003Z" fill="#2E2A2A"/>
</svg>
