<svg width="3652" height="1066" viewBox="0 0 3652 1066" fill="none" xmlns="http://www.w3.org/2000/svg">
<path d="M40 53C40 45.8203 45.8203 40 53 40H3599C3606.18 40 3612 45.8203 3612 53V1013C3612 1020.18 3606.18 1026 3599 1026H52.9999C45.8202 1026 40 1020.18 40 1013V53Z" fill="#EAEAEA"/>
<path d="M430.276 545.748H429.35V545.7H419V550.3H425.499C424.551 552.978 422.003 554.9 419 554.9C415.189 554.9 412.1 551.811 412.1 548C412.1 544.189 415.189 541.1 419 541.1C420.759 541.1 422.359 541.764 423.578 542.847L426.83 539.595C424.776 537.68 422.029 536.5 419 536.5C412.649 536.5 407.5 541.649 407.5 548C407.5 554.351 412.649 559.5 419 559.5C425.351 559.5 430.5 554.351 430.5 548C430.5 547.229 430.421 546.476 430.276 545.748Z" fill="#FFC107"/>
<path d="M408.826 542.647L412.604 545.418C413.627 542.887 416.103 541.1 419 541.1C420.759 541.1 422.359 541.764 423.578 542.847L426.83 539.595C424.776 537.68 422.029 536.5 419 536.5C414.583 536.5 410.752 538.994 408.826 542.647Z" fill="#FF3D00"/>
<path d="M419 559.5C421.97 559.5 424.67 558.363 426.71 556.515L423.151 553.503C421.958 554.41 420.499 554.901 419 554.9C416.009 554.9 413.469 552.993 412.512 550.331L408.762 553.22C410.665 556.945 414.531 559.5 419 559.5Z" fill="#4CAF50"/>
<path d="M430.276 545.748H429.35V545.7H419V550.3H425.499C425.046 551.574 424.229 552.688 423.149 553.503L423.151 553.503L426.71 556.515C426.458 556.743 430.5 553.75 430.5 548C430.5 547.229 430.421 546.476 430.276 545.748Z" fill="#1976D2"/>
<path d="M501.664 558.577C500.372 559.791 498.961 559.599 497.602 559.024C496.165 558.437 494.846 558.411 493.33 559.024C491.431 559.816 490.429 559.587 489.295 558.577C482.86 552.151 483.809 542.364 491.115 542.007C492.895 542.096 494.134 542.952 495.176 543.029C496.732 542.722 498.222 541.84 499.884 541.955C501.875 542.109 503.378 542.875 504.367 544.255C500.253 546.644 501.229 551.895 505 553.365C504.248 555.281 503.273 557.185 501.651 558.59L501.664 558.577ZM495.044 541.93C494.846 539.081 497.233 536.73 499.976 536.5C500.358 539.796 496.89 542.249 495.044 541.93Z" fill="#2E2A2A"/>
<path d="M527 115V112.2C527 111.633 527.146 111.112 527.438 110.637C527.73 110.162 528.117 109.799 528.6 109.55C529.633 109.033 530.683 108.646 531.75 108.387C532.817 108.128 533.9 107.999 535 108C536.1 108 537.183 108.129 538.25 108.388C539.317 108.647 540.367 109.034 541.4 109.55C541.883 109.8 542.271 110.163 542.563 110.638C542.855 111.113 543.001 111.634 543 112.2V115H527ZM545 115V112C545 111.267 544.796 110.562 544.387 109.887C543.978 109.212 543.399 108.633 542.65 108.15C543.5 108.25 544.3 108.421 545.05 108.663C545.8 108.905 546.5 109.201 547.15 109.55C547.75 109.883 548.208 110.254 548.525 110.662C548.842 111.07 549 111.516 549 112V115H545ZM535 107C533.9 107 532.958 106.608 532.175 105.825C531.392 105.042 531 104.1 531 103C531 101.9 531.392 100.958 532.175 100.175C532.958 99.3917 533.9 99 535 99C536.1 99 537.042 99.3917 537.825 100.175C538.608 100.958 539 101.9 539 103C539 104.1 538.608 105.042 537.825 105.825C537.042 106.608 536.1 107 535 107ZM545 103C545 104.1 544.608 105.042 543.825 105.825C543.042 106.608 542.1 107 541 107C540.817 107 540.583 106.979 540.3 106.937C540.017 106.895 539.783 106.849 539.6 106.8C540.05 106.267 540.396 105.675 540.638 105.025C540.88 104.375 541.001 103.7 541 103C541 102.3 540.879 101.625 540.638 100.975C540.397 100.325 540.051 99.7333 539.6 99.2C539.833 99.1167 540.067 99.0623 540.3 99.037C540.533 99.0117 540.767 98.9993 541 99C542.1 99 543.042 99.3917 543.825 100.175C544.608 100.958 545 101.9 545 103Z" fill="#2E2A2A"/>
<path d="M527 159V156.2C527 155.633 527.146 155.112 527.438 154.637C527.73 154.162 528.117 153.799 528.6 153.55C529.633 153.033 530.683 152.646 531.75 152.387C532.817 152.128 533.9 151.999 535 152C536.1 152 537.183 152.129 538.25 152.388C539.317 152.647 540.367 153.034 541.4 153.55C541.883 153.8 542.271 154.163 542.563 154.638C542.855 155.113 543.001 155.634 543 156.2V159H527ZM545 159V156C545 155.267 544.796 154.562 544.387 153.887C543.978 153.212 543.399 152.633 542.65 152.15C543.5 152.25 544.3 152.421 545.05 152.663C545.8 152.905 546.5 153.201 547.15 153.55C547.75 153.883 548.208 154.254 548.525 154.662C548.842 155.07 549 155.516 549 156V159H545ZM535 151C533.9 151 532.958 150.608 532.175 149.825C531.392 149.042 531 148.1 531 147C531 145.9 531.392 144.958 532.175 144.175C532.958 143.392 533.9 143 535 143C536.1 143 537.042 143.392 537.825 144.175C538.608 144.958 539 145.9 539 147C539 148.1 538.608 149.042 537.825 149.825C537.042 150.608 536.1 151 535 151ZM545 147C545 148.1 544.608 149.042 543.825 149.825C543.042 150.608 542.1 151 541 151C540.817 151 540.583 150.979 540.3 150.937C540.017 150.895 539.783 150.849 539.6 150.8C540.05 150.267 540.396 149.675 540.638 149.025C540.88 148.375 541.001 147.7 541 147C541 146.3 540.879 145.625 540.638 144.975C540.397 144.325 540.051 143.733 539.6 143.2C539.833 143.117 540.067 143.062 540.3 143.037C540.533 143.012 540.767 142.999 541 143C542.1 143 543.042 143.392 543.825 144.175C544.608 144.958 545 145.9 545 147Z" fill="#FCFCFC"/>
<path d="M527 203V200.2C527 199.633 527.146 199.112 527.438 198.637C527.73 198.162 528.117 197.799 528.6 197.55C529.633 197.033 530.683 196.646 531.75 196.387C532.817 196.128 533.9 195.999 535 196C536.1 196 537.183 196.129 538.25 196.388C539.317 196.647 540.367 197.034 541.4 197.55C541.883 197.8 542.271 198.163 542.563 198.638C542.855 199.113 543.001 199.634 543 200.2V203H527ZM545 203V200C545 199.267 544.796 198.562 544.387 197.887C543.978 197.212 543.399 196.633 542.65 196.15C543.5 196.25 544.3 196.421 545.05 196.663C545.8 196.905 546.5 197.201 547.15 197.55C547.75 197.883 548.208 198.254 548.525 198.662C548.842 199.07 549 199.516 549 200V203H545ZM535 195C533.9 195 532.958 194.608 532.175 193.825C531.392 193.042 531 192.1 531 191C531 189.9 531.392 188.958 532.175 188.175C532.958 187.392 533.9 187 535 187C536.1 187 537.042 187.392 537.825 188.175C538.608 188.958 539 189.9 539 191C539 192.1 538.608 193.042 537.825 193.825C537.042 194.608 536.1 195 535 195ZM545 191C545 192.1 544.608 193.042 543.825 193.825C543.042 194.608 542.1 195 541 195C540.817 195 540.583 194.979 540.3 194.937C540.017 194.895 539.783 194.849 539.6 194.8C540.05 194.267 540.396 193.675 540.638 193.025C540.88 192.375 541.001 191.7 541 191C541 190.3 540.879 189.625 540.638 188.975C540.397 188.325 540.051 187.733 539.6 187.2C539.833 187.117 540.067 187.062 540.3 187.037C540.533 187.012 540.767 186.999 541 187C542.1 187 543.042 187.392 543.825 188.175C544.608 188.958 545 189.9 545 191Z" fill="#5FA3A4"/>
<path d="M527 247V244.2C527 243.633 527.146 243.112 527.438 242.637C527.73 242.162 528.117 241.799 528.6 241.55C529.633 241.033 530.683 240.646 531.75 240.387C532.817 240.128 533.9 239.999 535 240C536.1 240 537.183 240.129 538.25 240.388C539.317 240.647 540.367 241.034 541.4 241.55C541.883 241.8 542.271 242.163 542.563 242.638C542.855 243.113 543.001 243.634 543 244.2V247H527ZM545 247V244C545 243.267 544.796 242.562 544.387 241.887C543.978 241.212 543.399 240.633 542.65 240.15C543.5 240.25 544.3 240.421 545.05 240.663C545.8 240.905 546.5 241.201 547.15 241.55C547.75 241.883 548.208 242.254 548.525 242.662C548.842 243.07 549 243.516 549 244V247H545ZM535 239C533.9 239 532.958 238.608 532.175 237.825C531.392 237.042 531 236.1 531 235C531 233.9 531.392 232.958 532.175 232.175C532.958 231.392 533.9 231 535 231C536.1 231 537.042 231.392 537.825 232.175C538.608 232.958 539 233.9 539 235C539 236.1 538.608 237.042 537.825 237.825C537.042 238.608 536.1 239 535 239ZM545 235C545 236.1 544.608 237.042 543.825 237.825C543.042 238.608 542.1 239 541 239C540.817 239 540.583 238.979 540.3 238.937C540.017 238.895 539.783 238.849 539.6 238.8C540.05 238.267 540.396 237.675 540.638 237.025C540.88 236.375 541.001 235.7 541 235C541 234.3 540.879 233.625 540.638 232.975C540.397 232.325 540.051 231.733 539.6 231.2C539.833 231.117 540.067 231.062 540.3 231.037C540.533 231.012 540.767 230.999 541 231C542.1 231 543.042 231.392 543.825 232.175C544.608 232.958 545 233.9 545 235Z" fill="#B60006"/>
<rect x="506.5" y="75.5" width="63" height="195" rx="4.5" stroke="#9747FF" stroke-dasharray="10 5"/>
<path d="M782 121C781.167 121 780.458 120.708 779.875 120.125C779.292 119.542 779 118.833 779 118C779 117.883 779.008 117.762 779.025 117.637C779.042 117.512 779.067 117.399 779.1 117.3L772.05 113.2C771.767 113.45 771.45 113.646 771.1 113.788C770.75 113.93 770.383 114.001 770 114C769.167 114 768.458 113.708 767.875 113.125C767.292 112.542 767 111.833 767 111C767 110.167 767.292 109.458 767.875 108.875C768.458 108.292 769.167 108 770 108C770.383 108 770.75 108.071 771.1 108.213C771.45 108.355 771.767 108.551 772.05 108.8L779.1 104.7C779.067 104.6 779.042 104.488 779.025 104.363C779.008 104.238 779 104.117 779 104C779 103.167 779.292 102.458 779.875 101.875C780.458 101.292 781.167 101 782 101C782.833 101 783.542 101.292 784.125 101.875C784.708 102.458 785 103.167 785 104C785 104.833 784.708 105.542 784.125 106.125C783.542 106.708 782.833 107 782 107C781.617 107 781.25 106.929 780.9 106.788C780.55 106.647 780.233 106.451 779.95 106.2L772.9 110.3C772.933 110.4 772.958 110.513 772.975 110.638C772.992 110.763 773 110.884 773 111C773 111.117 772.992 111.238 772.975 111.363C772.958 111.488 772.933 111.601 772.9 111.7L779.95 115.8C780.233 115.55 780.55 115.354 780.9 115.213C781.25 115.072 781.617 115.001 782 115C782.833 115 783.542 115.292 784.125 115.875C784.708 116.458 785 117.167 785 118C785 118.833 784.708 119.542 784.125 120.125C783.542 120.708 782.833 121 782 121Z" fill="#2E2A2A"/>
<path d="M782 173C781.167 173 780.458 172.708 779.875 172.125C779.292 171.542 779 170.833 779 170C779 169.883 779.008 169.762 779.025 169.637C779.042 169.512 779.067 169.399 779.1 169.3L772.05 165.2C771.767 165.45 771.45 165.646 771.1 165.788C770.75 165.93 770.383 166.001 770 166C769.167 166 768.458 165.708 767.875 165.125C767.292 164.542 767 163.833 767 163C767 162.167 767.292 161.458 767.875 160.875C768.458 160.292 769.167 160 770 160C770.383 160 770.75 160.071 771.1 160.213C771.45 160.355 771.767 160.551 772.05 160.8L779.1 156.7C779.067 156.6 779.042 156.488 779.025 156.363C779.008 156.238 779 156.117 779 156C779 155.167 779.292 154.458 779.875 153.875C780.458 153.292 781.167 153 782 153C782.833 153 783.542 153.292 784.125 153.875C784.708 154.458 785 155.167 785 156C785 156.833 784.708 157.542 784.125 158.125C783.542 158.708 782.833 159 782 159C781.617 159 781.25 158.929 780.9 158.788C780.55 158.647 780.233 158.451 779.95 158.2L772.9 162.3C772.933 162.4 772.958 162.513 772.975 162.638C772.992 162.763 773 162.884 773 163C773 163.117 772.992 163.238 772.975 163.363C772.958 163.488 772.933 163.601 772.9 163.7L779.95 167.8C780.233 167.55 780.55 167.354 780.9 167.213C781.25 167.072 781.617 167.001 782 167C782.833 167 783.542 167.292 784.125 167.875C784.708 168.458 785 169.167 785 170C785 170.833 784.708 171.542 784.125 172.125C783.542 172.708 782.833 173 782 173Z" fill="#FCFCFC"/>
<path d="M782 225C781.167 225 780.458 224.708 779.875 224.125C779.292 223.542 779 222.833 779 222C779 221.883 779.008 221.762 779.025 221.637C779.042 221.512 779.067 221.399 779.1 221.3L772.05 217.2C771.767 217.45 771.45 217.646 771.1 217.788C770.75 217.93 770.383 218.001 770 218C769.167 218 768.458 217.708 767.875 217.125C767.292 216.542 767 215.833 767 215C767 214.167 767.292 213.458 767.875 212.875C768.458 212.292 769.167 212 770 212C770.383 212 770.75 212.071 771.1 212.213C771.45 212.355 771.767 212.551 772.05 212.8L779.1 208.7C779.067 208.6 779.042 208.488 779.025 208.363C779.008 208.238 779 208.117 779 208C779 207.167 779.292 206.458 779.875 205.875C780.458 205.292 781.167 205 782 205C782.833 205 783.542 205.292 784.125 205.875C784.708 206.458 785 207.167 785 208C785 208.833 784.708 209.542 784.125 210.125C783.542 210.708 782.833 211 782 211C781.617 211 781.25 210.929 780.9 210.788C780.55 210.647 780.233 210.451 779.95 210.2L772.9 214.3C772.933 214.4 772.958 214.513 772.975 214.638C772.992 214.763 773 214.884 773 215C773 215.117 772.992 215.238 772.975 215.363C772.958 215.488 772.933 215.601 772.9 215.7L779.95 219.8C780.233 219.55 780.55 219.354 780.9 219.213C781.25 219.072 781.617 219.001 782 219C782.833 219 783.542 219.292 784.125 219.875C784.708 220.458 785 221.167 785 222C785 222.833 784.708 223.542 784.125 224.125C783.542 224.708 782.833 225 782 225Z" fill="#B60006"/>
<path d="M782 277C781.167 277 780.458 276.708 779.875 276.125C779.292 275.542 779 274.833 779 274C779 273.883 779.008 273.762 779.025 273.637C779.042 273.512 779.067 273.399 779.1 273.3L772.05 269.2C771.767 269.45 771.45 269.646 771.1 269.788C770.75 269.93 770.383 270.001 770 270C769.167 270 768.458 269.708 767.875 269.125C767.292 268.542 767 267.833 767 267C767 266.167 767.292 265.458 767.875 264.875C768.458 264.292 769.167 264 770 264C770.383 264 770.75 264.071 771.1 264.213C771.45 264.355 771.767 264.551 772.05 264.8L779.1 260.7C779.067 260.6 779.042 260.488 779.025 260.363C779.008 260.238 779 260.117 779 260C779 259.167 779.292 258.458 779.875 257.875C780.458 257.292 781.167 257 782 257C782.833 257 783.542 257.292 784.125 257.875C784.708 258.458 785 259.167 785 260C785 260.833 784.708 261.542 784.125 262.125C783.542 262.708 782.833 263 782 263C781.617 263 781.25 262.929 780.9 262.788C780.55 262.647 780.233 262.451 779.95 262.2L772.9 266.3C772.933 266.4 772.958 266.513 772.975 266.638C772.992 266.763 773 266.884 773 267C773 267.117 772.992 267.238 772.975 267.363C772.958 267.488 772.933 267.601 772.9 267.7L779.95 271.8C780.233 271.55 780.55 271.354 780.9 271.213C781.25 271.072 781.617 271.001 782 271C782.833 271 783.542 271.292 784.125 271.875C784.708 272.458 785 273.167 785 274C785 274.833 784.708 275.542 784.125 276.125C783.542 276.708 782.833 277 782 277Z" fill="#5FA3A4"/>
<rect x="740.5" y="75.5" width="71" height="227" rx="4.5" stroke="#9747FF" stroke-dasharray="10 5"/>
<path d="M650 107C651.364 107 652.672 106.447 653.637 105.462C654.601 104.478 655.143 103.142 655.143 101.75C655.143 100.358 654.601 99.0223 653.637 98.0377C652.672 97.0531 651.364 96.5 650 96.5C648.636 96.5 647.328 97.0531 646.363 98.0377C645.399 99.0223 644.857 100.358 644.857 101.75C644.857 103.142 645.399 104.478 646.363 105.462C647.328 106.447 648.636 107 650 107ZM648.164 108.969C644.206 108.969 641 112.242 641 116.282C641 116.954 641.534 117.5 642.193 117.5H657.807C658.466 117.5 659 116.954 659 116.282C659 112.242 655.794 108.969 651.836 108.969H648.164Z" fill="#2E2A2A"/>
<path d="M650 164C651.364 164 652.672 163.447 653.637 162.462C654.601 161.478 655.143 160.142 655.143 158.75C655.143 157.358 654.601 156.022 653.637 155.038C652.672 154.053 651.364 153.5 650 153.5C648.636 153.5 647.328 154.053 646.363 155.038C645.399 156.022 644.857 157.358 644.857 158.75C644.857 160.142 645.399 161.478 646.363 162.462C647.328 163.447 648.636 164 650 164ZM648.164 165.969C644.206 165.969 641 169.242 641 173.282C641 173.954 641.534 174.5 642.193 174.5H657.807C658.466 174.5 659 173.954 659 173.282C659 169.242 655.794 165.969 651.836 165.969H648.164Z" fill="#FCFCFC"/>
<path d="M650 221C651.364 221 652.672 220.447 653.637 219.462C654.601 218.478 655.143 217.142 655.143 215.75C655.143 214.358 654.601 213.022 653.637 212.038C652.672 211.053 651.364 210.5 650 210.5C648.636 210.5 647.328 211.053 646.363 212.038C645.399 213.022 644.857 214.358 644.857 215.75C644.857 217.142 645.399 218.478 646.363 219.462C647.328 220.447 648.636 221 650 221ZM648.164 222.969C644.206 222.969 641 226.242 641 230.282C641 230.954 641.534 231.5 642.193 231.5H657.807C658.466 231.5 659 230.954 659 230.282C659 226.242 655.794 222.969 651.836 222.969H648.164Z" fill="#969696"/>
<path d="M650 278C651.364 278 652.672 277.447 653.637 276.462C654.601 275.478 655.143 274.142 655.143 272.75C655.143 271.358 654.601 270.022 653.637 269.038C652.672 268.053 651.364 267.5 650 267.5C648.636 267.5 647.328 268.053 646.363 269.038C645.399 270.022 644.857 271.358 644.857 272.75C644.857 274.142 645.399 275.478 646.363 276.462C647.328 277.447 648.636 278 650 278ZM648.164 279.969C644.206 279.969 641 283.242 641 287.282C641 287.954 641.534 288.5 642.193 288.5H657.807C658.466 288.5 659 287.954 659 287.282C659 283.242 655.794 279.969 651.836 279.969H648.164Z" fill="#5FA3A4"/>
<path d="M650 335C651.364 335 652.672 334.447 653.637 333.462C654.601 332.478 655.143 331.142 655.143 329.75C655.143 328.358 654.601 327.022 653.637 326.038C652.672 325.053 651.364 324.5 650 324.5C648.636 324.5 647.328 325.053 646.363 326.038C645.399 327.022 644.857 328.358 644.857 329.75C644.857 331.142 645.399 332.478 646.363 333.462C647.328 334.447 648.636 335 650 335ZM648.164 336.969C644.206 336.969 641 340.242 641 344.282C641 344.954 641.534 345.5 642.193 345.5H657.807C658.466 345.5 659 344.954 659 344.282C659 340.242 655.794 336.969 651.836 336.969H648.164Z" fill="#B60006"/>
<g filter="url(#filter0_d_1_3)">
<path d="M650 392C651.364 392 652.672 391.447 653.637 390.462C654.601 389.478 655.143 388.142 655.143 386.75C655.143 385.358 654.601 384.022 653.637 383.038C652.672 382.053 651.364 381.5 650 381.5C648.636 381.5 647.328 382.053 646.363 383.038C645.399 384.022 644.857 385.358 644.857 386.75C644.857 388.142 645.399 389.478 646.363 390.462C647.328 391.447 648.636 392 650 392ZM648.164 393.969C644.206 393.969 641 397.242 641 401.282C641 401.954 641.534 402.5 642.193 402.5H657.807C658.466 402.5 659 401.954 659 401.282C659 397.242 655.794 393.969 651.836 393.969H648.164Z" fill="#969696"/>
</g>
<rect x="618.5" y="75.5" width="63" height="348" rx="4.5" stroke="#9747FF" stroke-dasharray="10 5"/>
<path d="M906 113.286H898.286V121H895.714V113.286H888V110.714H895.714V103H898.286V110.714H906V113.286Z" fill="#2E2A2A"/>
<path d="M906 167.286H898.286V175H895.714V167.286H888V164.714H895.714V157H898.286V164.714H906V167.286Z" fill="#FCFCFC"/>
<path d="M906 221.286H898.286V229H895.714V221.286H888V218.714H895.714V211H898.286V218.714H906V221.286Z" fill="#B60006"/>
<path d="M906 275.286H898.286V283H895.714V275.286H888V272.714H895.714V265H898.286V272.714H906V275.286Z" fill="#5FA3A4"/>
<path d="M903 317.857H897.857V323H896.143V317.857H891V316.143H896.143V311H897.857V316.143H903V317.857Z" fill="#2E2A2A"/>
<path d="M903 349.857H897.857V355H896.143V349.857H891V348.143H896.143V343H897.857V348.143H903V349.857Z" fill="#FCFCFC"/>
<path d="M903 381.857H897.857V387H896.143V381.857H891V380.143H896.143V375H897.857V380.143H903V381.857Z" fill="#B60006"/>
<path d="M903 413.857H897.857V419H896.143V413.857H891V412.143H896.143V407H897.857V412.143H903V413.857Z" fill="#5FA3A4"/>
<rect x="860.5" y="75.5" width="73" height="363" rx="4.5" stroke="#9747FF" stroke-dasharray="10 5"/>
<path d="M321 99H320V98C320 97.4 319.6 97 319 97C318.4 97 318 97.4 318 98V99H310V98C310 97.4 309.6 97 309 97C308.4 97 308 97.4 308 98V99H307C305.3 99 304 100.3 304 102V103H324V102C324 100.3 322.7 99 321 99ZM304 114C304 115.7 305.3 117 307 117H321C322.7 117 324 115.7 324 114V105H304V114ZM319 107C319.6 107 320 107.4 320 108C320 108.6 319.6 109 319 109C318.4 109 318 108.6 318 108C318 107.4 318.4 107 319 107ZM319 111C319.6 111 320 111.4 320 112C320 112.6 319.6 113 319 113C318.4 113 318 112.6 318 112C318 111.4 318.4 111 319 111ZM314 107C314.6 107 315 107.4 315 108C315 108.6 314.6 109 314 109C313.4 109 313 108.6 313 108C313 107.4 313.4 107 314 107ZM314 111C314.6 111 315 111.4 315 112C315 112.6 314.6 113 314 113C313.4 113 313 112.6 313 112C313 111.4 313.4 111 314 111ZM309 107C309.6 107 310 107.4 310 108C310 108.6 309.6 109 309 109C308.4 109 308 108.6 308 108C308 107.4 308.4 107 309 107ZM309 111C309.6 111 310 111.4 310 112C310 112.6 309.6 113 309 113C308.4 113 308 112.6 308 112C308 111.4 308.4 111 309 111Z" fill="#2E2A2A"/>
<path d="M321 139H320V138C320 137.4 319.6 137 319 137C318.4 137 318 137.4 318 138V139H310V138C310 137.4 309.6 137 309 137C308.4 137 308 137.4 308 138V139H307C305.3 139 304 140.3 304 142V143H324V142C324 140.3 322.7 139 321 139ZM304 154C304 155.7 305.3 157 307 157H321C322.7 157 324 155.7 324 154V145H304V154ZM319 147C319.6 147 320 147.4 320 148C320 148.6 319.6 149 319 149C318.4 149 318 148.6 318 148C318 147.4 318.4 147 319 147ZM319 151C319.6 151 320 151.4 320 152C320 152.6 319.6 153 319 153C318.4 153 318 152.6 318 152C318 151.4 318.4 151 319 151ZM314 147C314.6 147 315 147.4 315 148C315 148.6 314.6 149 314 149C313.4 149 313 148.6 313 148C313 147.4 313.4 147 314 147ZM314 151C314.6 151 315 151.4 315 152C315 152.6 314.6 153 314 153C313.4 153 313 152.6 313 152C313 151.4 313.4 151 314 151ZM309 147C309.6 147 310 147.4 310 148C310 148.6 309.6 149 309 149C308.4 149 308 148.6 308 148C308 147.4 308.4 147 309 147ZM309 151C309.6 151 310 151.4 310 152C310 152.6 309.6 153 309 153C308.4 153 308 152.6 308 152C308 151.4 308.4 151 309 151Z" fill="#FCFCFC"/>
<path d="M321 175H320V174C320 173.4 319.6 173 319 173C318.4 173 318 173.4 318 174V175H310V174C310 173.4 309.6 173 309 173C308.4 173 308 173.4 308 174V175H307C305.3 175 304 176.3 304 178V179H324V178C324 176.3 322.7 175 321 175ZM304 190C304 191.7 305.3 193 307 193H321C322.7 193 324 191.7 324 190V181H304V190ZM319 183C319.6 183 320 183.4 320 184C320 184.6 319.6 185 319 185C318.4 185 318 184.6 318 184C318 183.4 318.4 183 319 183ZM319 187C319.6 187 320 187.4 320 188C320 188.6 319.6 189 319 189C318.4 189 318 188.6 318 188C318 187.4 318.4 187 319 187ZM314 183C314.6 183 315 183.4 315 184C315 184.6 314.6 185 314 185C313.4 185 313 184.6 313 184C313 183.4 313.4 183 314 183ZM314 187C314.6 187 315 187.4 315 188C315 188.6 314.6 189 314 189C313.4 189 313 188.6 313 188C313 187.4 313.4 187 314 187ZM309 183C309.6 183 310 183.4 310 184C310 184.6 309.6 185 309 185C308.4 185 308 184.6 308 184C308 183.4 308.4 183 309 183ZM309 187C309.6 187 310 187.4 310 188C310 188.6 309.6 189 309 189C308.4 189 308 188.6 308 188C308 187.4 308.4 187 309 187Z" fill="#5FA3A4"/>
<path d="M321 211H320V210C320 209.4 319.6 209 319 209C318.4 209 318 209.4 318 210V211H310V210C310 209.4 309.6 209 309 209C308.4 209 308 209.4 308 210V211H307C305.3 211 304 212.3 304 214V215H324V214C324 212.3 322.7 211 321 211ZM304 226C304 227.7 305.3 229 307 229H321C322.7 229 324 227.7 324 226V217H304V226ZM319 219C319.6 219 320 219.4 320 220C320 220.6 319.6 221 319 221C318.4 221 318 220.6 318 220C318 219.4 318.4 219 319 219ZM319 223C319.6 223 320 223.4 320 224C320 224.6 319.6 225 319 225C318.4 225 318 224.6 318 224C318 223.4 318.4 223 319 223ZM314 219C314.6 219 315 219.4 315 220C315 220.6 314.6 221 314 221C313.4 221 313 220.6 313 220C313 219.4 313.4 219 314 219ZM314 223C314.6 223 315 223.4 315 224C315 224.6 314.6 225 314 225C313.4 225 313 224.6 313 224C313 223.4 313.4 223 314 223ZM309 219C309.6 219 310 219.4 310 220C310 220.6 309.6 221 309 221C308.4 221 308 220.6 308 220C308 219.4 308.4 219 309 219ZM309 223C309.6 223 310 223.4 310 224C310 224.6 309.6 225 309 225C308.4 225 308 224.6 308 224C308 223.4 308.4 223 309 223Z" fill="#B60006"/>
<rect x="282.5" y="75.5" width="63" height="171" rx="4.5" stroke="#9747FF" stroke-dasharray="10 5"/>
<path d="M426 94.75C421.169 94.75 417.25 98.2779 417.25 102.625C417.25 109.625 426 119.25 426 119.25C426 119.25 434.75 109.625 434.75 102.625C434.75 98.2779 430.831 94.75 426 94.75ZM426 107C425.308 107 424.631 106.795 424.056 106.41C423.48 106.026 423.031 105.479 422.766 104.839C422.502 104.2 422.432 103.496 422.567 102.817C422.702 102.138 423.036 101.515 423.525 101.025C424.015 100.536 424.638 100.202 425.317 100.067C425.996 99.9322 426.7 100.002 427.339 100.266C427.979 100.531 428.526 100.98 428.91 101.556C429.295 102.131 429.5 102.808 429.5 103.5C429.499 104.428 429.13 105.318 428.474 105.974C427.818 106.63 426.928 106.999 426 107Z" fill="#2E2A2A"/>
<path d="M426 138.75C421.169 138.75 417.25 142.278 417.25 146.625C417.25 153.625 426 163.25 426 163.25C426 163.25 434.75 153.625 434.75 146.625C434.75 142.278 430.831 138.75 426 138.75ZM426 151C425.308 151 424.631 150.795 424.056 150.41C423.48 150.026 423.031 149.479 422.766 148.839C422.502 148.2 422.432 147.496 422.567 146.817C422.702 146.138 423.036 145.515 423.525 145.025C424.015 144.536 424.638 144.202 425.317 144.067C425.996 143.932 426.7 144.002 427.339 144.266C427.979 144.531 428.526 144.98 428.91 145.556C429.295 146.131 429.5 146.808 429.5 147.5C429.499 148.428 429.13 149.318 428.474 149.974C427.818 150.63 426.928 150.999 426 151Z" fill="#FCFCFC"/>
<path d="M426 182.75C421.169 182.75 417.25 186.278 417.25 190.625C417.25 197.625 426 207.25 426 207.25C426 207.25 434.75 197.625 434.75 190.625C434.75 186.278 430.831 182.75 426 182.75ZM426 195C425.308 195 424.631 194.795 424.056 194.41C423.48 194.026 423.031 193.479 422.766 192.839C422.502 192.2 422.432 191.496 422.567 190.817C422.702 190.138 423.036 189.515 423.525 189.025C424.015 188.536 424.638 188.202 425.317 188.067C425.996 187.932 426.7 188.002 427.339 188.266C427.979 188.531 428.526 188.98 428.91 189.556C429.295 190.131 429.5 190.808 429.5 191.5C429.499 192.428 429.13 193.318 428.474 193.974C427.818 194.63 426.928 194.999 426 195Z" fill="#5FA3A4"/>
<path d="M426 226.75C421.169 226.75 417.25 230.278 417.25 234.625C417.25 241.625 426 251.25 426 251.25C426 251.25 434.75 241.625 434.75 234.625C434.75 230.278 430.831 226.75 426 226.75ZM426 239C425.308 239 424.631 238.795 424.056 238.41C423.48 238.026 423.031 237.479 422.766 236.839C422.502 236.2 422.432 235.496 422.567 234.817C422.702 234.138 423.036 233.515 423.525 233.025C424.015 232.536 424.638 232.202 425.317 232.067C425.996 231.932 426.7 232.002 427.339 232.266C427.979 232.531 428.526 232.98 428.91 233.556C429.295 234.131 429.5 234.808 429.5 235.5C429.499 236.428 429.13 237.318 428.474 237.974C427.818 238.63 426.928 238.999 426 239Z" fill="#B60006"/>
<rect x="394.5" y="75.5" width="63" height="195" rx="4.5" stroke="#9747FF" stroke-dasharray="10 5"/>
<path d="M1014.48 117.444C1013.65 118.187 1012.36 118.187 1011.53 117.433L1011.41 117.326C1005.63 112.212 1001.86 108.863 1002 104.686C1002.07 102.855 1003.03 101.1 1004.58 100.067C1007.48 98.1286 1011.06 99.033 1013 101.251C1014.93 99.033 1018.52 98.1178 1021.42 100.067C1022.97 101.1 1023.93 102.855 1024 104.686C1024.15 108.863 1020.37 112.212 1014.59 117.347L1014.48 117.444Z" fill="#2E2A2A"/>
<path d="M1014.48 156.444C1013.65 157.187 1012.36 157.187 1011.53 156.433L1011.41 156.326C1005.63 151.212 1001.86 147.863 1002 143.686C1002.07 141.855 1003.03 140.1 1004.58 139.067C1007.48 137.129 1011.06 138.033 1013 140.251C1014.93 138.033 1018.52 137.118 1021.42 139.067C1022.97 140.1 1023.93 141.855 1024 143.686C1024.15 147.863 1020.37 151.212 1014.59 156.347L1014.48 156.444Z" fill="#FCFCFC"/>
<path d="M1014.48 195.444C1013.65 196.187 1012.36 196.187 1011.53 195.433L1011.41 195.326C1005.63 190.212 1001.86 186.863 1002 182.686C1002.07 180.855 1003.03 179.1 1004.58 178.067C1007.48 176.129 1011.06 177.033 1013 179.251C1014.93 177.033 1018.52 176.118 1021.42 178.067C1022.97 179.1 1023.93 180.855 1024 182.686C1024.15 186.863 1020.37 190.212 1014.59 195.347L1014.48 195.444Z" fill="#B60006"/>
<path d="M1014.48 234.444C1013.65 235.187 1012.36 235.187 1011.53 234.433L1011.41 234.326C1005.63 229.212 1001.86 225.863 1002 221.686C1002.07 219.855 1003.03 218.1 1004.58 217.067C1007.48 215.129 1011.06 216.033 1013 218.251C1014.93 216.033 1018.52 215.118 1021.42 217.067C1022.97 218.1 1023.93 219.855 1024 221.686C1024.15 225.863 1020.37 229.212 1014.59 234.347L1014.48 234.444Z" fill="#5FA3A4"/>
<g filter="url(#filter1_d_1_3)">
<rect x="992" y="251" width="42" height="41" rx="20.5" fill="#FCFCFC" shape-rendering="crispEdges"/>
<path d="M1014.48 281.444C1013.65 282.187 1012.36 282.187 1011.53 281.433L1011.41 281.326C1005.63 276.212 1001.86 272.863 1002 268.686C1002.07 266.855 1003.03 265.1 1004.58 264.067C1007.48 262.129 1011.06 263.033 1013 265.251C1014.93 263.033 1018.52 262.118 1021.42 264.067C1022.97 265.1 1023.93 266.855 1024 268.686C1024.15 272.863 1020.37 276.212 1014.59 281.347L1014.48 281.444Z" fill="#2E2A2A"/>
</g>
<g filter="url(#filter2_d_1_3)">
<rect x="992" y="302" width="42" height="41" rx="20.5" fill="#FCFCFC" shape-rendering="crispEdges"/>
<path d="M1014.48 332.444C1013.65 333.187 1012.36 333.187 1011.53 332.433L1011.41 332.326C1005.63 327.212 1001.86 323.863 1002 319.686C1002.07 317.855 1003.03 316.1 1004.58 315.067C1007.48 313.129 1011.06 314.033 1013 316.251C1014.93 314.033 1018.52 313.118 1021.42 315.067C1022.97 316.1 1023.93 317.855 1024 319.686C1024.15 323.863 1020.37 327.212 1014.59 332.347L1014.48 332.444Z" fill="#B60006"/>
</g>
<g filter="url(#filter3_d_1_3)">
<rect x="992" y="356" width="42" height="41" rx="20.5" fill="#FCFCFC" shape-rendering="crispEdges"/>
<path d="M1014.48 386.444C1013.65 387.187 1012.36 387.187 1011.53 386.433L1011.41 386.326C1005.63 381.212 1001.86 377.863 1002 373.686C1002.07 371.855 1003.03 370.1 1004.58 369.067C1007.48 367.129 1011.06 368.033 1013 370.251C1014.93 368.033 1018.52 367.118 1021.42 369.067C1022.97 370.1 1023.93 371.855 1024 373.686C1024.15 377.863 1020.37 381.212 1014.59 386.347L1014.48 386.444Z" fill="#5FA3A4"/>
</g>
<rect x="982.5" y="79.5" width="63" height="334" rx="4.5" stroke="#9747FF" stroke-dasharray="10 5"/>
<path d="M1130.75 103.854C1130.75 105.229 1130.43 106.585 1129.81 107.813C1129.08 109.283 1127.95 110.52 1126.55 111.385C1125.15 112.249 1123.54 112.708 1121.9 112.708C1120.52 112.712 1119.16 112.391 1117.94 111.771L1112 113.75L1113.98 107.813C1113.36 106.585 1113.04 105.229 1113.04 103.854C1113.04 102.21 1113.5 100.599 1114.37 99.2006C1115.23 97.8024 1116.47 96.6725 1117.94 95.9375C1119.16 95.3177 1120.52 94.9964 1121.9 95H1122.42C1124.59 95.1198 1126.64 96.0362 1128.18 97.5738C1129.71 99.1114 1130.63 101.162 1130.75 103.333V103.854Z" fill="#2E2A2A"/>
<path d="M1130.75 142.604C1130.75 143.979 1130.43 145.335 1129.81 146.563C1129.08 148.033 1127.95 149.27 1126.55 150.135C1125.15 150.999 1123.54 151.458 1121.9 151.458C1120.52 151.462 1119.16 151.141 1117.94 150.521L1112 152.5L1113.98 146.563C1113.36 145.335 1113.04 143.979 1113.04 142.604C1113.04 140.96 1113.5 139.349 1114.37 137.951C1115.23 136.552 1116.47 135.423 1117.94 134.688C1119.16 134.068 1120.52 133.746 1121.9 133.75H1122.42C1124.59 133.87 1126.64 134.786 1128.18 136.324C1129.71 137.861 1130.63 139.912 1130.75 142.083V142.604Z" fill="#FCFCFC"/>
<path d="M1130.75 181.354C1130.75 182.729 1130.43 184.085 1129.81 185.313C1129.08 186.783 1127.95 188.02 1126.55 188.885C1125.15 189.749 1123.54 190.208 1121.9 190.208C1120.52 190.212 1119.16 189.891 1117.94 189.271L1112 191.25L1113.98 185.313C1113.36 184.085 1113.04 182.729 1113.04 181.354C1113.04 179.71 1113.5 178.099 1114.37 176.701C1115.23 175.302 1116.47 174.173 1117.94 173.438C1119.16 172.818 1120.52 172.497 1121.9 172.5H1122.42C1124.59 172.62 1126.64 173.536 1128.18 175.074C1129.71 176.612 1130.63 178.662 1130.75 180.833V181.354Z" fill="#969696"/>
<path d="M1130.75 220.104C1130.75 221.479 1130.43 222.835 1129.81 224.063C1129.08 225.533 1127.95 226.77 1126.55 227.635C1125.15 228.499 1123.54 228.958 1121.9 228.958C1120.52 228.962 1119.16 228.641 1117.94 228.021L1112 230L1113.98 224.063C1113.36 222.835 1113.04 221.479 1113.04 220.104C1113.04 218.46 1113.5 216.849 1114.37 215.451C1115.23 214.052 1116.47 212.923 1117.94 212.188C1119.16 211.568 1120.52 211.247 1121.9 211.25H1122.42C1124.59 211.37 1126.64 212.286 1128.18 213.824C1129.71 215.362 1130.63 217.412 1130.75 219.583V220.104Z" fill="#5FA3A4"/>
<path d="M1130.75 258.854C1130.75 260.229 1130.43 261.585 1129.81 262.813C1129.08 264.283 1127.95 265.52 1126.55 266.385C1125.15 267.25 1123.54 267.708 1121.9 267.708C1120.52 267.712 1119.16 267.391 1117.94 266.771L1112 268.75L1113.98 262.813C1113.36 261.585 1113.04 260.229 1113.04 258.854C1113.04 257.21 1113.5 255.599 1114.37 254.201C1115.23 252.802 1116.47 251.673 1117.94 250.938C1119.16 250.318 1120.52 249.997 1121.9 250H1122.42C1124.59 250.12 1126.64 251.036 1128.18 252.574C1129.71 254.112 1130.63 256.162 1130.75 258.333V258.854Z" fill="#B60006"/>
<g filter="url(#filter4_d_1_3)">
<path d="M1130.75 297.604C1130.75 298.979 1130.43 300.335 1129.81 301.563C1129.08 303.033 1127.95 304.27 1126.55 305.135C1125.15 305.999 1123.54 306.458 1121.9 306.458C1120.52 306.462 1119.16 306.141 1117.94 305.521L1112 307.5L1113.98 301.563C1113.36 300.335 1113.04 298.979 1113.04 297.604C1113.04 295.96 1113.5 294.349 1114.37 292.951C1115.23 291.552 1116.47 290.422 1117.94 289.688C1119.16 289.068 1120.52 288.746 1121.9 288.75H1122.42C1124.59 288.87 1126.64 289.786 1128.18 291.324C1129.71 292.861 1130.63 294.912 1130.75 297.083V297.604Z" fill="#969696"/>
</g>
<rect x="1092.5" y="75.5" width="57.75" height="251.5" rx="4.5" stroke="#9747FF" stroke-dasharray="10 5"/>
<g clip-path="url(#clip0_1_3)">
<path d="M602.5 568.07C602.5 561.68 597.351 556.5 591 556.5C584.649 556.5 579.5 561.68 579.5 568.07C579.5 573.845 583.705 578.632 589.203 579.5V571.415H586.283V568.07H589.203V565.521C589.203 562.621 590.92 561.02 593.547 561.02C594.805 561.02 596.121 561.246 596.121 561.246V564.093H594.671C593.242 564.093 592.797 564.985 592.797 565.9V568.07H595.986L595.476 571.415H592.797V579.5C598.295 578.632 602.5 573.845 602.5 568.07Z" fill="#1877F2"/>
<path d="M595.071 571.221L595.556 567.855H592.519V565.671C592.519 564.75 592.943 563.852 594.304 563.852H595.685V560.987C595.685 560.987 594.431 560.759 593.233 560.759C590.731 560.759 589.096 562.371 589.096 565.29V567.855H586.314V571.221H589.096V579.359C589.662 579.453 590.234 579.5 590.807 579.5C591.38 579.5 591.952 579.453 592.519 579.359V571.221H595.071Z" fill="#FCFCFC"/>
</g>
<g clip-path="url(#clip1_1_3)">
<path d="M602.5 628.07C602.5 621.68 597.351 616.5 591 616.5C584.649 616.5 579.5 621.68 579.5 628.07C579.5 633.845 583.705 638.632 589.203 639.5V631.415H586.283V628.07H589.203V625.521C589.203 622.621 590.92 621.02 593.547 621.02C594.805 621.02 596.121 621.246 596.121 621.246V624.093H594.671C593.242 624.093 592.797 624.985 592.797 625.9V628.07H595.986L595.476 631.415H592.797V639.5C598.295 638.632 602.5 633.845 602.5 628.07Z" fill="#FCFCFC"/>
</g>
<rect x="551.5" y="528.5" width="79" height="139" rx="4.5" stroke="#9747FF" stroke-dasharray="10 5"/>
<path d="M1342.58 111.57C1342.49 111.463 1342.41 111.356 1342.33 111.253C1341.18 109.827 1340.49 108.967 1340.49 104.931C1340.49 102.842 1340 101.127 1339.05 99.8418C1338.34 98.892 1337.39 98.1714 1336.13 97.6389C1336.11 97.6297 1336.1 97.6175 1336.09 97.603C1335.63 96.0441 1334.4 95 1333 95C1331.6 95 1330.37 96.0441 1329.92 97.6014C1329.9 97.6154 1329.89 97.6271 1329.87 97.6363C1326.94 98.8796 1325.51 101.265 1325.51 104.929C1325.51 108.967 1324.82 109.827 1323.68 111.251C1323.59 111.354 1323.51 111.459 1323.42 111.569C1323.2 111.846 1323.06 112.183 1323.01 112.54C1322.97 112.897 1323.03 113.259 1323.18 113.584C1323.5 114.28 1324.18 114.713 1324.97 114.713H1341.04C1341.82 114.713 1342.5 114.281 1342.82 113.588C1342.97 113.263 1343.03 112.9 1342.99 112.543C1342.94 112.185 1342.8 111.848 1342.58 111.57ZM1333 119C1333.75 118.999 1334.49 118.789 1335.14 118.392C1335.78 117.995 1336.31 117.425 1336.67 116.743C1336.68 116.71 1336.69 116.674 1336.69 116.637C1336.69 116.6 1336.68 116.564 1336.66 116.532C1336.64 116.501 1336.62 116.474 1336.58 116.456C1336.55 116.438 1336.52 116.429 1336.48 116.429H1329.52C1329.48 116.428 1329.45 116.438 1329.42 116.456C1329.39 116.474 1329.36 116.5 1329.34 116.532C1329.32 116.564 1329.31 116.6 1329.31 116.637C1329.31 116.674 1329.32 116.71 1329.33 116.743C1329.69 117.425 1330.22 117.994 1330.87 118.392C1331.51 118.789 1332.25 118.999 1333 119Z" fill="#2E2A2A"/>
<path d="M1342.58 155.57C1342.49 155.463 1342.41 155.356 1342.33 155.253C1341.18 153.827 1340.49 152.967 1340.49 148.931C1340.49 146.842 1340 145.127 1339.05 143.842C1338.34 142.892 1337.39 142.171 1336.13 141.639C1336.11 141.63 1336.1 141.618 1336.09 141.603C1335.63 140.044 1334.4 139 1333 139C1331.6 139 1330.37 140.044 1329.92 141.601C1329.9 141.615 1329.89 141.627 1329.87 141.636C1326.94 142.88 1325.51 145.265 1325.51 148.929C1325.51 152.967 1324.82 153.827 1323.68 155.251C1323.59 155.354 1323.51 155.459 1323.42 155.569C1323.2 155.846 1323.06 156.183 1323.01 156.54C1322.97 156.897 1323.03 157.259 1323.18 157.584C1323.5 158.28 1324.18 158.713 1324.97 158.713H1341.04C1341.82 158.713 1342.5 158.281 1342.82 157.588C1342.97 157.263 1343.03 156.9 1342.99 156.543C1342.94 156.185 1342.8 155.848 1342.58 155.57ZM1333 163C1333.75 162.999 1334.49 162.789 1335.14 162.392C1335.78 161.995 1336.31 161.425 1336.67 160.743C1336.68 160.71 1336.69 160.674 1336.69 160.637C1336.69 160.6 1336.68 160.564 1336.66 160.532C1336.64 160.501 1336.62 160.474 1336.58 160.456C1336.55 160.438 1336.52 160.429 1336.48 160.429H1329.52C1329.48 160.428 1329.45 160.438 1329.42 160.456C1329.39 160.474 1329.36 160.5 1329.34 160.532C1329.32 160.564 1329.31 160.6 1329.31 160.637C1329.31 160.674 1329.32 160.71 1329.33 160.743C1329.69 161.425 1330.22 161.994 1330.87 162.392C1331.51 162.789 1332.25 162.999 1333 163Z" fill="#FCFCFC"/>
<path d="M1342.58 199.57C1342.49 199.463 1342.41 199.356 1342.33 199.253C1341.18 197.827 1340.49 196.967 1340.49 192.931C1340.49 190.842 1340 189.127 1339.05 187.842C1338.34 186.892 1337.39 186.171 1336.13 185.639C1336.11 185.63 1336.1 185.618 1336.09 185.603C1335.63 184.044 1334.4 183 1333 183C1331.6 183 1330.37 184.044 1329.92 185.601C1329.9 185.615 1329.89 185.627 1329.87 185.636C1326.94 186.88 1325.51 189.265 1325.51 192.929C1325.51 196.967 1324.82 197.827 1323.68 199.251C1323.59 199.354 1323.51 199.459 1323.42 199.569C1323.2 199.846 1323.06 200.183 1323.01 200.54C1322.97 200.897 1323.03 201.259 1323.18 201.584C1323.5 202.28 1324.18 202.713 1324.97 202.713H1341.04C1341.82 202.713 1342.5 202.281 1342.82 201.588C1342.97 201.263 1343.03 200.9 1342.99 200.543C1342.94 200.185 1342.8 199.848 1342.58 199.57ZM1333 207C1333.75 206.999 1334.49 206.789 1335.14 206.392C1335.78 205.995 1336.31 205.425 1336.67 204.743C1336.68 204.71 1336.69 204.674 1336.69 204.637C1336.69 204.6 1336.68 204.564 1336.66 204.532C1336.64 204.501 1336.62 204.474 1336.58 204.456C1336.55 204.438 1336.52 204.429 1336.48 204.429H1329.52C1329.48 204.428 1329.45 204.438 1329.42 204.456C1329.39 204.474 1329.36 204.5 1329.34 204.532C1329.32 204.564 1329.31 204.6 1329.31 204.637C1329.31 204.674 1329.32 204.71 1329.33 204.743C1329.69 205.425 1330.22 205.994 1330.87 206.392C1331.51 206.789 1332.25 206.999 1333 207Z" fill="#969696"/>
<path d="M1342.58 243.57C1342.49 243.463 1342.41 243.356 1342.33 243.253C1341.18 241.827 1340.49 240.967 1340.49 236.931C1340.49 234.842 1340 233.127 1339.05 231.842C1338.34 230.892 1337.39 230.171 1336.13 229.639C1336.11 229.63 1336.1 229.618 1336.09 229.603C1335.63 228.044 1334.4 227 1333 227C1331.6 227 1330.37 228.044 1329.92 229.601C1329.9 229.615 1329.89 229.627 1329.87 229.636C1326.94 230.88 1325.51 233.265 1325.51 236.929C1325.51 240.967 1324.82 241.827 1323.68 243.251C1323.59 243.354 1323.51 243.459 1323.42 243.569C1323.2 243.846 1323.06 244.183 1323.01 244.54C1322.97 244.897 1323.03 245.259 1323.18 245.584C1323.5 246.28 1324.18 246.713 1324.97 246.713H1341.04C1341.82 246.713 1342.5 246.281 1342.82 245.588C1342.97 245.263 1343.03 244.9 1342.99 244.543C1342.94 244.185 1342.8 243.848 1342.58 243.57ZM1333 251C1333.75 250.999 1334.49 250.789 1335.14 250.392C1335.78 249.995 1336.31 249.425 1336.67 248.743C1336.68 248.71 1336.69 248.674 1336.69 248.637C1336.69 248.6 1336.68 248.564 1336.66 248.532C1336.64 248.501 1336.62 248.474 1336.58 248.456C1336.55 248.438 1336.52 248.429 1336.48 248.429H1329.52C1329.48 248.428 1329.45 248.438 1329.42 248.456C1329.39 248.474 1329.36 248.5 1329.34 248.532C1329.32 248.564 1329.31 248.6 1329.31 248.637C1329.31 248.674 1329.32 248.71 1329.33 248.743C1329.69 249.425 1330.22 249.994 1330.87 250.392C1331.51 250.789 1332.25 250.999 1333 251Z" fill="#5FA3A4"/>
<path d="M1342.58 287.57C1342.49 287.463 1342.41 287.356 1342.33 287.253C1341.18 285.827 1340.49 284.967 1340.49 280.931C1340.49 278.842 1340 277.127 1339.05 275.842C1338.34 274.892 1337.39 274.171 1336.13 273.639C1336.11 273.63 1336.1 273.618 1336.09 273.603C1335.63 272.044 1334.4 271 1333 271C1331.6 271 1330.37 272.044 1329.92 273.601C1329.9 273.615 1329.89 273.627 1329.87 273.636C1326.94 274.88 1325.51 277.265 1325.51 280.929C1325.51 284.967 1324.82 285.827 1323.68 287.251C1323.59 287.354 1323.51 287.459 1323.42 287.569C1323.2 287.846 1323.06 288.183 1323.01 288.54C1322.97 288.897 1323.03 289.259 1323.18 289.584C1323.5 290.28 1324.18 290.713 1324.97 290.713H1341.04C1341.82 290.713 1342.5 290.281 1342.82 289.588C1342.97 289.263 1343.03 288.9 1342.99 288.543C1342.94 288.185 1342.8 287.848 1342.58 287.57ZM1333 295C1333.75 294.999 1334.49 294.789 1335.14 294.392C1335.78 293.995 1336.31 293.425 1336.67 292.743C1336.68 292.71 1336.69 292.674 1336.69 292.637C1336.69 292.6 1336.68 292.564 1336.66 292.532C1336.64 292.501 1336.62 292.474 1336.58 292.456C1336.55 292.438 1336.52 292.429 1336.48 292.429H1329.52C1329.48 292.428 1329.45 292.438 1329.42 292.456C1329.39 292.474 1329.36 292.5 1329.34 292.532C1329.32 292.564 1329.31 292.6 1329.31 292.637C1329.31 292.674 1329.32 292.71 1329.33 292.743C1329.69 293.425 1330.22 293.994 1330.87 294.392C1331.51 294.789 1332.25 294.999 1333 295Z" fill="#B60006"/>
<g filter="url(#filter5_d_1_3)">
<path d="M1342.58 331.57C1342.49 331.463 1342.41 331.356 1342.33 331.253C1341.18 329.827 1340.49 328.967 1340.49 324.931C1340.49 322.842 1340 321.127 1339.05 319.842C1338.34 318.892 1337.39 318.171 1336.13 317.639C1336.11 317.63 1336.1 317.618 1336.09 317.603C1335.63 316.044 1334.4 315 1333 315C1331.6 315 1330.37 316.044 1329.92 317.601C1329.9 317.615 1329.89 317.627 1329.87 317.636C1326.94 318.88 1325.51 321.265 1325.51 324.929C1325.51 328.967 1324.82 329.827 1323.68 331.251C1323.59 331.354 1323.51 331.459 1323.42 331.569C1323.2 331.846 1323.06 332.183 1323.01 332.54C1322.97 332.897 1323.03 333.259 1323.18 333.584C1323.5 334.28 1324.18 334.713 1324.97 334.713H1341.04C1341.82 334.713 1342.5 334.281 1342.82 333.588C1342.97 333.263 1343.03 332.9 1342.99 332.543C1342.94 332.185 1342.8 331.848 1342.58 331.57ZM1333 339C1333.75 338.999 1334.49 338.789 1335.14 338.392C1335.78 337.995 1336.31 337.425 1336.67 336.743C1336.68 336.71 1336.69 336.674 1336.69 336.637C1336.69 336.6 1336.68 336.564 1336.66 336.532C1336.64 336.501 1336.62 336.474 1336.58 336.456C1336.55 336.438 1336.52 336.429 1336.48 336.429H1329.52C1329.48 336.428 1329.45 336.438 1329.42 336.456C1329.39 336.474 1329.36 336.5 1329.34 336.532C1329.32 336.564 1329.31 336.6 1329.31 336.637C1329.31 336.674 1329.32 336.71 1329.33 336.743C1329.69 337.425 1330.22 337.994 1330.87 338.392C1331.51 338.789 1332.25 338.999 1333 339Z" fill="#969696"/>
</g>
<rect x="1303.5" y="75.5" width="59" height="283" rx="4.5" stroke="#9747FF" stroke-dasharray="10 5"/>
<path d="M1235.78 99.22C1235.92 99.3606 1236 99.5512 1236 99.75C1236 99.9488 1235.92 100.139 1235.78 100.28L1228.53 107.53C1228.39 107.67 1228.2 107.749 1228 107.749C1227.8 107.749 1227.61 107.67 1227.47 107.53L1224.22 104.28C1224.09 104.138 1224.02 103.95 1224.02 103.755C1224.02 103.561 1224.1 103.376 1224.24 103.238C1224.38 103.101 1224.56 103.022 1224.76 103.019C1224.95 103.015 1225.14 103.088 1225.28 103.22L1228 105.94L1234.72 99.22C1234.86 99.0795 1235.05 99.0007 1235.25 99.0007C1235.45 99.0007 1235.64 99.0795 1235.78 99.22Z" fill="#2E2A2A"/>
<path d="M1235.78 135.22C1235.92 135.361 1236 135.551 1236 135.75C1236 135.949 1235.92 136.139 1235.78 136.28L1228.53 143.53C1228.39 143.67 1228.2 143.749 1228 143.749C1227.8 143.749 1227.61 143.67 1227.47 143.53L1224.22 140.28C1224.09 140.138 1224.02 139.95 1224.02 139.755C1224.02 139.561 1224.1 139.376 1224.24 139.238C1224.38 139.101 1224.56 139.022 1224.76 139.019C1224.95 139.015 1225.14 139.088 1225.28 139.22L1228 141.94L1234.72 135.22C1234.86 135.08 1235.05 135.001 1235.25 135.001C1235.45 135.001 1235.64 135.08 1235.78 135.22Z" fill="#FCFCFC"/>
<path d="M1235.78 171.22C1235.92 171.361 1236 171.551 1236 171.75C1236 171.949 1235.92 172.139 1235.78 172.28L1228.53 179.53C1228.39 179.67 1228.2 179.749 1228 179.749C1227.8 179.749 1227.61 179.67 1227.47 179.53L1224.22 176.28C1224.09 176.138 1224.02 175.95 1224.02 175.755C1224.02 175.561 1224.1 175.376 1224.24 175.238C1224.38 175.101 1224.56 175.022 1224.76 175.019C1224.95 175.015 1225.14 175.088 1225.28 175.22L1228 177.94L1234.72 171.22C1234.86 171.08 1235.05 171.001 1235.25 171.001C1235.45 171.001 1235.64 171.08 1235.78 171.22Z" fill="#5FA3A4"/>
<path d="M1235.78 207.22C1235.92 207.361 1236 207.551 1236 207.75C1236 207.949 1235.92 208.139 1235.78 208.28L1228.53 215.53C1228.39 215.67 1228.2 215.749 1228 215.749C1227.8 215.749 1227.61 215.67 1227.47 215.53L1224.22 212.28C1224.09 212.138 1224.02 211.95 1224.02 211.755C1224.02 211.561 1224.1 211.376 1224.24 211.238C1224.38 211.101 1224.56 211.022 1224.76 211.019C1224.95 211.015 1225.14 211.088 1225.28 211.22L1228 213.94L1234.72 207.22C1234.86 207.08 1235.05 207.001 1235.25 207.001C1235.45 207.001 1235.64 207.08 1235.78 207.22Z" fill="#B60006"/>
<rect x="1202.5" y="75.5" width="55" height="163" rx="4.5" stroke="#9747FF" stroke-dasharray="10 5"/>
<path d="M702.5 548C693.886 548 692 554.497 692 557C692 559.813 694.691 564 696.5 564C696.723 564 696.919 563.852 696.981 563.637L697.375 562.257L696.01 568.398C695.994 568.477 695.629 570.336 697.146 571.853C697.243 571.95 697.371 572 697.5 572C697.585 572 697.671 571.978 697.749 571.934C697.814 571.896 699.363 570.996 699.954 569.709C700.366 568.814 701.308 566.392 701.742 565.265C702.307 565.589 703.266 566 704.5 566C710.036 566 712 561.152 712 557C712 553.887 710.015 548 702.5 548ZM697.978 559.545L697.932 559.752C697.9 559.696 697.857 559.645 697.804 559.604C697.771 559.578 697 558.954 697 557.5C697 554.064 699.851 552.5 702.5 552.5C705.279 552.5 707 554.576 707 556.5C707 558.556 705.122 562 704 562C702.804 562 702.561 561.094 702.512 560.684C703.639 559.387 704 557.069 704 556.465C704.001 556.107 704.003 555.361 703.406 554.762C702.902 554.256 702.092 554 701 554C698.237 554 697.5 556.2 697.5 557.5C697.5 558.26 697.834 559.183 697.978 559.545Z" fill="#FCFCFC"/>
<path d="M702.5 592C693.886 592 692 598.497 692 601C692 603.813 694.691 608 696.5 608C696.723 608 696.919 607.852 696.981 607.637L697.375 606.257L696.01 612.398C695.994 612.477 695.629 614.336 697.146 615.853C697.243 615.95 697.371 616 697.5 616C697.585 616 697.671 615.978 697.749 615.934C697.814 615.896 699.363 614.996 699.954 613.709C700.366 612.814 701.308 610.392 701.742 609.265C702.307 609.589 703.266 610 704.5 610C710.036 610 712 605.152 712 601C712 597.887 710.015 592 702.5 592ZM697.978 603.545L697.932 603.752C697.9 603.696 697.857 603.645 697.804 603.604C697.771 603.578 697 602.954 697 601.5C697 598.064 699.851 596.5 702.5 596.5C705.279 596.5 707 598.576 707 600.5C707 602.556 705.122 606 704 606C702.804 606 702.561 605.094 702.512 604.684C703.639 603.387 704 601.069 704 600.465C704.001 600.107 704.003 599.361 703.406 598.762C702.902 598.256 702.092 598 701 598C698.237 598 697.5 600.2 697.5 601.5C697.5 602.26 697.834 603.183 697.978 603.545Z" fill="#CB1F27"/>
<rect x="670.5" y="528.5" width="63" height="107" rx="4.5" stroke="#9747FF" stroke-dasharray="10 5"/>
<path d="M813.37 552.855C813.218 552.688 812.973 552.646 812.772 552.749C812.647 552.813 812.412 552.897 812.133 552.98C812.485 552.512 812.768 551.988 812.893 551.517C812.947 551.314 812.868 551.1 812.696 550.979C812.524 550.859 812.295 550.859 812.123 550.979C811.852 551.168 810.544 551.736 809.717 551.92C807.848 550.283 805.673 550.113 803.412 551.433C801.574 552.506 801.174 554.688 801.252 556.018C797.045 555.613 794.43 553.391 792.958 551.552C792.855 551.423 792.689 551.355 792.533 551.365C792.369 551.377 792.221 551.468 792.137 551.609C791.441 552.784 791.248 554.083 791.581 555.366C791.763 556.066 792.081 556.683 792.45 557.183C792.273 557.096 792.102 556.987 791.941 556.857C791.793 556.735 791.586 556.712 791.411 556.793C791.237 556.876 791.126 557.052 791.126 557.245C791.126 559.448 792.504 560.918 793.791 561.686C793.583 561.661 793.366 561.615 793.147 561.548C792.959 561.491 792.755 561.548 792.625 561.696C792.495 561.843 792.464 562.053 792.545 562.232C793.268 563.831 794.638 564.931 796.333 565.33C794.853 566.199 792.872 566.625 791.058 566.416C790.823 566.383 790.599 566.532 790.525 566.758C790.451 566.984 790.548 567.232 790.755 567.348C793.507 568.893 795.995 569.445 798.145 569.445C801.274 569.445 803.689 568.277 805.159 567.3C809.122 564.67 811.592 559.948 811.248 555.723C811.883 555.254 812.833 554.388 813.422 553.457C813.544 553.269 813.522 553.021 813.37 552.855Z" fill="#FCFCFC"/>
<path d="M813.37 596.855C813.218 596.688 812.973 596.646 812.772 596.749C812.647 596.813 812.412 596.897 812.133 596.98C812.485 596.512 812.768 595.988 812.893 595.517C812.947 595.314 812.868 595.1 812.696 594.979C812.524 594.859 812.295 594.859 812.123 594.979C811.852 595.168 810.544 595.736 809.717 595.92C807.848 594.283 805.673 594.113 803.412 595.433C801.574 596.506 801.174 598.688 801.252 600.018C797.045 599.613 794.43 597.391 792.958 595.552C792.855 595.423 792.689 595.355 792.533 595.365C792.369 595.377 792.221 595.468 792.137 595.609C791.441 596.784 791.248 598.083 791.581 599.366C791.763 600.066 792.081 600.683 792.45 601.183C792.273 601.096 792.102 600.987 791.941 600.857C791.793 600.735 791.586 600.712 791.411 600.793C791.237 600.876 791.126 601.052 791.126 601.245C791.126 603.448 792.504 604.918 793.791 605.686C793.583 605.661 793.366 605.615 793.147 605.548C792.959 605.491 792.755 605.548 792.625 605.696C792.495 605.843 792.464 606.053 792.545 606.232C793.268 607.831 794.638 608.931 796.333 609.33C794.853 610.199 792.872 610.625 791.058 610.416C790.823 610.383 790.599 610.532 790.525 610.758C790.451 610.984 790.548 611.232 790.755 611.348C793.507 612.893 795.995 613.445 798.145 613.445C801.274 613.445 803.689 612.277 805.159 611.3C809.122 608.67 811.592 603.948 811.248 599.723C811.883 599.254 812.833 598.388 813.422 597.457C813.544 597.269 813.522 597.021 813.37 596.855Z" fill="#55ACEE"/>
<rect x="770.5" y="528.5" width="63" height="107" rx="4.5" stroke="#9747FF" stroke-dasharray="10 5"/>
<path d="M908.375 548H895.625C892.518 548 890 550.518 890 553.625V566.375C890 569.482 892.518 572 895.625 572H908.375C911.482 572 914 569.482 914 566.375V553.625C914 550.518 911.482 548 908.375 548Z" fill="url(#paint0_radial_1_3)"/>
<path d="M908.375 548H895.625C892.518 548 890 550.518 890 553.625V566.375C890 569.482 892.518 572 895.625 572H908.375C911.482 572 914 569.482 914 566.375V553.625C914 550.518 911.482 548 908.375 548Z" fill="url(#paint1_radial_1_3)"/>
<path d="M902.001 550.625C899.455 550.625 899.135 550.636 898.135 550.682C897.137 550.727 896.456 550.885 895.86 551.117C895.243 551.357 894.72 551.677 894.199 552.198C893.678 552.719 893.357 553.242 893.117 553.859C892.885 554.455 892.726 555.137 892.681 556.134C892.637 557.134 892.625 557.454 892.625 560C892.625 562.546 892.636 562.865 892.682 563.865C892.728 564.863 892.886 565.544 893.117 566.14C893.357 566.757 893.677 567.28 894.198 567.801C894.719 568.322 895.242 568.644 895.859 568.883C896.455 569.115 897.137 569.273 898.134 569.319C899.134 569.364 899.454 569.375 902 569.375C904.546 569.375 904.865 569.364 905.865 569.319C906.863 569.273 907.545 569.115 908.141 568.883C908.758 568.644 909.28 568.322 909.801 567.801C910.322 567.28 910.643 566.757 910.883 566.14C911.113 565.544 911.271 564.863 911.318 563.865C911.363 562.865 911.375 562.546 911.375 560C911.375 557.454 911.363 557.134 911.318 556.134C911.271 555.136 911.113 554.455 910.883 553.859C910.643 553.242 910.322 552.719 909.801 552.198C909.279 551.677 908.758 551.356 908.141 551.117C907.543 550.885 906.861 550.727 905.863 550.682C904.863 550.636 904.545 550.625 901.998 550.625H902.001ZM901.16 552.314C901.409 552.314 901.688 552.314 902.001 552.314C904.504 552.314 904.801 552.323 905.789 552.368C906.703 552.41 907.199 552.563 907.53 552.691C907.967 552.861 908.279 553.064 908.607 553.392C908.935 553.721 909.138 554.033 909.309 554.471C909.437 554.801 909.59 555.297 909.632 556.211C909.677 557.199 909.686 557.496 909.686 559.998C909.686 562.5 909.677 562.797 909.632 563.785C909.59 564.699 909.437 565.195 909.309 565.525C909.139 565.963 908.935 566.274 908.607 566.602C908.279 566.93 907.968 567.134 907.53 567.304C907.2 567.432 906.703 567.585 905.789 567.627C904.801 567.671 904.504 567.681 902.001 567.681C899.498 567.681 899.201 567.671 898.213 567.627C897.299 567.584 896.802 567.432 896.472 567.303C896.034 567.133 895.722 566.93 895.394 566.602C895.065 566.274 894.862 565.962 894.692 565.525C894.564 565.194 894.411 564.698 894.369 563.784C894.324 562.796 894.315 562.499 894.315 559.996C894.315 557.492 894.324 557.197 894.369 556.208C894.411 555.294 894.564 554.798 894.692 554.468C894.862 554.03 895.065 553.718 895.394 553.39C895.722 553.062 896.034 552.858 896.472 552.688C896.802 552.559 897.299 552.407 898.213 552.365C899.077 552.326 899.413 552.314 901.16 552.312V552.314ZM907.005 553.871C906.384 553.871 905.88 554.375 905.88 554.996C905.88 555.617 906.384 556.121 907.005 556.121C907.626 556.121 908.13 555.617 908.13 554.996C908.13 554.375 907.626 553.871 907.005 553.871V553.871ZM902.001 555.186C899.342 555.186 897.186 557.341 897.186 560C897.186 562.659 899.342 564.814 902.001 564.814C904.66 564.814 906.815 562.659 906.815 560C906.815 557.341 904.66 555.186 902.001 555.186H902.001ZM902.001 556.875C903.727 556.875 905.126 558.274 905.126 560C905.126 561.726 903.727 563.125 902.001 563.125C900.275 563.125 898.876 561.726 898.876 560C898.876 558.274 900.275 556.875 902.001 556.875Z" fill="#FCFCFC"/>
<path d="M908.375 592H895.625C892.518 592 890 594.518 890 597.625V610.375C890 613.482 892.518 616 895.625 616H908.375C911.482 616 914 613.482 914 610.375V597.625C914 594.518 911.482 592 908.375 592Z" fill="#FCFCFC"/>
<path d="M908.375 592H895.625C892.518 592 890 594.518 890 597.625V610.375C890 613.482 892.518 616 895.625 616H908.375C911.482 616 914 613.482 914 610.375V597.625C914 594.518 911.482 592 908.375 592Z" fill="#FCFCFC"/>
<path d="M902.001 594.625C899.455 594.625 899.135 594.636 898.135 594.682C897.137 594.727 896.456 594.885 895.86 595.117C895.243 595.357 894.72 595.677 894.199 596.198C893.678 596.719 893.357 597.242 893.117 597.859C892.885 598.455 892.726 599.137 892.681 600.134C892.637 601.134 892.625 601.454 892.625 604C892.625 606.546 892.636 606.865 892.682 607.865C892.728 608.863 892.886 609.544 893.117 610.14C893.357 610.757 893.677 611.28 894.198 611.801C894.719 612.322 895.242 612.644 895.859 612.883C896.455 613.115 897.137 613.273 898.134 613.319C899.134 613.364 899.454 613.375 902 613.375C904.546 613.375 904.865 613.364 905.865 613.319C906.863 613.273 907.545 613.115 908.141 612.883C908.758 612.644 909.28 612.322 909.801 611.801C910.322 611.28 910.643 610.757 910.883 610.14C911.113 609.544 911.271 608.863 911.318 607.865C911.363 606.865 911.375 606.546 911.375 604C911.375 601.454 911.363 601.134 911.318 600.134C911.271 599.136 911.113 598.455 910.883 597.859C910.643 597.242 910.322 596.719 909.801 596.198C909.279 595.677 908.758 595.356 908.141 595.117C907.543 594.885 906.861 594.727 905.863 594.682C904.863 594.636 904.545 594.625 901.998 594.625H902.001ZM901.16 596.314C901.409 596.314 901.688 596.314 902.001 596.314C904.504 596.314 904.801 596.323 905.789 596.368C906.703 596.41 907.199 596.563 907.53 596.691C907.967 596.861 908.279 597.064 908.607 597.392C908.935 597.721 909.138 598.033 909.309 598.471C909.437 598.801 909.59 599.297 909.632 600.211C909.677 601.199 909.686 601.496 909.686 603.998C909.686 606.5 909.677 606.797 909.632 607.785C909.59 608.699 909.437 609.195 909.309 609.525C909.139 609.963 908.935 610.274 908.607 610.602C908.279 610.93 907.968 611.134 907.53 611.304C907.2 611.432 906.703 611.585 905.789 611.627C904.801 611.671 904.504 611.681 902.001 611.681C899.498 611.681 899.201 611.671 898.213 611.627C897.299 611.584 896.802 611.432 896.472 611.303C896.034 611.133 895.722 610.93 895.394 610.602C895.065 610.274 894.862 609.962 894.692 609.525C894.564 609.194 894.411 608.698 894.369 607.784C894.324 606.796 894.315 606.499 894.315 603.996C894.315 601.492 894.324 601.197 894.369 600.208C894.411 599.294 894.564 598.798 894.692 598.468C894.862 598.03 895.065 597.718 895.394 597.39C895.722 597.062 896.034 596.858 896.472 596.688C896.802 596.559 897.299 596.407 898.213 596.365C899.077 596.326 899.413 596.314 901.16 596.312V596.314ZM907.005 597.871C906.384 597.871 905.88 598.375 905.88 598.996C905.88 599.617 906.384 600.121 907.005 600.121C907.626 600.121 908.13 599.617 908.13 598.996C908.13 598.375 907.626 597.871 907.005 597.871V597.871ZM902.001 599.186C899.342 599.186 897.186 601.341 897.186 604C897.186 606.659 899.342 608.814 902.001 608.814C904.66 608.814 906.815 606.659 906.815 604C906.815 601.341 904.66 599.186 902.001 599.186H902.001ZM902.001 600.875C903.727 600.875 905.126 602.274 905.126 604C905.126 605.726 903.727 607.125 902.001 607.125C900.275 607.125 898.876 605.726 898.876 604C898.876 602.274 900.275 600.875 902.001 600.875Z" fill="#2E2A2A"/>
<rect x="870.5" y="528.5" width="63" height="107" rx="4.5" stroke="#9747FF" stroke-dasharray="10 5"/>
<path d="M109.582 111.352H108.408L107.991 110.951C109.499 109.203 110.327 106.971 110.325 104.663C110.325 102.752 109.759 100.883 108.697 99.2944C107.635 97.7054 106.126 96.4669 104.36 95.7355C102.595 95.0042 100.652 94.8128 98.7776 95.1857C96.9032 95.5585 95.1815 96.4788 93.8301 97.8301C92.4788 99.1815 91.5585 100.903 91.1857 102.778C90.8128 104.652 91.0042 106.595 91.7355 108.36C92.4669 110.126 93.7054 111.635 95.2944 112.697C96.8834 113.759 98.7516 114.325 100.663 114.325C103.056 114.325 105.256 113.448 106.951 111.991L107.352 112.408V113.582L114.785 121L117 118.785L109.582 111.352ZM100.663 111.352C96.9611 111.352 93.9731 108.364 93.9731 104.663C93.9731 100.961 96.9611 97.9731 100.663 97.9731C104.364 97.9731 107.352 100.961 107.352 104.663C107.352 108.364 104.364 111.352 100.663 111.352Z" fill="#969696"/>
<path d="M109.582 157.352H108.408L107.991 156.951C109.499 155.203 110.327 152.971 110.325 150.663C110.325 148.752 109.759 146.883 108.697 145.294C107.635 143.705 106.126 142.467 104.36 141.736C102.595 141.004 100.652 140.813 98.7776 141.186C96.9032 141.559 95.1815 142.479 93.8301 143.83C92.4788 145.181 91.5585 146.903 91.1857 148.778C90.8128 150.652 91.0042 152.595 91.7355 154.36C92.4669 156.126 93.7054 157.635 95.2944 158.697C96.8834 159.759 98.7516 160.325 100.663 160.325C103.056 160.325 105.256 159.448 106.951 157.991L107.352 158.408V159.582L114.785 167L117 164.785L109.582 157.352ZM100.663 157.352C96.9611 157.352 93.9731 154.364 93.9731 150.663C93.9731 146.961 96.9611 143.973 100.663 143.973C104.364 143.973 107.352 146.961 107.352 150.663C107.352 154.364 104.364 157.352 100.663 157.352Z" fill="#2E2A2A"/>
<path d="M109.582 203.352H108.408L107.991 202.951C109.499 201.203 110.327 198.971 110.325 196.663C110.325 194.752 109.759 192.883 108.697 191.294C107.635 189.705 106.126 188.467 104.36 187.736C102.595 187.004 100.652 186.813 98.7776 187.186C96.9032 187.559 95.1815 188.479 93.8301 189.83C92.4788 191.181 91.5585 192.903 91.1857 194.778C90.8128 196.652 91.0042 198.595 91.7355 200.36C92.4669 202.126 93.7054 203.635 95.2944 204.697C96.8834 205.759 98.7516 206.325 100.663 206.325C103.056 206.325 105.256 205.448 106.951 203.991L107.352 204.408V205.582L114.785 213L117 210.785L109.582 203.352ZM100.663 203.352C96.9611 203.352 93.9731 200.364 93.9731 196.663C93.9731 192.961 96.9611 189.973 100.663 189.973C104.364 189.973 107.352 192.961 107.352 196.663C107.352 200.364 104.364 203.352 100.663 203.352Z" fill="#FCFCFC"/>
<path d="M109.582 249.352H108.408L107.991 248.951C109.499 247.203 110.327 244.971 110.325 242.663C110.325 240.752 109.759 238.883 108.697 237.294C107.635 235.705 106.126 234.467 104.36 233.736C102.595 233.004 100.652 232.813 98.7776 233.186C96.9032 233.559 95.1815 234.479 93.8301 235.83C92.4788 237.181 91.5585 238.903 91.1857 240.778C90.8128 242.652 91.0042 244.595 91.7355 246.36C92.4669 248.126 93.7054 249.635 95.2944 250.697C96.8834 251.759 98.7516 252.325 100.663 252.325C103.056 252.325 105.256 251.448 106.951 249.991L107.352 250.408V251.582L114.785 259L117 256.785L109.582 249.352ZM100.663 249.352C96.9611 249.352 93.9731 246.364 93.9731 242.663C93.9731 238.961 96.9611 235.973 100.663 235.973C104.364 235.973 107.352 238.961 107.352 242.663C107.352 246.364 104.364 249.352 100.663 249.352Z" fill="#5FA3A4"/>
<path d="M109.582 295.352H108.408L107.991 294.951C109.499 293.203 110.327 290.971 110.325 288.663C110.325 286.752 109.759 284.883 108.697 283.294C107.635 281.705 106.126 280.467 104.36 279.736C102.595 279.004 100.652 278.813 98.7776 279.186C96.9032 279.559 95.1815 280.479 93.8301 281.83C92.4788 283.181 91.5585 284.903 91.1857 286.778C90.8128 288.652 91.0042 290.595 91.7355 292.36C92.4669 294.126 93.7054 295.635 95.2944 296.697C96.8834 297.759 98.7516 298.325 100.663 298.325C103.056 298.325 105.256 297.448 106.951 295.991L107.352 296.408V297.582L114.785 305L117 302.785L109.582 295.352ZM100.663 295.352C96.9611 295.352 93.9731 292.364 93.9731 288.663C93.9731 284.961 96.9611 281.973 100.663 281.973C104.364 281.973 107.352 284.961 107.352 288.663C107.352 292.364 104.364 295.352 100.663 295.352Z" fill="#B60006"/>
<rect x="71.5" y="75.5" width="65" height="249" rx="4.5" stroke="#9747FF" stroke-dasharray="10 5"/>
<path fill-rule="evenodd" clip-rule="evenodd" d="M1447.28 103.152C1446.91 103 1446.44 103 1445.5 103C1444.56 103 1444.09 103 1443.72 103.152C1443.23 103.354 1442.84 103.744 1442.63 104.235C1442.54 104.458 1442.5 104.719 1442.49 105.098C1442.48 105.373 1442.4 105.641 1442.26 105.878C1442.12 106.114 1441.93 106.312 1441.69 106.451C1441.45 106.585 1441.18 106.656 1440.9 106.658C1440.63 106.659 1440.35 106.591 1440.11 106.459C1439.77 106.281 1439.53 106.183 1439.29 106.151C1438.76 106.081 1438.22 106.224 1437.8 106.547C1437.48 106.789 1437.24 107.193 1436.77 108C1436.3 108.807 1436.07 109.21 1436.02 109.605C1435.95 110.131 1436.09 110.663 1436.42 111.084C1436.57 111.276 1436.77 111.437 1437.1 111.639C1437.57 111.936 1437.88 112.442 1437.88 113C1437.88 113.558 1437.57 114.064 1437.1 114.36C1436.77 114.563 1436.57 114.724 1436.42 114.916C1436.26 115.124 1436.14 115.362 1436.07 115.616C1436 115.869 1435.98 116.134 1436.02 116.395C1436.07 116.789 1436.3 117.193 1436.77 118C1437.24 118.807 1437.48 119.21 1437.8 119.453C1438.22 119.776 1438.76 119.918 1439.29 119.849C1439.53 119.817 1439.77 119.719 1440.11 119.541C1440.35 119.409 1440.63 119.341 1440.9 119.342C1441.18 119.344 1441.45 119.415 1441.69 119.549C1442.18 119.829 1442.47 120.344 1442.49 120.902C1442.5 121.282 1442.54 121.542 1442.63 121.765C1442.84 122.255 1443.23 122.645 1443.72 122.848C1444.09 123 1444.56 123 1445.5 123C1446.44 123 1446.91 123 1447.28 122.848C1447.77 122.646 1448.16 122.256 1448.37 121.765C1448.46 121.542 1448.5 121.282 1448.51 120.902C1448.53 120.344 1448.82 119.828 1449.31 119.549C1449.55 119.415 1449.82 119.344 1450.1 119.342C1450.37 119.341 1450.65 119.409 1450.89 119.541C1451.23 119.719 1451.47 119.817 1451.71 119.849C1452.24 119.919 1452.78 119.776 1453.2 119.453C1453.52 119.211 1453.76 118.807 1454.23 118C1454.7 117.193 1454.93 116.79 1454.98 116.395C1455.02 116.134 1455 115.869 1454.93 115.615C1454.86 115.362 1454.74 115.124 1454.58 114.916C1454.44 114.724 1454.23 114.563 1453.9 114.361C1453.43 114.064 1453.12 113.558 1453.12 113C1453.12 112.442 1453.43 111.936 1453.9 111.64C1454.23 111.437 1454.44 111.276 1454.58 111.084C1454.75 110.876 1454.86 110.638 1454.93 110.384C1455 110.131 1455.02 109.866 1454.98 109.605C1454.93 109.211 1454.7 108.807 1454.23 108C1453.76 107.193 1453.52 106.79 1453.2 106.547C1452.78 106.224 1452.24 106.081 1451.71 106.151C1451.47 106.183 1451.23 106.281 1450.89 106.459C1450.65 106.591 1450.37 106.659 1450.1 106.658C1449.82 106.656 1449.55 106.585 1449.31 106.451C1449.07 106.312 1448.88 106.114 1448.74 105.878C1448.6 105.641 1448.52 105.373 1448.51 105.098C1448.5 104.718 1448.46 104.458 1448.37 104.235C1448.27 103.992 1448.12 103.771 1447.93 103.585C1447.75 103.399 1447.52 103.252 1447.28 103.152ZM1445.5 116C1447.17 116 1448.52 114.657 1448.52 113C1448.52 111.343 1447.17 110 1445.5 110C1443.83 110 1442.48 111.343 1442.48 113C1442.48 114.657 1443.83 116 1445.5 116Z" fill="black"/>
<path fill-rule="evenodd" clip-rule="evenodd" d="M1446.28 160.152C1445.91 160 1445.44 160 1444.5 160C1443.56 160 1443.09 160 1442.72 160.152C1442.23 160.354 1441.84 160.744 1441.63 161.235C1441.54 161.458 1441.5 161.719 1441.49 162.098C1441.48 162.373 1441.4 162.641 1441.26 162.878C1441.12 163.114 1440.93 163.312 1440.69 163.451C1440.45 163.585 1440.18 163.656 1439.9 163.658C1439.63 163.659 1439.35 163.591 1439.11 163.459C1438.77 163.281 1438.53 163.183 1438.29 163.151C1437.76 163.081 1437.22 163.224 1436.8 163.547C1436.48 163.789 1436.24 164.193 1435.77 165C1435.3 165.807 1435.07 166.21 1435.02 166.605C1434.95 167.131 1435.09 167.663 1435.42 168.084C1435.57 168.276 1435.77 168.437 1436.1 168.639C1436.57 168.936 1436.88 169.442 1436.88 170C1436.88 170.558 1436.57 171.064 1436.1 171.36C1435.77 171.563 1435.57 171.724 1435.42 171.916C1435.26 172.124 1435.14 172.362 1435.07 172.616C1435 172.869 1434.98 173.134 1435.02 173.395C1435.07 173.789 1435.3 174.193 1435.77 175C1436.24 175.807 1436.48 176.21 1436.8 176.453C1437.22 176.776 1437.76 176.918 1438.29 176.849C1438.53 176.817 1438.77 176.719 1439.11 176.541C1439.35 176.409 1439.63 176.341 1439.9 176.342C1440.18 176.344 1440.45 176.415 1440.69 176.549C1441.18 176.829 1441.47 177.344 1441.49 177.902C1441.5 178.282 1441.54 178.542 1441.63 178.765C1441.84 179.255 1442.23 179.645 1442.72 179.848C1443.09 180 1443.56 180 1444.5 180C1445.44 180 1445.91 180 1446.28 179.848C1446.77 179.646 1447.16 179.256 1447.37 178.765C1447.46 178.542 1447.5 178.282 1447.51 177.902C1447.53 177.344 1447.82 176.828 1448.31 176.549C1448.55 176.415 1448.82 176.344 1449.1 176.342C1449.37 176.341 1449.65 176.409 1449.89 176.541C1450.23 176.719 1450.47 176.817 1450.71 176.849C1451.24 176.919 1451.78 176.776 1452.2 176.453C1452.52 176.211 1452.76 175.807 1453.23 175C1453.7 174.193 1453.93 173.79 1453.98 173.395C1454.02 173.134 1454 172.869 1453.93 172.615C1453.86 172.362 1453.74 172.124 1453.58 171.916C1453.44 171.724 1453.23 171.563 1452.9 171.361C1452.43 171.064 1452.12 170.558 1452.12 170C1452.12 169.442 1452.43 168.936 1452.9 168.64C1453.23 168.437 1453.44 168.276 1453.58 168.084C1453.75 167.876 1453.86 167.638 1453.93 167.384C1454 167.131 1454.02 166.866 1453.98 166.605C1453.93 166.211 1453.7 165.807 1453.23 165C1452.76 164.193 1452.52 163.79 1452.2 163.547C1451.78 163.224 1451.24 163.081 1450.71 163.151C1450.47 163.183 1450.23 163.281 1449.89 163.459C1449.65 163.591 1449.37 163.659 1449.1 163.658C1448.82 163.656 1448.55 163.585 1448.31 163.451C1448.07 163.312 1447.88 163.114 1447.74 162.878C1447.6 162.641 1447.52 162.373 1447.51 162.098C1447.5 161.718 1447.46 161.458 1447.37 161.235C1447.27 160.992 1447.12 160.771 1446.93 160.585C1446.75 160.399 1446.52 160.252 1446.28 160.152ZM1444.5 173C1446.17 173 1447.52 171.657 1447.52 170C1447.52 168.343 1446.17 167 1444.5 167C1442.83 167 1441.48 168.343 1441.48 170C1441.48 171.657 1442.83 173 1444.5 173Z" fill="#FCFCFC"/>
<rect x="1408.5" y="75.5" width="74.0005" height="131" rx="4.5" stroke="#9747FF" stroke-dasharray="10 5"/>
<path d="M1665.07 101.482L1673.94 110.358C1674.21 110.621 1674.56 110.777 1674.93 110.796C1675.3 110.815 1675.66 110.695 1675.95 110.461L1676.06 110.358L1684.93 101.488C1684.96 101.598 1684.98 101.71 1684.99 101.825L1685 102V114C1685 114.505 1684.81 114.991 1684.47 115.361C1684.12 115.731 1683.65 115.957 1683.15 115.995L1683 116H1667C1666.5 116 1666.01 115.81 1665.64 115.467C1665.27 115.123 1665.04 114.653 1665.01 114.15L1665 114V102C1665 101.88 1665.01 101.764 1665.03 101.65L1665.07 101.482ZM1683 100C1683.12 100 1683.24 100.01 1683.35 100.031L1683.52 100.07L1675.01 108.59L1666.48 100.068C1666.59 100.038 1666.71 100.018 1666.82 100.008L1667 100H1683Z" fill="black"/>
<path d="M1665.07 147.482L1673.94 156.358C1674.21 156.621 1674.56 156.777 1674.93 156.796C1675.3 156.815 1675.66 156.695 1675.95 156.461L1676.06 156.358L1684.93 147.488C1684.96 147.598 1684.98 147.71 1684.99 147.825L1685 148V160C1685 160.505 1684.81 160.991 1684.47 161.361C1684.12 161.731 1683.65 161.957 1683.15 161.995L1683 162H1667C1666.5 162 1666.01 161.81 1665.64 161.467C1665.27 161.123 1665.04 160.653 1665.01 160.15L1665 160V148C1665 147.88 1665.01 147.764 1665.03 147.65L1665.07 147.482ZM1683 146C1683.12 146 1683.24 146.01 1683.35 146.031L1683.52 146.07L1675.01 154.59L1666.48 146.068C1666.59 146.038 1666.71 146.018 1666.82 146.008L1667 146H1683Z" fill="#FCFCFC"/>
<rect x="1639.5" y="68.5" width="75" height="123" rx="4.5" stroke="#9747FF" stroke-dasharray="10 5"/>
<path d="M1786 102L1780 97V100H1773V104H1780V107L1786 102ZM1770 95H1778V93H1770C1768.9 93 1768 93.9 1768 95V109C1768 110.1 1768.9 111 1770 111H1778V109H1770V95Z" fill="black"/>
<path d="M1786 153L1780 148V151H1773V155H1780V158L1786 153ZM1770 146H1778V144H1770C1768.9 144 1768 144.9 1768 146V160C1768 161.1 1768.9 162 1770 162H1778V160H1770V146Z" fill="#FCFCFC"/>
<rect x="1741.5" y="69.5" width="71" height="123" rx="4.5" stroke="#9747FF" stroke-dasharray="10 5"/>
<path d="M1659 300C1653.48 300 1649 304.48 1649 310C1649 315.52 1653.48 320 1659 320C1664.52 320 1669 315.52 1669 310C1669 304.48 1664.52 300 1659 300ZM1660 317H1658V315H1660V317ZM1662.07 309.25L1661.17 310.17C1660.45 310.9 1660 311.5 1660 313H1658V312.5C1658 311.4 1658.45 310.4 1659.17 309.67L1660.41 308.41C1660.78 308.05 1661 307.55 1661 307C1661 305.9 1660.1 305 1659 305C1657.9 305 1657 305.9 1657 307H1655C1655 304.79 1656.79 303 1659 303C1661.21 303 1663 304.79 1663 307C1663 307.88 1662.64 308.68 1662.07 309.25Z" fill="black"/>
<path d="M1657 355C1651.48 355 1647 359.48 1647 365C1647 370.52 1651.48 375 1657 375C1662.52 375 1667 370.52 1667 365C1667 359.48 1662.52 355 1657 355ZM1658 372H1656V370H1658V372ZM1660.07 364.25L1659.17 365.17C1658.45 365.9 1658 366.5 1658 368H1656V367.5C1656 366.4 1656.45 365.4 1657.17 364.67L1658.41 363.41C1658.78 363.05 1659 362.55 1659 362C1659 360.9 1658.1 360 1657 360C1655.9 360 1655 360.9 1655 362H1653C1653 359.79 1654.79 358 1657 358C1659.21 358 1661 359.79 1661 362C1661 362.88 1660.64 363.68 1660.07 364.25Z" fill="#FCFCFC"/>
<rect x="1621.5" y="274.5" width="75" height="131" rx="4.5" stroke="#9747FF" stroke-dasharray="10 5"/>
<path d="M1727 241C1721.48 241 1717 245.48 1717 251C1717 256.52 1721.48 261 1727 261C1732.52 261 1737 256.52 1737 251C1737 245.48 1732.52 241 1727 241ZM1725 255.5V246.5L1731 251L1725 255.5Z" fill="black"/>
<path d="M1861 103C1862.1 103 1863 102.105 1863 101C1863 99.8954 1862.1 99 1861 99C1859.9 99 1859 99.8954 1859 101C1859 102.105 1859.9 103 1861 103Z" fill="black"/>
<path d="M1867 103C1868.1 103 1869 102.105 1869 101C1869 99.8954 1868.1 99 1867 99C1865.9 99 1865 99.8954 1865 101C1865 102.105 1865.9 103 1867 103Z" fill="black"/>
<path d="M1873 103C1874.1 103 1875 102.105 1875 101C1875 99.8954 1874.1 99 1873 99C1871.9 99 1871 99.8954 1871 101C1871 102.105 1871.9 103 1873 103Z" fill="black"/>
<path d="M1861 130C1862.1 130 1863 129.105 1863 128C1863 126.895 1862.1 126 1861 126C1859.9 126 1859 126.895 1859 128C1859 129.105 1859.9 130 1861 130Z" fill="#FCFCFC"/>
<path d="M1867 130C1868.1 130 1869 129.105 1869 128C1869 126.895 1868.1 126 1867 126C1865.9 126 1865 126.895 1865 128C1865 129.105 1865.9 130 1867 130Z" fill="#FCFCFC"/>
<path d="M1873 130C1874.1 130 1875 129.105 1875 128C1875 126.895 1874.1 126 1873 126C1871.9 126 1871 126.895 1871 128C1871 129.105 1871.9 130 1873 130Z" fill="#FCFCFC"/>
<rect x="1839.5" y="73.5" width="55" height="75" rx="4.5" stroke="#9747FF" stroke-dasharray="10 5"/>
<g clip-path="url(#clip2_1_3)">
<path d="M2309.33 164.884V201.167C2309.33 204.1 2308.21 206.922 2306.2 209.057C2304.19 211.191 2301.44 212.475 2298.51 212.648L2297.83 212.667H2244.17C2241.23 212.667 2238.41 211.546 2236.28 209.534C2234.14 207.521 2232.86 204.77 2232.69 201.841L2232.67 201.167V164.884L2268.87 189.023L2269.32 189.276C2269.84 189.532 2270.42 189.665 2271 189.665C2271.58 189.665 2272.16 189.532 2272.68 189.276L2273.13 189.023L2309.33 164.884Z" fill="#2E2A2A"/>
<path d="M2297.83 151.333C2301.97 151.333 2305.6 153.518 2307.63 156.804L2271 181.222L2234.37 156.804C2235.33 155.242 2236.65 153.934 2238.22 152.987C2239.79 152.04 2241.57 151.482 2243.4 151.36L2244.17 151.333H2297.83Z" fill="#2E2A2A"/>
</g>
<circle cx="2427.5" cy="175.5" r="28.5" fill="#2E2A2A"/>
<path d="M2427.5 178.818L2437.2 188.519C2437.52 188.839 2437.94 189 2438.36 189C2438.78 189 2439.2 188.839 2439.52 188.524L2439.52 188.521C2440.16 187.881 2440.16 186.843 2439.52 186.203L2429.82 176.5L2439.52 166.799C2440.16 166.159 2440.16 165.121 2439.52 164.481C2438.88 163.841 2437.84 163.841 2437.2 164.481L2437.91 165.188L2437.2 164.481L2427.5 174.183L2417.8 164.48L2417.8 164.48C2417.16 163.84 2416.12 163.84 2415.48 164.48C2414.84 165.119 2414.84 166.158 2415.48 166.797C2415.48 166.797 2415.48 166.797 2415.48 166.797L2425.18 176.5L2415.48 186.202C2414.84 186.841 2414.84 187.878 2415.48 188.517C2415.8 188.84 2416.22 189 2416.64 189C2417.06 189 2417.48 188.839 2417.79 188.524L2417.8 188.521L2427.5 178.818Z" fill="white" stroke="#FCFCFC" stroke-width="2"/>
<rect x="43" y="43" width="35.5" height="26" rx="3" fill="#EAEAEA"/>
<rect x="43.5" y="43.5" width="34.5" height="25" rx="2.5" stroke="black" stroke-opacity="0.14902"/>
<path d="M47.8438 59V53H48.7656V59H47.8438ZM48.3125 52C48.1328 52 47.9779 51.9388 47.8477 51.8164C47.7201 51.694 47.6563 51.5469 47.6563 51.375C47.6563 51.2031 47.7201 51.056 47.8477 50.9336C47.9779 50.8112 48.1328 50.75 48.3125 50.75C48.4922 50.75 48.6458 50.8112 48.7734 50.9336C48.9036 51.056 48.9688 51.2031 48.9688 51.375C48.9688 51.5469 48.9036 51.694 48.7734 51.8164C48.6458 51.9388 48.4922 52 48.3125 52ZM52.8916 59.125C52.3291 59.125 51.8447 58.9922 51.4385 58.7266C51.0322 58.4609 50.7197 58.0951 50.501 57.6289C50.2822 57.1628 50.1729 56.6302 50.1729 56.0312C50.1729 55.4219 50.2848 54.8841 50.5088 54.418C50.7354 53.9492 51.0505 53.5833 51.4541 53.3203C51.8604 53.0547 52.3343 52.9219 52.876 52.9219C53.2979 52.9219 53.6781 53 54.0166 53.1562C54.3551 53.3125 54.6325 53.5312 54.8486 53.8125C55.0648 54.0937 55.1989 54.4219 55.251 54.7969H54.3291C54.2588 54.5234 54.1025 54.2812 53.8604 54.0703C53.6208 53.8568 53.2979 53.75 52.8916 53.75C52.5322 53.75 52.2171 53.8437 51.9463 54.0312C51.6781 54.2161 51.4684 54.4779 51.3174 54.8164C51.1689 55.1523 51.0947 55.5469 51.0947 56C51.0947 56.4635 51.1676 56.8672 51.3135 57.2109C51.4619 57.5547 51.6702 57.8216 51.9385 58.0117C52.2093 58.2018 52.527 58.2969 52.8916 58.2969C53.1312 58.2969 53.3486 58.2552 53.5439 58.1719C53.7393 58.0885 53.9046 57.9688 54.04 57.8125C54.1755 57.6562 54.2718 57.4687 54.3291 57.25H55.251C55.1989 57.6042 55.07 57.9232 54.8643 58.207C54.6611 58.4883 54.3916 58.7122 54.0557 58.8789C53.7223 59.043 53.3343 59.125 52.8916 59.125ZM59.0361 59.125C58.4945 59.125 58.0192 58.9961 57.6104 58.7383C57.2041 58.4805 56.8864 58.1198 56.6572 57.6562C56.4307 57.1927 56.3174 56.651 56.3174 56.0312C56.3174 55.4062 56.4307 54.8607 56.6572 54.3945C56.8864 53.9284 57.2041 53.5664 57.6104 53.3086C58.0192 53.0508 58.4945 52.9219 59.0361 52.9219C59.5778 52.9219 60.0518 53.0508 60.458 53.3086C60.8669 53.5664 61.1846 53.9284 61.4111 54.3945C61.6403 54.8607 61.7549 55.4062 61.7549 56.0312C61.7549 56.651 61.6403 57.1927 61.4111 57.6562C61.1846 58.1198 60.8669 58.4805 60.458 58.7383C60.0518 58.9961 59.5778 59.125 59.0361 59.125ZM59.0361 58.2969C59.4476 58.2969 59.7861 58.1914 60.0518 57.9805C60.3174 57.7695 60.514 57.4922 60.6416 57.1484C60.7692 56.8047 60.833 56.4323 60.833 56.0312C60.833 55.6302 60.7692 55.2565 60.6416 54.9102C60.514 54.5638 60.3174 54.2839 60.0518 54.0703C59.7861 53.8568 59.4476 53.75 59.0361 53.75C58.6247 53.75 58.2861 53.8568 58.0205 54.0703C57.7549 54.2839 57.5583 54.5638 57.4307 54.9102C57.3031 55.2565 57.2393 55.6302 57.2393 56.0312C57.2393 56.4323 57.3031 56.8047 57.4307 57.1484C57.5583 57.4922 57.7549 57.7695 58.0205 57.9805C58.2861 58.1914 58.6247 58.2969 59.0361 58.2969ZM64.084 55.3906V59H63.1621V53H64.0527V53.9375H64.1309C64.2715 53.6328 64.485 53.388 64.7715 53.2031C65.0579 53.0156 65.4277 52.9219 65.8809 52.9219C66.2871 52.9219 66.6426 53.0052 66.9473 53.1719C67.252 53.3359 67.4889 53.5859 67.6582 53.9219C67.8275 54.2552 67.9121 54.6771 67.9121 55.1875V59H66.9902V55.25C66.9902 54.7786 66.8678 54.4115 66.623 54.1484C66.3783 53.8828 66.0423 53.75 65.6152 53.75C65.321 53.75 65.0579 53.8138 64.8262 53.9414C64.597 54.069 64.416 54.2552 64.2832 54.5C64.1504 54.7448 64.084 55.0417 64.084 55.3906ZM73.8467 54.3437L73.0186 54.5781C72.9665 54.4401 72.8896 54.306 72.7881 54.1758C72.6891 54.043 72.5537 53.9336 72.3818 53.8477C72.21 53.7617 71.9899 53.7187 71.7217 53.7187C71.3545 53.7187 71.0485 53.8034 70.8037 53.9727C70.5615 54.1393 70.4404 54.3516 70.4404 54.6094C70.4404 54.8385 70.5238 55.0195 70.6904 55.1523C70.8571 55.2852 71.1175 55.3958 71.4717 55.4844L72.3623 55.7031C72.8988 55.8333 73.2985 56.0326 73.5615 56.3008C73.8245 56.5664 73.9561 56.9089 73.9561 57.3281C73.9561 57.6719 73.8571 57.9792 73.6592 58.25C73.4639 58.5208 73.1904 58.7344 72.8389 58.8906C72.4873 59.0469 72.0785 59.125 71.6123 59.125C71.0003 59.125 70.4938 58.9922 70.0928 58.7266C69.6917 58.4609 69.4378 58.0729 69.3311 57.5625L70.2061 57.3437C70.2894 57.6667 70.4469 57.9089 70.6787 58.0703C70.9131 58.2318 71.2191 58.3125 71.5967 58.3125C72.0264 58.3125 72.3675 58.2214 72.6201 58.0391C72.8753 57.8542 73.0029 57.6328 73.0029 57.375C73.0029 57.1667 72.93 56.9922 72.7842 56.8516C72.6383 56.7083 72.4144 56.6016 72.1123 56.5312L71.1123 56.2969C70.5628 56.1667 70.1592 55.9648 69.9014 55.6914C69.6462 55.4154 69.5186 55.0703 69.5186 54.6562C69.5186 54.3177 69.6136 54.0182 69.8037 53.7578C69.9964 53.4974 70.2581 53.293 70.5889 53.1445C70.9222 52.9961 71.2998 52.9219 71.7217 52.9219C72.3154 52.9219 72.7816 53.0521 73.1201 53.3125C73.4613 53.5729 73.7035 53.9167 73.8467 54.3437Z" fill="black"/>
<defs>
<filter id="filter0_d_1_3" x="639" y="381.5" width="20" height="23" filterUnits="userSpaceOnUse" color-interpolation-filters="sRGB">
<feFlood flood-opacity="0" result="BackgroundImageFix"/>
<feColorMatrix in="SourceAlpha" type="matrix" values="0 0 0 0 0 0 0 0 0 0 0 0 0 0 0 0 0 0 127 0" result="hardAlpha"/>
<feOffset dx="-2" dy="2"/>
<feComposite in2="hardAlpha" operator="out"/>
<feColorMatrix type="matrix" values="0 0 0 0 1 0 0 0 0 1 0 0 0 0 1 0 0 0 1 0"/>
<feBlend mode="normal" in2="BackgroundImageFix" result="effect1_dropShadow_1_3"/>
<feBlend mode="normal" in="SourceGraphic" in2="effect1_dropShadow_1_3" result="shape"/>
</filter>
<filter id="filter1_d_1_3" x="988" y="249" width="50" height="49" filterUnits="userSpaceOnUse" color-interpolation-filters="sRGB">
<feFlood flood-opacity="0" result="BackgroundImageFix"/>
<feColorMatrix in="SourceAlpha" type="matrix" values="0 0 0 0 0 0 0 0 0 0 0 0 0 0 0 0 0 0 127 0" result="hardAlpha"/>
<feOffset dy="2"/>
<feGaussianBlur stdDeviation="2"/>
<feComposite in2="hardAlpha" operator="out"/>
<feColorMatrix type="matrix" values="0 0 0 0 0 0 0 0 0 0 0 0 0 0 0 0 0 0 0.25 0"/>
<feBlend mode="normal" in2="BackgroundImageFix" result="effect1_dropShadow_1_3"/>
<feBlend mode="normal" in="SourceGraphic" in2="effect1_dropShadow_1_3" result="shape"/>
</filter>
<filter id="filter2_d_1_3" x="988" y="300" width="50" height="49" filterUnits="userSpaceOnUse" color-interpolation-filters="sRGB">
<feFlood flood-opacity="0" result="BackgroundImageFix"/>
<feColorMatrix in="SourceAlpha" type="matrix" values="0 0 0 0 0 0 0 0 0 0 0 0 0 0 0 0 0 0 127 0" result="hardAlpha"/>
<feOffset dy="2"/>
<feGaussianBlur stdDeviation="2"/>
<feComposite in2="hardAlpha" operator="out"/>
<feColorMatrix type="matrix" values="0 0 0 0 0 0 0 0 0 0 0 0 0 0 0 0 0 0 0.25 0"/>
<feBlend mode="normal" in2="BackgroundImageFix" result="effect1_dropShadow_1_3"/>
<feBlend mode="normal" in="SourceGraphic" in2="effect1_dropShadow_1_3" result="shape"/>
</filter>
<filter id="filter3_d_1_3" x="988" y="354" width="50" height="49" filterUnits="userSpaceOnUse" color-interpolation-filters="sRGB">
<feFlood flood-opacity="0" result="BackgroundImageFix"/>
<feColorMatrix in="SourceAlpha" type="matrix" values="0 0 0 0 0 0 0 0 0 0 0 0 0 0 0 0 0 0 127 0" result="hardAlpha"/>
<feOffset dy="2"/>
<feGaussianBlur stdDeviation="2"/>
<feComposite in2="hardAlpha" operator="out"/>
<feColorMatrix type="matrix" values="0 0 0 0 0 0 0 0 0 0 0 0 0 0 0 0 0 0 0.25 0"/>
<feBlend mode="normal" in2="BackgroundImageFix" result="effect1_dropShadow_1_3"/>
<feBlend mode="normal" in="SourceGraphic" in2="effect1_dropShadow_1_3" result="shape"/>
</filter>
<filter id="filter4_d_1_3" x="1110" y="288.75" width="20.75" height="20.75" filterUnits="userSpaceOnUse" color-interpolation-filters="sRGB">
<feFlood flood-opacity="0" result="BackgroundImageFix"/>
<feColorMatrix in="SourceAlpha" type="matrix" values="0 0 0 0 0 0 0 0 0 0 0 0 0 0 0 0 0 0 127 0" result="hardAlpha"/>
<feOffset dx="-2" dy="2"/>
<feComposite in2="hardAlpha" operator="out"/>
<feColorMatrix type="matrix" values="0 0 0 0 1 0 0 0 0 1 0 0 0 0 1 0 0 0 1 0"/>
<feBlend mode="normal" in2="BackgroundImageFix" result="effect1_dropShadow_1_3"/>
<feBlend mode="normal" in="SourceGraphic" in2="effect1_dropShadow_1_3" result="shape"/>
</filter>
<filter id="filter5_d_1_3" x="1321" y="315" width="22" height="26" filterUnits="userSpaceOnUse" color-interpolation-filters="sRGB">
<feFlood flood-opacity="0" result="BackgroundImageFix"/>
<feColorMatrix in="SourceAlpha" type="matrix" values="0 0 0 0 0 0 0 0 0 0 0 0 0 0 0 0 0 0 127 0" result="hardAlpha"/>
<feOffset dx="-2" dy="2"/>
<feComposite in2="hardAlpha" operator="out"/>
<feColorMatrix type="matrix" values="0 0 0 0 1 0 0 0 0 1 0 0 0 0 1 0 0 0 1 0"/>
<feBlend mode="normal" in2="BackgroundImageFix" result="effect1_dropShadow_1_3"/>
<feBlend mode="normal" in="SourceGraphic" in2="effect1_dropShadow_1_3" result="shape"/>
</filter>
<radialGradient id="paint0_radial_1_3" cx="0" cy="0" r="1" gradientUnits="userSpaceOnUse" gradientTransform="translate(896.375 573.848) rotate(-90) scale(23.7858 22.1227)">
<stop stop-color="#FFDD55"/>
<stop offset="0.1" stop-color="#FFDD55"/>
<stop offset="0.5" stop-color="#FF543E"/>
<stop offset="1" stop-color="#C837AB"/>
</radialGradient>
<radialGradient id="paint1_radial_1_3" cx="0" cy="0" r="1" gradientUnits="userSpaceOnUse" gradientTransform="translate(885.98 549.729) rotate(78.681) scale(10.6324 43.827)">
<stop stop-color="#3771C8"/>
<stop offset="0.128" stop-color="#3771C8"/>
<stop offset="1" stop-color="#6600FF" stop-opacity="0"/>
</radialGradient>
<clipPath id="clip0_1_3">
<rect x="579.5" y="556.5" width="23" height="23" rx="11.5" fill="white"/>
</clipPath>
<clipPath id="clip1_1_3">
<rect x="579.5" y="616.5" width="23" height="23" rx="11.5" fill="white"/>
</clipPath>
<clipPath id="clip2_1_3">
<rect width="92" height="92" fill="white" transform="translate(2225 147)"/>
</clipPath>
</defs>
</svg>
