<svg width="25" height="25" viewBox="0 0 25 25" fill="none" xmlns="http://www.w3.org/2000/svg">
<path d="M12.8008 0.25C7.97023 0.25 4.05078 3.77789 4.05078 8.125C4.05078 15.125 12.8008 24.75 12.8008 24.75C12.8008 24.75 21.5508 15.125 21.5508 8.125C21.5508 3.77789 17.6313 0.25 12.8008 0.25ZM12.8008 12.5C12.1085 12.5 11.4319 12.2947 10.8563 11.9101C10.2807 11.5256 9.83211 10.9789 9.5672 10.3394C9.3023 9.69985 9.23298 8.99612 9.36803 8.31718C9.50308 7.63825 9.83642 7.01461 10.3259 6.52513C10.8154 6.03564 11.439 5.7023 12.118 5.56725C12.7969 5.4322 13.5006 5.50151 14.1402 5.76642C14.7797 6.03133 15.3263 6.47993 15.7109 7.0555C16.0955 7.63108 16.3008 8.30777 16.3008 9C16.2998 9.92795 15.9307 10.8176 15.2745 11.4738C14.6184 12.1299 13.7287 12.499 12.8008 12.5Z" fill="#2E2A2A"/>
</svg>
