<svg width="19" height="26" viewBox="0 0 19 26" fill="none" xmlns="http://www.w3.org/2000/svg">
<path d="M9.5 0.75C4.66945 0.75 0.75 4.27789 0.75 8.625C0.75 15.625 9.5 25.25 9.5 25.25C9.5 25.25 18.25 15.625 18.25 8.625C18.25 4.27789 14.3305 0.75 9.5 0.75ZM9.5 13C8.80777 13 8.13108 12.7947 7.5555 12.4101C6.97993 12.0256 6.53133 11.4789 6.26642 10.8394C6.00151 10.1999 5.9322 9.49612 6.06725 8.81718C6.2023 8.13825 6.53564 7.51461 7.02513 7.02513C7.51461 6.53564 8.13825 6.2023 8.81718 6.06725C9.49612 5.9322 10.1999 6.00151 10.8394 6.26642C11.4789 6.53133 12.0256 6.97993 12.4101 7.5555C12.7947 8.13108 13 8.80777 13 9.5C12.999 10.4279 12.6299 11.3176 11.9738 11.9738C11.3176 12.6299 10.4279 12.999 9.5 13Z" fill="#969696"/>
</svg>
