<svg width="40" height="38" viewBox="0 0 40 38" fill="none" xmlns="http://www.w3.org/2000/svg">
<path d="M40 0V26.3889C40 28.3485 39.2237 30.2279 37.8418 31.6136C36.46 32.9993 34.5858 33.7778 32.6316 33.7778C30.6774 33.7778 28.8032 32.9993 27.4213 31.6136C26.0395 30.2279 25.2632 28.3485 25.2632 26.3889C25.2632 24.4292 26.0395 22.5498 27.4213 21.1642C28.8032 19.7785 30.6774 19 32.6316 19C33.7684 19 34.8421 19.2533 35.7895 19.7178V7.32556L14.7368 11.8222V30.6111C14.7368 32.5708 13.9605 34.4502 12.5787 35.8358C11.1968 37.2215 9.32265 38 7.36842 38C5.41419 38 3.54001 37.2215 2.15816 35.8358C0.776314 34.4502 0 32.5708 0 30.6111C0 28.6515 0.776314 26.7721 2.15816 25.3864C3.54001 24.0007 5.41419 23.2222 7.36842 23.2222C8.50526 23.2222 9.57895 23.4756 10.5263 23.94V6.33333L40 0Z" fill="#FCFCFC"/>
</svg>
