<svg width="89" height="46" viewBox="0 0 89 46" fill="none" xmlns="http://www.w3.org/2000/svg">
<path d="M31.7726 38.0782C31.7228 37.9054 31.653 37.7527 31.563 37.6201C31.4731 37.4852 31.363 37.3715 31.2328 37.2792C31.1049 37.1845 30.9582 37.1123 30.7924 37.0626C30.6291 37.0129 30.448 36.988 30.2491 36.988C29.8774 36.988 29.5507 37.0803 29.269 37.265C28.9896 37.4497 28.7718 37.7184 28.6156 38.0711C28.4593 38.4215 28.3812 38.85 28.3812 39.3566C28.3812 39.8633 28.4582 40.2941 28.612 40.6492C28.7659 41.0044 28.9837 41.2754 29.2654 41.4624C29.5472 41.6471 29.8798 41.7394 30.2633 41.7394C30.6113 41.7394 30.9084 41.6779 31.1547 41.5548C31.4032 41.4293 31.5926 41.2529 31.7228 41.0257C31.8554 40.7984 31.9217 40.5297 31.9217 40.2195L32.2342 40.2657H30.3592V39.108H33.4025V40.0242C33.4025 40.6634 33.2676 41.2127 32.9977 41.672C32.7278 42.1289 32.3561 42.4816 31.8826 42.7302C31.4092 42.9764 30.867 43.0995 30.2562 43.0995C29.5744 43.0995 28.9754 42.9492 28.4593 42.6485C27.9432 42.3455 27.5408 41.9158 27.252 41.3595C26.9655 40.8008 26.8223 40.1379 26.8223 39.3708C26.8223 38.7813 26.9075 38.2558 27.0779 37.7941C27.2508 37.3301 27.4922 36.9371 27.8024 36.6151C28.1125 36.2932 28.4735 36.0481 28.8855 35.8801C29.2974 35.712 29.7437 35.6279 30.2243 35.6279C30.6362 35.6279 31.0197 35.6883 31.3748 35.809C31.7299 35.9274 32.0448 36.0955 32.3194 36.3133C32.5964 36.5311 32.8225 36.7903 32.9977 37.091C33.1729 37.3893 33.2853 37.7184 33.3351 38.0782H31.7726Z" fill="#2E2A2A"/>
<path d="M37.0149 43.1066C36.4538 43.1066 35.9709 42.993 35.5661 42.7657C35.1636 42.5361 34.8535 42.2117 34.6357 41.7927C34.4179 41.3713 34.3089 40.873 34.3089 40.2977C34.3089 39.7366 34.4179 39.2442 34.6357 38.8204C34.8535 38.3966 35.16 38.0664 35.5554 37.8296C35.9531 37.5929 36.4195 37.4745 36.9545 37.4745C37.3144 37.4745 37.6494 37.5325 37.9595 37.6485C38.272 37.7622 38.5443 37.9338 38.7763 38.1634C39.0107 38.3931 39.1929 38.6819 39.3232 39.0299C39.4534 39.3756 39.5185 39.7804 39.5185 40.2444V40.6599H34.9126V39.7224H38.0945C38.0945 39.5046 38.0471 39.3116 37.9524 39.1436C37.8577 38.9755 37.7263 38.8441 37.5582 38.7494C37.3925 38.6523 37.1996 38.6038 36.9794 38.6038C36.7498 38.6038 36.5462 38.657 36.3686 38.7636C36.1934 38.8677 36.0561 39.0086 35.9567 39.1862C35.8572 39.3614 35.8063 39.5567 35.804 39.7721V40.6634C35.804 40.9333 35.8537 41.1665 35.9531 41.363C36.0549 41.5595 36.1982 41.711 36.3828 41.8176C36.5675 41.9241 36.7865 41.9774 37.0398 41.9774C37.2079 41.9774 37.3617 41.9537 37.5014 41.9063C37.6411 41.859 37.7607 41.788 37.8601 41.6933C37.9595 41.5986 38.0353 41.4826 38.0874 41.3453L39.4865 41.4376C39.4155 41.7738 39.2699 42.0673 39.0497 42.3183C38.8319 42.5669 38.5502 42.761 38.2045 42.9007C37.8613 43.038 37.4647 43.1066 37.0149 43.1066Z" fill="#2E2A2A"/>
<path d="M43.407 37.5455V38.6819H40.1222V37.5455H43.407ZM40.8679 36.2387H42.3807V41.324C42.3807 41.4636 42.402 41.5725 42.4446 41.6507C42.4872 41.7264 42.5464 41.7797 42.6222 41.8105C42.7003 41.8412 42.7902 41.8566 42.892 41.8566C42.9631 41.8566 43.0341 41.8507 43.1051 41.8389C43.1761 41.8247 43.2306 41.814 43.2685 41.8069L43.5064 42.9326C43.4306 42.9563 43.3241 42.9835 43.1868 43.0143C43.0495 43.0474 42.8826 43.0676 42.6861 43.0747C42.3215 43.0889 42.0019 43.0403 41.7273 42.9291C41.455 42.8178 41.2431 42.645 41.0916 42.4106C40.9401 42.1762 40.8655 41.8803 40.8679 41.5228V36.2387Z" fill="#2E2A2A"/>
<path d="M49.6081 37.5455V38.6819H46.3233V37.5455H49.6081ZM47.0691 36.2387H48.5819V41.324C48.5819 41.4636 48.6032 41.5725 48.6458 41.6507C48.6884 41.7264 48.7476 41.7797 48.8233 41.8105C48.9015 41.8412 48.9914 41.8566 49.0932 41.8566C49.1642 41.8566 49.2353 41.8507 49.3063 41.8389C49.3773 41.8247 49.4318 41.814 49.4696 41.8069L49.7076 42.9326C49.6318 42.9563 49.5253 42.9835 49.388 43.0143C49.2507 43.0474 49.0837 43.0676 48.8873 43.0747C48.5227 43.0889 48.2031 43.0403 47.9284 42.9291C47.6562 42.8178 47.4443 42.645 47.2928 42.4106C47.1413 42.1762 47.0667 41.8803 47.0691 41.5228V36.2387Z" fill="#2E2A2A"/>
<path d="M52.9995 43.1066C52.4479 43.1066 51.9708 42.9894 51.5684 42.7551C51.1683 42.5183 50.8593 42.1892 50.6415 41.7678C50.4237 41.3441 50.3148 40.8528 50.3148 40.2941C50.3148 39.7307 50.4237 39.2383 50.6415 38.8169C50.8593 38.3931 51.1683 38.064 51.5684 37.8296C51.9708 37.5929 52.4479 37.4745 52.9995 37.4745C53.5511 37.4745 54.0269 37.5929 54.427 37.8296C54.8295 38.064 55.1396 38.3931 55.3574 38.8169C55.5752 39.2383 55.6841 39.7307 55.6841 40.2941C55.6841 40.8528 55.5752 41.3441 55.3574 41.7678C55.1396 42.1892 54.8295 42.5183 54.427 42.7551C54.0269 42.9894 53.5511 43.1066 52.9995 43.1066ZM53.0066 41.9347C53.2575 41.9347 53.467 41.8637 53.6351 41.7217C53.8032 41.5773 53.9299 41.3808 54.0151 41.1322C54.1027 40.8836 54.1465 40.6007 54.1465 40.2835C54.1465 39.9662 54.1027 39.6833 54.0151 39.4347C53.9299 39.1862 53.8032 38.9897 53.6351 38.8453C53.467 38.7008 53.2575 38.6286 53.0066 38.6286C52.7533 38.6286 52.5402 38.7008 52.3674 38.8453C52.1969 38.9897 52.0679 39.1862 51.9803 39.4347C51.8951 39.6833 51.8524 39.9662 51.8524 40.2835C51.8524 40.6007 51.8951 40.8836 51.9803 41.1322C52.0679 41.3808 52.1969 41.5773 52.3674 41.7217C52.5402 41.8637 52.7533 41.9347 53.0066 41.9347Z" fill="#2E2A2A"/>
<path d="M59.1252 45.1592C58.6351 45.1592 58.2149 45.0917 57.8645 44.9568C57.5165 44.8242 57.2395 44.6431 57.0336 44.4134C56.8276 44.1838 56.6938 43.9258 56.6323 43.6393L58.0314 43.4511C58.074 43.56 58.1415 43.6618 58.2338 43.7565C58.3262 43.8512 58.4481 43.9269 58.5996 43.9838C58.7535 44.0429 58.9405 44.0725 59.1607 44.0725C59.4898 44.0725 59.7608 43.992 59.9739 43.8311C60.1893 43.6724 60.2971 43.4061 60.2971 43.032V42.0342H60.2331C60.1668 42.1857 60.0674 42.3289 59.9348 42.4639C59.8023 42.5988 59.6318 42.7089 59.4235 42.7941C59.2151 42.8794 58.9666 42.922 58.6777 42.922C58.2682 42.922 57.8953 42.8273 57.5591 42.6379C57.2253 42.4461 56.959 42.1537 56.7601 41.7607C56.5636 41.3654 56.4654 40.8659 56.4654 40.2622C56.4654 39.6443 56.566 39.1282 56.7672 38.7139C56.9685 38.2996 57.236 37.9894 57.5698 37.7835C57.906 37.5775 58.2741 37.4745 58.6742 37.4745C58.9796 37.4745 59.2353 37.5266 59.4412 37.6308C59.6472 37.7326 59.8129 37.8604 59.9384 38.0143C60.0662 38.1658 60.1645 38.315 60.2331 38.4617H60.29V37.5455H61.7921V43.0534C61.7921 43.5174 61.6784 43.9056 61.4512 44.2181C61.2239 44.5306 60.909 44.765 60.5066 44.9213C60.1065 45.0799 59.646 45.1592 59.1252 45.1592ZM59.1571 41.7856C59.401 41.7856 59.6069 41.7252 59.775 41.6045C59.9455 41.4814 60.0757 41.3062 60.1657 41.0789C60.258 40.8493 60.3042 40.5747 60.3042 40.2551C60.3042 39.9355 60.2592 39.6585 60.1692 39.4241C60.0793 39.1874 59.949 39.0039 59.7786 38.8737C59.6081 38.7435 59.401 38.6784 59.1571 38.6784C58.9086 38.6784 58.699 38.7458 58.5286 38.8808C58.3581 39.0133 58.2291 39.198 58.1415 39.4347C58.0539 39.6715 58.0101 39.9449 58.0101 40.2551C58.0101 40.5699 58.0539 40.8422 58.1415 41.0718C58.2315 41.2991 58.3605 41.4755 58.5286 41.6009C58.699 41.724 58.9086 41.7856 59.1571 41.7856Z" fill="#2E2A2A"/>
<path d="M65.4817 43.1066C64.9206 43.1066 64.4377 42.993 64.0328 42.7657C63.6304 42.5361 63.3203 42.2117 63.1025 41.7927C62.8846 41.3713 62.7757 40.873 62.7757 40.2977C62.7757 39.7366 62.8846 39.2442 63.1025 38.8204C63.3203 38.3966 63.6268 38.0664 64.0222 37.8296C64.4199 37.5929 64.8863 37.4745 65.4213 37.4745C65.7812 37.4745 66.1162 37.5325 66.4263 37.6485C66.7388 37.7622 67.0111 37.9338 67.2431 38.1634C67.4775 38.3931 67.6597 38.6819 67.79 39.0299C67.9202 39.3756 67.9853 39.7804 67.9853 40.2444V40.6599H63.3794V39.7224H66.5613C66.5613 39.5046 66.5139 39.3116 66.4192 39.1436C66.3245 38.9755 66.1931 38.8441 66.025 38.7494C65.8593 38.6523 65.6664 38.6038 65.4462 38.6038C65.2166 38.6038 65.013 38.657 64.8354 38.7636C64.6602 38.8677 64.5229 39.0086 64.4235 39.1862C64.324 39.3614 64.2731 39.5567 64.2708 39.7721V40.6634C64.2708 40.9333 64.3205 41.1665 64.4199 41.363C64.5217 41.5595 64.665 41.711 64.8496 41.8176C65.0343 41.9241 65.2533 41.9774 65.5066 41.9774C65.6747 41.9774 65.8285 41.9537 65.9682 41.9063C66.1079 41.859 66.2275 41.788 66.3269 41.6933C66.4263 41.5986 66.5021 41.4826 66.5542 41.3453L67.9533 41.4376C67.8823 41.7738 67.7367 42.0673 67.5165 42.3183C67.2987 42.5669 67.017 42.761 66.6713 42.9007C66.3281 43.038 65.9315 43.1066 65.4817 43.1066Z" fill="#2E2A2A"/>
<path d="M71.8738 37.5455V38.6819H68.589V37.5455H71.8738ZM69.3347 36.2387H70.8475V41.324C70.8475 41.4636 70.8688 41.5725 70.9114 41.6507C70.954 41.7264 71.0132 41.7797 71.089 41.8105C71.1671 41.8412 71.257 41.8566 71.3588 41.8566C71.4299 41.8566 71.5009 41.8507 71.5719 41.8389C71.6429 41.8247 71.6974 41.814 71.7353 41.8069L71.9732 42.9326C71.8974 42.9563 71.7909 42.9835 71.6536 43.0143C71.5163 43.0474 71.3494 43.0676 71.1529 43.0747C70.7883 43.0889 70.4687 43.0403 70.1941 42.9291C69.9218 42.8178 69.7099 42.645 69.5584 42.4106C69.4069 42.1762 69.3323 41.8803 69.3347 41.5228V36.2387Z" fill="#2E2A2A"/>
<path d="M74.4892 39.8467V43.0001H72.9764V35.7274H74.4466V38.5079H74.5105C74.6336 38.1859 74.8324 37.9338 75.1071 37.7515C75.3817 37.5669 75.7262 37.4745 76.1404 37.4745C76.5192 37.4745 76.8495 37.5574 77.1312 37.7231C77.4153 37.8865 77.6355 38.122 77.7917 38.4298C77.9503 38.7352 78.0285 39.1009 78.0261 39.5271V43.0001H76.5133V39.797C76.5157 39.4608 76.4305 39.1992 76.2576 39.0122C76.0872 38.8251 75.8481 38.7316 75.5403 38.7316C75.3343 38.7316 75.1521 38.7754 74.9934 38.863C74.8372 38.9506 74.7141 39.0785 74.6241 39.2465C74.5365 39.4123 74.4915 39.6123 74.4892 39.8467Z" fill="#2E2A2A"/>
<path d="M81.7024 43.1066C81.1413 43.1066 80.6584 42.993 80.2536 42.7657C79.8511 42.5361 79.541 42.2117 79.3232 41.7927C79.1054 41.3713 78.9964 40.873 78.9964 40.2977C78.9964 39.7366 79.1054 39.2442 79.3232 38.8204C79.541 38.3966 79.8475 38.0664 80.2429 37.8296C80.6406 37.5929 81.107 37.4745 81.642 37.4745C82.0019 37.4745 82.3369 37.5325 82.647 37.6485C82.9595 37.7622 83.2318 37.9338 83.4638 38.1634C83.6982 38.3931 83.8804 38.6819 84.0107 39.0299C84.1409 39.3756 84.206 39.7804 84.206 40.2444V40.6599H79.6001V39.7224H82.782C82.782 39.5046 82.7346 39.3116 82.6399 39.1436C82.5452 38.9755 82.4138 38.8441 82.2457 38.7494C82.08 38.6523 81.8871 38.6038 81.6669 38.6038C81.4373 38.6038 81.2337 38.657 81.0561 38.7636C80.8809 38.8677 80.7436 39.0086 80.6442 39.1862C80.5447 39.3614 80.4938 39.5567 80.4915 39.7721V40.6634C80.4915 40.9333 80.5412 41.1665 80.6406 41.363C80.7424 41.5595 80.8857 41.711 81.0703 41.8176C81.255 41.9241 81.474 41.9774 81.7273 41.9774C81.8954 41.9774 82.0492 41.9537 82.1889 41.9063C82.3286 41.859 82.4482 41.788 82.5476 41.6933C82.647 41.5986 82.7228 41.4826 82.7749 41.3453L84.174 41.4376C84.103 41.7738 83.9574 42.0673 83.7372 42.3183C83.5194 42.5669 83.2377 42.761 82.892 42.9007C82.5488 43.038 82.1522 43.1066 81.7024 43.1066Z" fill="#2E2A2A"/>
<path d="M85.1932 43.0001V37.5455H86.6598V38.4972H86.7166C86.816 38.1587 86.983 37.903 87.2173 37.7302C87.4517 37.555 87.7216 37.4674 88.027 37.4674C88.1027 37.4674 88.1844 37.4722 88.272 37.4816C88.3596 37.4911 88.4366 37.5041 88.5028 37.5207V38.863C88.4318 38.8417 88.3336 38.8228 88.2081 38.8062C88.0826 38.7896 87.9678 38.7813 87.8636 38.7813C87.6411 38.7813 87.4422 38.8299 87.267 38.9269C87.0942 39.0216 86.9569 39.1542 86.8551 39.3247C86.7557 39.4951 86.706 39.6916 86.706 39.9142V43.0001H85.1932Z" fill="#2E2A2A"/>
<path d="M2.37185 0H12.5771C13.2688 0.0619293 13.9664 0.351891 14.4082 0.907823C14.8187 1.40057 14.9828 2.05602 14.9815 2.69071C14.9815 3.67388 14.9815 4.65687 14.9815 5.63879C14.9815 6.22622 14.6556 6.76264 14.2295 7.14496C13.6031 7.71306 12.8089 8.03828 12.0242 8.31857C11.5801 8.48485 11.0972 8.69838 10.8751 9.14746C10.5769 9.7544 10.5878 10.4449 10.5673 11.1015C10.5673 17.7009 10.5673 24.3001 10.5673 30.8995C10.5395 31.7273 10.2366 32.5671 9.64759 33.1583C8.77486 34.0321 7.36759 34.1984 6.24975 33.7554C5.44946 33.4166 4.84373 32.733 4.60094 31.8948C4.41991 31.3414 4.4103 30.754 4.42721 30.1775C4.42721 24.2068 4.42721 18.2375 4.42721 12.2692C4.41635 11.4596 4.46708 10.6465 4.34159 9.84175C4.27271 9.38659 4.07975 8.91334 3.67409 8.66437C3.09826 8.30032 2.41759 8.1582 1.82379 7.83048C0.963157 7.40198 0.123176 6.68353 0 5.66885V2.54716C0.0494839 1.90997 0.241368 1.25577 0.691707 0.789691C1.12247 0.314482 1.74778 0.0764272 2.37185 0ZM2.07726 1.29748C1.55341 1.4455 1.23229 1.98317 1.22268 2.51118C1.20826 3.49542 1.22268 4.4811 1.21663 5.46535C1.20096 5.87201 1.50997 6.19364 1.81168 6.41577C2.72536 7.11847 3.99645 7.19489 4.80991 8.05063C5.51728 8.81884 5.58368 9.92945 5.62337 10.9223C5.62978 17.2804 5.62978 23.6387 5.62337 29.9969C5.62337 30.5358 5.57745 31.0892 5.77431 31.6099C5.93309 32.1257 6.33519 32.5292 6.84854 32.6877C7.48347 32.871 8.24139 32.8018 8.74833 32.3443C9.21665 31.9135 9.37365 31.2423 9.37115 30.6244C9.36635 24.3269 9.36635 18.028 9.37115 11.7281C9.37115 10.8919 9.36279 10.0435 9.57265 9.22908C9.69689 8.67243 10.0039 8.17395 10.4441 7.81383C11.2891 7.13905 12.4381 7.04312 13.2806 6.36458C13.5219 6.16197 13.8019 5.90458 13.7779 5.55753C13.7779 4.5672 13.7779 3.57669 13.7779 2.58635C13.7907 2.21102 13.6529 1.84625 13.3952 1.57419C13.1148 1.32647 12.7507 1.19617 12.3777 1.21013C9.23463 1.21013 6.09116 1.21013 2.94732 1.21013C2.65629 1.18829 2.36384 1.21585 2.08189 1.29139M56.1228 1.71147C56.9875 1.13549 58.0067 0.839088 59.0438 0.86182C60.4742 0.86182 61.8393 1.5366 62.8507 2.52711C64.0867 3.72149 64.887 5.29549 65.4422 6.90852C65.9032 8.29548 66.2286 9.72433 66.4139 11.1747C66.6686 10.6321 67.0005 10.1077 67.511 9.77409C68.304 9.23892 69.3421 9.14298 70.2497 9.41003C70.9886 9.63036 71.6038 10.1483 71.9493 10.841C72.2873 11.5026 72.3754 12.2598 72.3404 12.9942C72.3487 16.923 72.3174 20.8517 72.3608 24.7805C72.3898 25.2489 72.3234 25.7611 72.583 26.1775C72.8932 25.9906 72.8509 25.5705 72.8751 25.2587C72.9016 21.2292 72.8811 17.1984 72.8884 13.1689C72.8715 12.5305 72.8692 11.8763 73.0937 11.2683C73.3533 10.4707 73.9456 9.82653 74.7159 9.50346C75.5378 9.18128 76.4514 9.19077 77.2663 9.53013C77.853 9.78662 78.3334 10.2389 78.6266 10.8106C78.9235 10.3204 79.3559 9.92766 79.871 9.68065C79.8566 8.12705 79.8794 6.57113 79.871 5.01645C79.8614 4.09288 80.1595 3.13029 80.8366 2.4761C81.8023 1.55486 83.3714 1.43834 84.5193 2.06586C85.2352 2.494 85.7386 3.20547 85.9061 4.02594C86.0376 4.52352 86.005 5.04062 86.005 5.55037V9.41486C86.9055 9.60298 87.7841 10.1236 88.1934 10.9817C88.7377 12.1335 88.5965 13.6434 87.7106 14.5888C87.2523 15.0651 86.6533 15.3796 86.0027 15.4857V24.8034C86.0027 25.5947 85.9449 26.4189 86.2441 27.1665C86.4191 27.606 86.7715 28.0246 87.2592 28.1048C87.8126 28.2041 88.2923 28.5487 88.5652 29.043C88.9273 29.6815 89.0131 30.4339 88.9985 31.1572C88.9873 31.9179 88.6524 32.6373 88.0787 33.1331C87.4824 33.6403 86.7028 33.8746 85.9351 33.9365C84.3706 34.0633 82.8358 33.4568 81.7758 32.2931C80.6894 31.0987 80.2067 29.4894 79.9871 27.9165C79.7952 26.6482 79.8941 25.3677 79.8664 24.086C79.8664 21.1234 79.853 18.1632 79.8747 15.2004C79.5682 15.0358 79.2841 14.8317 79.0298 14.5935C79.0355 19.7873 79.0355 24.9804 79.0298 30.1726C79.0901 31.1436 78.9308 32.1934 78.2863 32.9641C77.0623 34.4728 74.3478 34.3126 73.3736 32.6C72.7122 33.2822 71.8541 33.8041 70.898 33.9133C69.9662 34.0686 68.945 33.9448 68.1846 33.3428C67.1043 32.5028 66.6227 31.1327 66.385 29.8231C66.0773 28.2671 66.2547 26.6772 66.1823 25.1066C65.8528 26.796 65.3628 28.4698 64.5504 29.9919C63.9288 31.1522 63.102 32.2202 62.0157 32.9836C61.1429 33.5905 60.1038 34.0031 59.0318 33.9983C57.5641 34.0396 56.1591 33.3332 55.1187 32.3233C53.9708 31.214 53.1947 29.7746 52.6479 28.2841C52.0443 26.6577 51.7077 24.9502 51.482 23.2351C51.191 20.7556 51.0884 18.2575 51.1755 15.7623C51.254 13.4489 51.458 11.1308 51.9733 8.87074C52.3451 7.28313 52.8665 5.71503 53.7066 4.30963C54.3173 3.29013 55.1116 2.36763 56.1134 1.71594M58.2713 2.12278C57.273 2.30248 56.3919 2.89099 55.7063 3.62537C54.8095 4.58903 54.1988 5.78573 53.7497 7.0177C53.0254 9.04937 52.6972 11.2001 52.5089 13.3436C52.3189 15.7896 52.2969 18.2459 52.4425 20.6951C52.5836 22.7717 52.8421 24.8546 53.4273 26.8558C53.8691 28.3318 54.492 29.7869 55.495 30.9679C56.2072 31.8089 57.1522 32.4984 58.2433 32.7241C59.1442 32.8998 60.0778 32.7411 60.8709 32.2775C62.1105 31.5857 62.9977 30.4048 63.6326 29.1545C64.3726 27.6786 64.7985 26.0669 65.0931 24.4465C65.5518 21.8165 65.652 19.1378 65.6086 16.4712C65.5942 14.3719 65.4081 12.2772 65.0522 10.2085C64.7479 8.60513 64.317 7.0091 63.5687 5.55395C62.9434 4.34991 62.0731 3.21764 60.8709 2.55485C60.0778 2.12028 59.1616 1.96796 58.2713 2.12278ZM82.4118 2.93967C81.8502 3.07159 81.3979 3.48916 81.2192 4.04044C81.0139 4.57811 81.0695 5.15946 81.0647 5.72255C81.0647 6.91926 81.073 8.1147 81.0563 9.31033C81.0479 9.63555 81.0997 9.96703 81.0333 10.2887C80.9379 10.6237 80.5675 10.6832 80.3019 10.8215C79.0805 11.4041 79.078 13.4916 80.3153 14.0597C80.5024 14.1628 80.7341 14.2176 80.856 14.4106C81.0684 14.7286 81.0709 15.1267 81.0696 15.4956C81.0696 19.224 81.0696 22.9534 81.0696 26.6835C81.1229 27.7658 81.3431 28.8333 81.7227 29.8476C82.0848 30.7663 82.6462 31.6475 83.491 32.1851C84.2599 32.6852 85.2183 32.8223 86.1151 32.6985C86.6667 32.6135 87.2473 32.3951 87.5707 31.9108C87.8942 31.4264 87.8217 30.776 87.7336 30.2116C87.6624 29.8087 87.4536 29.3341 86.9997 29.2782C86.2226 29.0871 85.5738 28.5512 85.2363 27.8218C84.85 27.0559 84.7945 26.176 84.8114 25.3325C84.8114 22.0227 84.8041 18.7141 84.8114 15.4043C84.8306 14.9491 85.0227 14.3205 85.567 14.2985C86.0529 14.2998 86.518 14.0995 86.8525 13.7451C87.3498 13.1807 87.4162 12.3275 87.1676 11.6381C86.9346 11.0227 86.2973 10.6599 85.6708 10.5858C85.4499 10.5421 85.188 10.5665 85.0154 10.4025C84.8609 10.2633 84.7827 10.0576 84.8053 9.85033C84.8053 8.20581 84.8053 6.56111 84.8053 4.91658C84.7957 4.30373 84.5988 3.6422 84.1065 3.24771C83.6334 2.86898 82.9803 2.81313 82.407 2.93466M68.7857 10.524C67.8961 10.6721 67.3964 11.6019 67.3964 12.4465C67.3891 17.4632 67.3891 22.4798 67.3964 27.4966C67.3964 28.6351 67.5171 29.7905 67.9021 30.8658C68.1435 31.5274 68.5262 32.1936 69.1611 32.5408C69.715 32.8429 70.3815 32.7835 70.9801 32.6756C71.842 32.491 72.536 31.8866 73.0912 31.2288C73.2709 30.9933 73.6138 30.8648 73.8818 31.0371C74.2355 31.2349 74.2017 31.7035 74.4214 32.0081C74.9331 32.8578 76.1583 32.9913 76.9742 32.5349C77.6152 32.1452 77.8457 31.3455 77.8397 30.633C77.8397 24.6033 77.8397 18.5752 77.8397 12.5487C77.8192 11.9626 77.6659 11.335 77.2181 10.9273C76.7571 10.4866 76.0641 10.4345 75.468 10.5389C74.9425 10.6477 74.5048 11.0114 74.2996 11.5099C74.0643 12.0331 74.0739 12.6205 74.0835 13.1811C74.0835 17.332 74.0908 21.4841 74.0762 25.6337C74.0878 26.1739 73.8591 26.6912 73.4521 27.0441C73.1029 27.3359 72.6266 27.4204 72.1992 27.2662C71.6041 27.0515 71.2336 26.4264 71.1853 25.8098C71.096 21.3312 71.1636 16.8514 71.1346 12.3705C71.1056 11.7635 70.8594 11.1301 70.3452 10.7805C69.8925 10.4795 69.3119 10.4419 68.7893 10.5378M58.6383 7.50311C59.3385 7.32985 60.0587 7.70071 60.328 8.37334C60.8446 9.68782 61.0365 11.1031 61.1899 12.4999C61.4398 14.9831 61.4507 17.4834 61.3757 19.9763C61.272 21.8551 61.1465 23.757 60.6118 25.5714C60.4525 26.0568 60.3113 26.597 59.8948 26.9308C59.2887 27.4169 58.4087 27.3339 57.9032 26.7427C57.5482 26.2901 57.4204 25.7075 57.2551 25.1649C56.7723 23.2655 56.6515 21.2956 56.584 19.3391C56.5285 16.8036 56.561 14.2597 56.8713 11.7401C56.9861 10.7288 57.1958 9.73077 57.4977 8.75924C57.6474 8.18755 58.0238 7.62679 58.6299 7.48968M58.888 8.71198C58.713 8.88918 58.6828 9.16589 58.5947 9.39159C58.218 10.6381 58.0733 11.9404 57.9514 13.233C57.7857 15.5911 57.7538 17.9568 57.856 20.3187C57.9683 22.0713 58.0974 23.8542 58.6611 25.5279C58.7492 25.7076 58.7818 26.0329 59.0448 25.9988C59.2754 25.8265 59.3019 25.5025 59.4069 25.2512C59.909 23.5666 60.0297 21.7982 60.1312 20.0493C60.2182 17.7989 60.184 15.5453 60.0286 13.2987C59.891 11.8423 59.7365 10.3749 59.2465 8.99245C59.2006 8.83584 59.0885 8.60764 58.8905 8.71216M40.1817 10.7644C41.1171 9.768 42.4207 9.00946 43.8184 9.0653C44.8807 9.06691 45.9067 9.45496 46.7068 10.1577C47.8196 11.1287 48.4896 12.5074 48.9542 13.8935C49.4939 15.5942 49.7956 17.362 49.851 19.1463C49.8618 20.3601 49.647 21.6502 48.8624 22.609C48.3444 23.2441 47.585 23.6312 46.7694 23.676C45.7833 23.71 44.7851 23.6566 43.8086 23.8204C43.5503 24.0133 43.5044 24.3751 43.4368 24.67C43.3451 25.3801 43.3451 26.1265 43.6142 26.8062C43.7288 27.1048 43.9944 27.3828 44.3385 27.3792C44.7548 27.2578 45.0736 26.9446 45.3971 26.6691C45.9412 26.1936 46.6808 26.0126 47.3814 26.1837C48.0955 26.3885 48.6858 26.8952 48.9989 27.5723C49.3027 28.2661 49.3495 29.0463 49.1304 29.7715C48.775 31.0042 48.0437 32.0935 47.0398 32.8859C45.8755 33.7916 44.3866 34.164 42.936 33.9127C41.5914 33.6505 40.4665 32.7452 39.6336 31.6856C38.6178 30.372 37.8785 28.8644 37.4609 27.2542C37.4526 28.4375 37.4609 29.621 37.4609 30.8043C37.4465 31.7073 37.1169 32.6394 36.4385 33.2535C35.433 34.1456 33.8374 34.2245 32.7051 33.5338C31.7877 32.9598 31.3303 31.8553 31.3098 30.7993C31.3098 27.5481 31.3098 24.2967 31.3098 21.0447C31.3098 19.8782 31.3098 18.6998 31.0745 17.5528C31.0522 17.4546 31.0179 17.3595 30.972 17.27C30.6799 18.4449 30.7306 19.6647 30.7185 20.865C30.7185 24.1825 30.7185 27.4971 30.7185 30.8089C30.6955 31.6355 30.4456 32.4862 29.8833 33.1064C28.8392 34.2813 26.7849 34.2899 25.724 33.1343C25.1482 32.5093 24.879 31.6451 24.8694 30.8052C24.8694 27.3727 24.8694 23.9409 24.8694 20.5093C24.8817 19.5446 24.8053 18.5809 24.6412 17.6303C24.6352 17.5237 24.5925 17.4225 24.5205 17.344C24.3625 18.1204 24.2815 18.9108 24.2792 19.7034C24.2671 23.4356 24.2792 27.1676 24.2792 30.8986C24.2697 31.7669 23.9232 32.597 23.3135 33.212C22.4299 34.0409 21.0552 34.1914 19.9543 33.7509C19.0949 33.4049 18.4757 32.5918 18.2646 31.6962C18.0871 31.0554 18.1522 30.3854 18.1439 29.7287C18.1391 23.9684 18.1391 18.2077 18.1439 12.4467C18.1522 11.7367 18.3694 11.0449 18.7679 10.4587C19.6129 9.22925 21.5018 8.87236 22.721 9.74509C23.0604 9.99854 23.3445 10.3195 23.5551 10.6882C24.476 10.0096 25.5273 9.36403 26.7066 9.36152C27.8858 9.35902 28.9166 10.1553 29.444 11.1761C30.3034 10.2586 31.4079 9.48413 32.6776 9.32036C33.7326 9.16858 34.7947 9.63717 35.5418 10.3703C36.6968 11.4929 37.3524 13.0853 37.4501 14.6862C37.496 15.1716 37.4344 15.6572 37.4791 16.1354C38.0234 14.2008 38.7911 12.2516 40.1769 10.7673M43.2983 10.3032C42.2023 10.4949 41.2983 11.2475 40.6308 12.1068C39.7557 13.2489 39.2041 14.6022 38.7876 15.9713C38.265 17.7359 37.9944 19.5663 37.9837 21.4075C37.9529 23.5165 38.239 25.618 38.8323 27.641C39.3477 29.1084 40.0948 30.532 41.2102 31.6281C41.9802 32.3953 43.0642 32.9086 44.1662 32.7617C45.4939 32.6731 46.6949 31.8478 47.3866 30.7262C47.7632 30.1048 48.0975 29.3912 48.048 28.6484C48.0106 28.0112 47.5158 27.3352 46.841 27.3425C46.1879 27.3631 45.8392 27.9992 45.2985 28.2673C44.6911 28.6709 43.9045 28.6781 43.2899 28.2856C42.6562 27.8802 42.352 27.1265 42.2495 26.4055C42.1288 25.5558 42.1457 24.665 42.4088 23.8421C42.5923 23.2947 42.9748 22.7195 43.5832 22.621C44.6297 22.4426 45.6991 22.5202 46.7554 22.4583C47.4108 22.4291 47.9733 21.9582 48.2401 21.3756C48.7084 20.384 48.695 19.2493 48.5877 18.1811C48.4731 16.7247 48.1724 15.2892 47.6933 13.9101C47.3082 12.8772 46.7892 11.8468 45.9503 11.1186C45.2224 10.4766 44.2548 10.1807 43.2949 10.3068M20.6992 10.5314C19.8302 10.6989 19.3521 11.6164 19.3534 12.4455C19.3534 18.3853 19.3534 24.3257 19.3534 30.2664C19.3461 30.7386 19.34 31.2278 19.5248 31.6707C19.6829 32.1297 20.0373 32.4932 20.4904 32.6611C21.1241 32.8759 21.887 32.8238 22.4217 32.3928C22.884 32.0069 23.0759 31.3829 23.0916 30.7967C23.0916 27.5464 23.0916 24.2961 23.0916 21.047C23.0999 19.9402 23.0613 18.826 23.2461 17.7311C23.3463 17.1825 23.4573 16.6012 23.8158 16.1533C24.0983 15.7893 24.6608 15.6362 25.0542 15.902C25.4248 16.1569 25.6022 16.5987 25.7313 17.0137C26.0704 18.2043 26.0777 19.4546 26.085 20.6828C26.085 23.9663 26.085 27.2501 26.085 30.5345C26.085 31.1025 26.1658 31.7069 26.5134 32.1742C26.9865 32.8368 27.9704 32.934 28.6583 32.5771C29.2738 32.2263 29.5129 31.4774 29.5334 30.8052C29.5334 27.0729 29.5334 23.3409 29.5334 19.6099C29.549 18.7153 29.6081 17.8113 29.8472 16.947C29.9775 16.4931 30.2032 16.0026 30.6583 15.8025C30.9956 15.6459 31.3945 15.7197 31.6541 15.9871C32.0161 16.3767 32.1694 16.9131 32.2842 17.4216C32.5763 18.8478 32.5255 20.3115 32.5316 21.7583C32.5316 24.7731 32.5316 27.788 32.5316 30.8028C32.5437 31.4959 32.8394 32.2592 33.4876 32.5809C34.1357 32.9025 35.011 32.8576 35.5975 32.3915C36.061 32.0056 36.2516 31.3793 36.2733 30.793C36.2733 25.9584 36.2733 21.1245 36.2733 16.2915C36.2673 15.4723 36.3203 14.6409 36.1224 13.8387C35.8411 12.7075 35.2691 11.5872 34.3034 10.9003C33.7379 10.5002 33.0168 10.3948 32.3612 10.6162C31.2918 10.9645 30.4529 11.7827 29.7685 12.6491C29.5645 12.9074 29.1911 12.9507 28.9342 12.7456C28.912 12.7279 28.8911 12.7087 28.8717 12.688C28.5652 12.3311 28.4867 11.8383 28.2115 11.4659C27.8048 10.8312 27.0227 10.4415 26.2731 10.6078C25.4282 10.7995 24.7258 11.3227 24.0401 11.8215C23.7069 12.0497 23.1952 12.267 22.8621 11.9319C22.6134 11.6042 22.5241 11.1673 22.208 10.8833C21.8278 10.4669 21.2183 10.4111 20.698 10.5289M13.6442 9.33342C14.5397 9.15372 15.5332 9.303 16.2647 9.87844C17.0348 10.478 17.4198 11.4745 17.4306 12.4369C17.4306 18.558 17.4306 24.6795 17.4306 30.8016C17.4246 31.7022 17.0878 32.6294 16.4167 33.2447C15.4137 34.1416 13.8144 34.2254 12.675 33.5324C11.7854 32.9765 11.3208 31.9168 11.2832 30.8889C11.2832 24.7135 11.2832 18.5387 11.2832 12.364C11.3194 11.5618 11.5887 10.7474 12.1462 10.1575C12.5476 9.73525 13.0684 9.44744 13.638 9.33342M13.83 10.5291C12.9646 10.6966 12.4867 11.608 12.4854 12.4358C12.4854 18.3772 12.4854 24.3189 12.4854 30.2603C12.4771 30.7348 12.4721 31.2313 12.6581 31.6707C12.827 32.1576 13.2167 32.5345 13.7071 32.6854C14.3395 32.8699 15.0938 32.8068 15.6033 32.3504C16.0559 31.9401 16.2213 31.3054 16.2322 30.7119C16.2322 24.8861 16.2322 19.0644 16.2322 13.2466C16.2322 12.7709 16.2672 12.2853 16.1367 11.8229C16.0385 11.383 15.7758 10.998 15.4029 10.7476C14.9418 10.449 14.3587 10.4345 13.8338 10.5291M43.2162 14.7368C43.6133 14.5622 44.0612 14.7465 44.3629 15.0257C44.7769 15.4154 44.9327 16.0028 44.9554 16.5562C44.9845 17.1571 44.9471 17.8174 44.5558 18.304C44.0815 18.8999 43.0736 18.911 42.5848 18.3295C42.1201 17.7712 42.114 16.9835 42.1829 16.2965C42.2518 15.6568 42.5765 14.9615 43.2162 14.7368ZM43.344 16.6558C43.3269 16.9165 43.344 17.1786 43.3947 17.4349C43.4339 17.5274 43.5403 17.5704 43.6322 17.531C43.6995 17.5022 43.7429 17.4356 43.7424 17.362C43.7701 16.8705 43.8486 16.3304 43.5952 15.88C43.3417 16.0501 43.3538 16.3851 43.344 16.6558Z" fill="#2E2A2A"/>
</svg>
