<svg width="113" height="43" viewBox="0 0 113 43" fill="none" xmlns="http://www.w3.org/2000/svg">
<path d="M3.01145 0H15.9687C16.8469 0.0781959 17.7326 0.44432 18.2936 1.14628C18.8147 1.76845 19.0231 2.59606 19.0215 3.39746C19.0215 4.63888 19.0215 5.88006 19.0215 7.11989C19.0215 7.86163 18.6077 8.53895 18.0666 9.02168C17.2714 9.73901 16.2629 10.1497 15.2667 10.5036C14.7029 10.7135 14.0897 10.9831 13.8077 11.5502C13.4291 12.3165 13.4429 13.1884 13.4169 14.0174C13.4169 22.3502 13.4169 30.6829 13.4169 39.0157C13.3817 40.0609 12.997 41.1213 12.2492 41.8678C11.1411 42.9711 9.35435 43.1811 7.93507 42.6217C6.91898 42.1939 6.1499 41.3308 5.84164 40.2725C5.6118 39.5737 5.5996 38.832 5.62107 38.104C5.62107 30.5651 5.62107 23.0278 5.62107 15.4918C5.60728 14.4696 5.67169 13.4429 5.51236 12.4268C5.4249 11.8521 5.17991 11.2546 4.66486 10.9402C3.93375 10.4805 3.06953 10.3011 2.31559 9.88727C1.22289 9.34622 0.156392 8.43906 0 7.15786V3.21621C0.0628279 2.41165 0.306456 1.58562 0.878235 0.997115C1.42515 0.397086 2.21909 0.0965019 3.01145 0ZM2.63742 1.63828C1.9723 1.82518 1.56459 2.50408 1.55239 3.17078C1.53408 4.41355 1.55239 5.65813 1.54471 6.9009C1.52482 7.41437 1.91716 7.82049 2.30023 8.10096C3.46028 8.98824 5.07415 9.08474 6.10697 10.1652C7.00509 11.1352 7.08939 12.5376 7.13979 13.7912C7.14792 21.8194 7.14792 29.8478 7.13979 37.876C7.13979 38.5565 7.08148 39.2553 7.33143 39.9127C7.53302 40.564 8.04356 41.0734 8.69534 41.2736C9.50148 41.5051 10.4638 41.4176 11.1074 40.84C11.702 40.296 11.9014 39.4485 11.8982 38.6683C11.8921 30.7168 11.8921 22.7634 11.8982 14.8086C11.8982 13.7528 11.8876 12.6815 12.154 11.6532C12.3118 10.9504 12.7016 10.321 13.2605 9.86625C14.3334 9.01423 15.7922 8.89309 16.8618 8.03633C17.1683 7.7805 17.5238 7.45551 17.4933 7.0173C17.4933 5.76684 17.4933 4.51616 17.4933 3.2657C17.5096 2.79178 17.3346 2.33119 17.0074 1.98767C16.6514 1.67489 16.189 1.51036 15.7156 1.52799C11.7249 1.52799 7.73371 1.52799 3.74211 1.52799C3.3726 1.50042 3.00128 1.53522 2.6433 1.63059M71.257 2.16101C72.3549 1.43374 73.649 1.05949 74.9657 1.08819C76.7818 1.08819 78.515 1.94021 79.7991 3.19089C81.3685 4.69899 82.3846 6.68643 83.0895 8.72314C83.6748 10.4744 84.0879 12.2786 84.3232 14.1098C84.6466 13.4248 85.0681 12.7627 85.7163 12.3414C86.7231 11.6657 88.0411 11.5445 89.1935 11.8817C90.1316 12.1599 90.9127 12.814 91.3514 13.6886C91.7805 14.5239 91.8924 15.4801 91.8479 16.4074C91.8585 21.368 91.8187 26.3287 91.8739 31.2894C91.9107 31.8809 91.8264 32.5277 92.1559 33.0534C92.5498 32.8174 92.496 32.287 92.5268 31.8933C92.5604 26.8054 92.5345 21.7159 92.5437 16.6279C92.5223 15.8218 92.5193 14.9958 92.8043 14.228C93.134 13.221 93.8859 12.4076 94.8641 11.9997C95.9075 11.5929 97.0676 11.6049 98.1022 12.0334C98.8471 12.3572 99.4571 12.9283 99.8293 13.6502C100.206 13.0311 100.755 12.5353 101.409 12.2234C101.391 10.2617 101.42 8.29713 101.409 6.3341C101.397 5.16794 101.776 3.95251 102.635 3.12648C103.861 1.96326 105.854 1.81614 107.311 2.60849C108.22 3.14909 108.859 4.04743 109.072 5.08341C109.239 5.71169 109.197 6.36461 109.197 7.00825V11.8878C110.341 12.1253 111.456 12.7828 111.976 13.8662C112.667 15.3205 112.488 17.2271 111.363 18.4208C110.781 19.0222 110.021 19.4193 109.194 19.5533V31.3184C109.194 32.3175 109.121 33.3582 109.501 34.3022C109.723 34.8571 110.171 35.3857 110.79 35.4869C111.492 35.6124 112.102 36.0474 112.448 36.6716C112.908 37.4778 113.017 38.4279 112.998 39.3411C112.984 40.3016 112.559 41.2099 111.83 41.8359C111.073 42.4764 110.083 42.7723 109.109 42.8505C107.122 43.0105 105.173 42.2448 103.828 40.7753C102.448 39.2672 101.835 37.2353 101.557 35.2492C101.313 33.6477 101.439 32.0309 101.403 30.4126C101.403 26.6718 101.386 22.934 101.414 19.193C101.025 18.9851 100.664 18.7275 100.341 18.4267C100.348 24.9847 100.348 31.5419 100.341 38.0979C100.418 39.3239 100.216 40.6494 99.3972 41.6226C97.8432 43.5275 94.3967 43.3253 93.1598 41.1629C92.32 42.0242 91.2304 42.6832 90.0166 42.8211C88.8335 43.0172 87.5369 42.8609 86.5715 42.1008C85.1999 41.0402 84.5883 39.3102 84.2866 37.6565C83.8959 35.6919 84.1212 33.6844 84.0292 31.7012C83.6109 33.8344 82.9887 35.9478 81.9572 37.8697C81.168 39.3348 80.1183 40.6833 78.739 41.6472C77.6309 42.4136 76.3115 42.9345 74.9506 42.9284C73.087 42.9806 71.3031 42.0886 69.9822 40.8135C68.5247 39.4128 67.5393 37.5953 66.8451 35.7134C66.0787 33.6597 65.6513 31.5037 65.3648 29.3382C64.9953 26.2074 64.8651 23.0531 64.9756 19.9024C65.0753 16.9814 65.3343 14.0545 65.9885 11.2008C66.4606 9.19616 67.1226 7.21617 68.1893 5.44162C68.9647 4.15433 69.9731 2.98953 71.2451 2.16666M73.9849 2.68036C72.7174 2.90726 71.5987 3.65035 70.7282 4.57763C69.5896 5.79441 68.8142 7.30544 68.244 8.861C67.3244 11.4263 66.9077 14.1419 66.6686 16.8485C66.4274 19.937 66.3994 23.0384 66.5843 26.131C66.7635 28.753 67.0916 31.383 67.8347 33.9099C68.3957 35.7735 69.1864 37.6109 70.4599 39.102C71.3642 40.164 72.564 41.0345 73.9494 41.3195C75.0932 41.5415 76.2785 41.341 77.2856 40.7557C78.8594 39.8822 79.9858 38.391 80.792 36.8124C81.7314 34.9488 82.2723 32.9137 82.6463 30.8677C83.2287 27.5469 83.3559 24.1646 83.3008 20.7976C83.2825 18.1469 83.0463 15.502 82.5943 12.8899C82.2081 10.8654 81.6609 8.85015 80.7108 7.01277C79.9169 5.49247 78.812 4.0628 77.2856 3.22592C76.2785 2.6772 75.1153 2.48487 73.9849 2.68036ZM104.635 3.71182C103.922 3.87838 103.348 4.40564 103.121 5.10172C102.86 5.78062 102.931 6.51467 102.925 7.22567C102.925 8.7367 102.935 10.2461 102.914 11.7558C102.904 12.1665 102.969 12.585 102.885 12.9911C102.764 13.4142 102.294 13.4893 101.956 13.6639C100.406 14.3996 100.402 17.0354 101.973 17.7527C102.211 17.8829 102.505 17.9521 102.66 18.1957C102.93 18.5973 102.933 19.0999 102.931 19.5657C102.931 24.2735 102.931 28.9824 102.931 33.6923C102.999 35.0589 103.278 36.4067 103.76 37.6875C104.22 38.8475 104.933 39.9601 106.005 40.639C106.982 41.2705 108.199 41.4436 109.337 41.2872C110.037 41.1799 110.775 40.9042 111.185 40.2926C111.596 39.681 111.504 38.8597 111.392 38.1472C111.302 37.6384 111.037 37.0391 110.46 36.9686C109.474 36.7272 108.65 36.0506 108.221 35.1296C107.731 34.1626 107.66 33.0516 107.682 31.9864C107.682 27.8072 107.673 23.6296 107.682 19.4504C107.706 18.8757 107.95 18.082 108.641 18.0542C109.258 18.0558 109.849 17.8029 110.273 17.3554C110.905 16.6428 110.989 15.5655 110.673 14.695C110.378 13.918 109.569 13.4599 108.773 13.3663C108.493 13.3112 108.16 13.3419 107.941 13.1349C107.745 12.9591 107.645 12.6994 107.674 12.4377C107.674 10.3612 107.674 8.28448 107.674 6.20799C107.662 5.43417 107.412 4.59887 106.787 4.10077C106.186 3.62255 105.357 3.55204 104.629 3.70549M87.3347 13.2883C86.2051 13.4752 85.5707 14.6493 85.5707 15.7158C85.5615 22.0501 85.5615 28.3844 85.5707 34.719C85.5707 36.1566 85.724 37.6154 86.2128 38.9732C86.5193 39.8085 87.0052 40.6497 87.8113 41.0881C88.5146 41.4696 89.3607 41.3946 90.1208 41.2583C91.2151 41.0253 92.0962 40.2621 92.8011 39.4315C93.0294 39.1341 93.4647 38.9718 93.805 39.1895C94.2541 39.4392 94.2112 40.0309 94.49 40.4155C95.1398 41.4883 96.6953 41.657 97.7313 41.0807C98.5452 40.5887 98.8378 39.5789 98.8301 38.6792C98.8301 31.0657 98.8301 23.4543 98.8301 15.8448C98.8041 15.1047 98.6096 14.3123 98.0409 13.7975C97.4556 13.2411 96.5758 13.1753 95.8189 13.3071C95.1518 13.4445 94.596 13.9037 94.3354 14.5331C94.0367 15.1937 94.0489 15.9355 94.0611 16.6433C94.0611 21.8845 94.0704 27.1272 94.0518 32.3668C94.0665 33.0489 93.7761 33.702 93.2595 34.1477C92.8161 34.516 92.2113 34.6227 91.6687 34.4281C90.9131 34.1569 90.4426 33.3677 90.3814 32.5892C90.2679 26.9342 90.3538 21.2777 90.3169 15.6197C90.2801 14.8534 89.9676 14.0536 89.3146 13.6122C88.7399 13.2321 88.0027 13.1846 87.3392 13.3057M74.4509 9.47391C75.34 9.25514 76.2543 9.72342 76.5963 10.5727C77.2521 12.2325 77.4958 14.0194 77.6906 15.7831C78.0079 18.9187 78.0217 22.0757 77.9265 25.2234C77.7948 27.5957 77.6354 29.9972 76.9565 32.2881C76.7542 32.901 76.575 33.5831 76.0462 34.0046C75.2767 34.6184 74.1593 34.5136 73.5175 33.7671C73.0668 33.1955 72.9046 32.4599 72.6946 31.7749C72.0817 29.3766 71.9283 26.8892 71.8426 24.4188C71.7721 21.2173 71.8135 18.0052 72.2074 14.8238C72.3531 13.5469 72.6194 12.2867 73.0027 11.06C73.1927 10.3381 73.6707 9.63007 74.4402 9.45696M74.7679 11.0003C74.5458 11.2241 74.5074 11.5734 74.3955 11.8584C73.9173 13.4323 73.7335 15.0767 73.5787 16.7088C73.3683 19.6864 73.3279 22.6734 73.4576 25.6557C73.6002 27.8687 73.7641 30.1199 74.4798 32.2332C74.5917 32.4601 74.633 32.8708 74.967 32.8278C75.2597 32.6102 75.2934 32.2011 75.4267 31.8838C76.0643 29.7567 76.2175 27.5238 76.3463 25.3156C76.4568 22.4741 76.4134 19.6285 76.2161 16.7918C76.0415 14.9528 75.8453 13.1001 75.2231 11.3545C75.1648 11.1567 75.0224 10.8686 74.7711 11.0005M51.0172 13.5919C52.2048 12.3337 53.86 11.3759 55.6346 11.4464C56.9833 11.4485 58.286 11.9384 59.3019 12.8257C60.7148 14.0518 61.5655 15.7926 62.1553 17.5428C62.8406 19.6902 63.2237 21.9224 63.2939 24.1754C63.3077 25.7079 63.0349 27.3369 62.0387 28.5476C61.3811 29.3495 60.417 29.8383 59.3814 29.8948C58.1294 29.9377 56.862 29.8704 55.6221 30.0772C55.2942 30.3208 55.2359 30.7775 55.15 31.15C55.0336 32.0465 55.0336 32.989 55.3754 33.8473C55.5209 34.2243 55.8581 34.5752 56.2949 34.5707C56.8236 34.4175 57.2283 34.022 57.639 33.6742C58.3299 33.0737 59.2689 32.8452 60.1584 33.0613C61.0651 33.3198 61.8145 33.9596 62.2121 34.8146C62.5979 35.6906 62.6573 36.6757 62.3791 37.5914C61.9278 39.1479 60.9994 40.5233 59.7247 41.5238C58.2465 42.6674 56.356 43.1377 54.5143 42.8204C52.8071 42.4893 51.3788 41.3462 50.3213 40.0083C49.0315 38.3497 48.093 36.4461 47.5628 34.413C47.5521 35.9071 47.5628 37.4014 47.5628 38.8955C47.5445 40.0356 47.1259 41.2126 46.2646 41.988C44.988 43.1144 42.9621 43.2141 41.5245 42.342C40.3597 41.6172 39.7789 40.2225 39.7529 38.8891C39.7529 34.7841 39.7529 30.6786 39.7529 26.5724C39.7529 25.0995 39.7529 23.6116 39.4541 22.1633C39.4259 22.0393 39.3823 21.9193 39.324 21.8063C38.9531 23.2897 39.0175 24.8299 39.0021 26.3455C39.0021 30.5344 39.0021 34.7197 39.0021 38.9013C38.973 39.945 38.6557 41.0192 37.9417 41.8023C36.616 43.2857 34.0078 43.2966 32.6608 41.8375C31.9297 41.0483 31.588 39.9572 31.5758 38.8966C31.5758 34.5626 31.5758 30.2293 31.5758 25.8964C31.5914 24.6783 31.4944 23.4615 31.286 22.2612C31.2784 22.1265 31.2241 21.9988 31.1328 21.8996C30.9321 22.88 30.8293 23.878 30.8264 24.8787C30.811 29.5913 30.8264 34.3036 30.8264 39.0146C30.8144 40.1109 30.3744 41.1591 29.6003 41.9356C28.4785 42.9822 26.7331 43.1723 25.3352 42.6161C24.2441 42.1792 23.4579 41.1525 23.1898 40.0216C22.9645 39.2125 23.0472 38.3666 23.0366 37.5374C23.0305 30.2641 23.0305 22.9903 23.0366 15.716C23.0472 14.8195 23.3229 13.946 23.829 13.2058C24.9018 11.6535 27.3001 11.2028 28.848 12.3048C29.2789 12.6248 29.6396 13.03 29.907 13.4956C31.0763 12.6388 32.4111 11.8236 33.9083 11.8205C35.4056 11.8173 36.7143 12.8228 37.384 14.1117C38.4751 12.9532 39.8774 11.9753 41.4895 11.7685C42.829 11.5768 44.1775 12.1685 45.126 13.0942C46.5926 14.5117 47.4249 16.5224 47.549 18.5437C47.6073 19.1566 47.5291 19.7698 47.5858 20.3737C48.2769 17.9308 49.2517 15.4697 51.0111 13.5955M54.9742 13.0095C53.5827 13.2515 52.4349 14.2018 51.5874 15.2869C50.4764 16.729 49.776 18.4377 49.2471 20.1664C48.5836 22.3945 48.2401 24.7056 48.2265 27.0305C48.1874 29.6934 48.5506 32.3469 49.3039 34.9014C49.9584 36.7541 50.9069 38.5517 52.323 39.9357C53.3007 40.9044 54.677 41.5525 56.0762 41.367C57.7619 41.2551 59.2867 40.213 60.165 38.7969C60.6432 38.0122 61.0676 37.1112 61.0048 36.1733C60.9573 35.3687 60.329 34.5151 59.4723 34.5244C58.6431 34.5504 58.2004 35.3536 57.5138 35.6921C56.7427 36.2018 55.744 36.2108 54.9636 35.7152C54.159 35.2033 53.7728 34.2516 53.6426 33.3413C53.4894 32.2685 53.5109 31.1437 53.8449 30.1045C54.0779 29.4134 54.5636 28.687 55.336 28.5627C56.6647 28.3374 58.0225 28.4355 59.3636 28.3573C60.1957 28.3205 60.9099 27.7259 61.2486 26.9902C61.8433 25.7382 61.8263 24.3054 61.69 22.9566C61.5445 21.1176 61.1628 19.3051 60.5544 17.5638C60.0655 16.2596 59.4065 14.9585 58.3414 14.0391C57.4173 13.2284 56.1887 12.8549 54.9699 13.014M26.2811 13.2976C25.1777 13.5091 24.5707 14.6676 24.5723 15.7144C24.5723 23.2145 24.5723 30.7152 24.5723 38.2163C24.563 38.8125 24.5553 39.4302 24.7899 39.9895C24.9906 40.569 25.4406 41.028 26.016 41.24C26.8205 41.5112 27.7892 41.4454 28.4681 40.9012C29.055 40.414 29.2986 39.6261 29.3185 38.886C29.3185 34.7818 29.3185 30.6779 29.3185 26.5753C29.3291 25.1777 29.2801 23.7709 29.5147 22.3884C29.6419 21.6958 29.7829 20.9617 30.2381 20.3963C30.5967 19.9366 31.3109 19.7433 31.8104 20.0789C32.2809 20.4008 32.5062 20.9585 32.6701 21.4826C33.1006 22.986 33.1099 24.5646 33.1191 26.1154C33.1191 30.2614 33.1191 34.4078 33.1191 38.5549C33.1191 39.272 33.2217 40.0352 33.6631 40.6253C34.2638 41.4619 35.5129 41.5846 36.3864 41.134C37.1679 40.691 37.4714 39.7455 37.4974 38.8966C37.4974 34.1841 37.4974 29.4717 37.4974 24.7608C37.5173 23.6312 37.5923 22.4897 37.8959 21.3983C38.0613 20.8252 38.3479 20.206 38.9257 19.9533C39.354 19.7555 39.8605 19.8487 40.19 20.1863C40.6497 20.6783 40.8443 21.3556 40.99 21.9977C41.3609 23.7985 41.2965 25.6467 41.3042 27.4734C41.3042 31.2802 41.3042 35.0869 41.3042 38.8937C41.3195 39.7687 41.6949 40.7326 42.518 41.1387C43.3409 41.5449 44.4521 41.4881 45.1968 40.8996C45.7853 40.4124 46.0273 39.6216 46.0549 38.8812C46.0549 32.7767 46.0549 26.6732 46.0549 20.5707C46.0472 19.5363 46.1146 18.4866 45.8633 17.4736C45.5062 16.0453 44.7798 14.6308 43.5538 13.7634C42.8358 13.2583 41.9202 13.1252 41.0879 13.4047C39.7301 13.8445 38.6649 14.8776 37.796 15.9716C37.537 16.2977 37.0628 16.3524 36.7367 16.0934C36.7085 16.0711 36.682 16.0469 36.6574 16.0207C36.2682 15.57 36.1685 14.9478 35.8191 14.4775C35.3027 13.6761 34.3097 13.1842 33.358 13.3941C32.2852 13.6362 31.3934 14.2967 30.5228 14.9266C30.0998 15.2148 29.45 15.4891 29.0272 15.066C28.7115 14.6522 28.598 14.1006 28.1966 13.7419C27.7139 13.2162 26.9401 13.1457 26.2795 13.2944M17.3236 11.785C18.4606 11.5581 19.7219 11.7466 20.6507 12.4732C21.6284 13.2303 22.1172 14.4884 22.131 15.7036C22.131 23.4326 22.131 31.162 22.131 38.8921C22.1233 40.0293 21.6957 41.2 20.8437 41.977C19.5702 43.1094 17.5396 43.2152 16.093 42.3402C14.9634 41.6382 14.3736 40.3003 14.3259 39.0024C14.3259 31.2049 14.3259 23.4081 14.3259 15.6116C14.3718 14.5987 14.7137 13.5704 15.4215 12.8255C15.9312 12.2924 16.5925 11.9289 17.3156 11.785M17.5595 13.2947C16.4607 13.5062 15.8539 14.657 15.8523 15.7022C15.8523 23.2043 15.8523 30.7066 15.8523 38.2087C15.8417 38.8078 15.8354 39.4347 16.0715 39.9895C16.286 40.6042 16.7807 41.0802 17.4033 41.2707C18.2063 41.5037 19.1641 41.424 19.8109 40.8477C20.3856 40.3297 20.5956 39.5283 20.6094 38.7788C20.6094 31.4228 20.6094 24.0719 20.6094 16.726C20.6094 16.1253 20.6539 15.5122 20.4882 14.9284C20.3635 14.3729 20.0299 13.8868 19.5564 13.5706C18.9711 13.1936 18.2307 13.1753 17.5642 13.2947M54.87 18.6077C55.3742 18.3871 55.9428 18.6199 56.3259 18.9725C56.8516 19.4645 57.0493 20.2062 57.0783 20.905C57.1151 21.6637 57.0676 22.4974 56.5709 23.1119C55.9686 23.8642 54.689 23.8782 54.0684 23.144C53.4783 22.4391 53.4706 21.4444 53.5581 20.5771C53.6456 19.7693 54.0578 18.8913 54.87 18.6077ZM55.0323 21.0306C55.0106 21.3599 55.0323 21.6908 55.0967 22.0144C55.1464 22.1312 55.2816 22.1855 55.3982 22.1358C55.4836 22.0994 55.5388 22.0153 55.5381 21.9224C55.5733 21.3018 55.673 20.6198 55.3512 20.0512C55.0294 20.2659 55.0447 20.6889 55.0323 21.0306Z" fill="#090807"/>
</svg>
