<svg width="113" height="44" viewBox="0 0 113 44" fill="none" xmlns="http://www.w3.org/2000/svg">
<path d="M3.01145 0.930664H15.9687C16.8469 1.00886 17.7326 1.37498 18.2936 2.07694C18.8147 2.69912 19.0231 3.52673 19.0215 4.32812C19.0215 5.56954 19.0215 6.81072 19.0215 8.05056C19.0215 8.79229 18.6077 9.46961 18.0666 9.95235C17.2714 10.6697 16.2629 11.0803 15.2667 11.4342C14.7029 11.6442 14.0897 11.9138 13.8077 12.4808C13.4291 13.2472 13.4429 14.1191 13.4169 14.9481C13.4169 23.2809 13.4169 31.6135 13.4169 39.9464C13.3817 40.9916 12.997 42.052 12.2492 42.7985C11.1411 43.9018 9.35435 44.1118 7.93507 43.5524C6.91898 43.1246 6.1499 42.2615 5.84164 41.2031C5.6118 40.5043 5.5996 39.7626 5.62107 39.0347C5.62107 31.4958 5.62107 23.9585 5.62107 16.4225C5.60728 15.4003 5.67169 14.3736 5.51236 13.3575C5.4249 12.7828 5.17991 12.1852 4.66486 11.8709C3.93375 11.4112 3.06953 11.2317 2.31559 10.8179C1.22289 10.2769 0.156392 9.36972 0 8.08853V4.14687C0.0628279 3.34231 0.306456 2.51628 0.878235 1.92778C1.42515 1.32775 2.21909 1.02717 3.01145 0.930664ZM2.63742 2.56894C1.9723 2.75584 1.56459 3.43474 1.55239 4.10144C1.53408 5.34421 1.55239 6.58879 1.54471 7.83157C1.52482 8.34504 1.91716 8.75116 2.30023 9.03162C3.46028 9.9189 5.07415 10.0154 6.10697 11.0959C7.00509 12.0659 7.08939 13.4682 7.13979 14.7218C7.14792 22.75 7.14792 30.7784 7.13979 38.8066C7.13979 39.4871 7.08148 40.1859 7.33143 40.8433C7.53302 41.4947 8.04356 42.0041 8.69534 42.2043C9.50148 42.4357 10.4638 42.3483 11.1074 41.7706C11.702 41.2267 11.9014 40.3792 11.8982 39.599C11.8921 31.6474 11.8921 23.694 11.8982 15.7393C11.8982 14.6834 11.8876 13.6122 12.154 12.5839C12.3118 11.881 12.7016 11.2516 13.2605 10.7969C14.3334 9.94489 15.7922 9.82376 16.8618 8.96699C17.1683 8.71116 17.5238 8.38617 17.4933 7.94796C17.4933 6.6975 17.4933 5.44682 17.4933 4.19636C17.5096 3.72244 17.3346 3.26185 17.0074 2.91833C16.6514 2.60555 16.189 2.44102 15.7156 2.45865C11.7249 2.45865 7.73371 2.45865 3.74211 2.45865C3.3726 2.43108 3.00128 2.46588 2.6433 2.56125M71.257 3.09168C72.3549 2.36441 73.649 1.99015 74.9657 2.01885C76.7818 2.01885 78.515 2.87088 79.7991 4.12156C81.3685 5.62965 82.3846 7.6171 83.0895 9.65381C83.6748 11.4051 84.0879 13.2092 84.3232 15.0405C84.6466 14.3555 85.0681 13.6933 85.7163 13.2721C86.7231 12.5963 88.0411 12.4752 89.1935 12.8124C90.1316 13.0906 90.9127 13.7446 91.3514 14.6192C91.7805 15.4545 91.8924 16.4107 91.8479 17.338C91.8585 22.2987 91.8187 27.2594 91.8739 32.2201C91.9107 32.8115 91.8264 33.4584 92.1559 33.984C92.5498 33.7481 92.496 33.2177 92.5268 32.824C92.5604 27.736 92.5345 22.6465 92.5437 17.5586C92.5223 16.7525 92.5193 15.9264 92.8043 15.1587C93.134 14.1517 93.8859 13.3383 94.8641 12.9303C95.9075 12.5235 97.0676 12.5355 98.1022 12.964C98.8471 13.2879 99.4571 13.859 99.8293 14.5808C100.206 13.9618 100.755 13.466 101.409 13.1541C101.391 11.1924 101.42 9.22779 101.409 7.26476C101.397 6.0986 101.776 4.88318 102.635 4.05715C103.861 2.89393 105.854 2.7468 107.311 3.53916C108.22 4.07975 108.859 4.9781 109.072 6.01408C109.239 6.64236 109.197 7.29527 109.197 7.93892V12.8185C110.341 13.056 111.456 13.7134 111.976 14.7969C112.667 16.2512 112.488 18.1577 111.363 19.3515C110.781 19.9528 110.021 20.3499 109.194 20.4839V32.249C109.194 33.2482 109.121 34.2889 109.501 35.2329C109.723 35.7877 110.171 36.3163 110.79 36.4176C111.492 36.543 112.102 36.9781 112.448 37.6023C112.908 38.4084 113.017 39.3585 112.998 40.2718C112.984 41.2323 112.559 42.1406 111.83 42.7666C111.073 43.4071 110.083 43.7029 109.109 43.7811C107.122 43.9411 105.173 43.1754 103.828 41.706C102.448 40.1979 101.835 38.1659 101.557 36.1798C101.313 34.5784 101.439 32.9616 101.403 31.3432C101.403 27.6025 101.386 23.8647 101.414 20.1237C101.025 19.9158 100.664 19.6581 100.341 19.3573C100.348 25.9154 100.348 32.4725 100.341 39.0286C100.418 40.2546 100.216 41.5801 99.3972 42.5533C97.8432 44.4582 94.3967 44.2559 93.1598 42.0936C92.32 42.9549 91.2304 43.6139 90.0166 43.7517C88.8335 43.9479 87.5369 43.7915 86.5715 43.0315C85.1999 41.9709 84.5883 40.2408 84.2866 38.5872C83.8959 36.6226 84.1212 34.615 84.0292 32.6319C83.6109 34.7651 82.9887 36.8784 81.9572 38.8003C81.168 40.2655 80.1183 41.614 78.739 42.5779C77.6309 43.3443 76.3115 43.8652 74.9506 43.8591C73.087 43.9113 71.3031 43.0193 69.9822 41.7442C68.5247 40.3434 67.5393 38.5259 66.8451 36.6441C66.0787 34.5904 65.6513 32.4344 65.3648 30.2688C64.9953 27.1381 64.8651 23.9838 64.9756 20.8331C65.0753 17.9121 65.3343 14.9851 65.9885 12.1314C66.4606 10.1268 67.1226 8.14684 68.1893 6.37229C68.9647 5.08499 69.9731 3.92019 71.2451 3.09732M73.9849 3.61102C72.7174 3.83793 71.5987 4.58101 70.7282 5.50829C69.5896 6.72507 68.8142 8.23611 68.244 9.79166C67.3244 12.357 66.9077 15.0726 66.6686 17.7792C66.4274 20.8677 66.3994 23.9691 66.5843 27.0617C66.7635 29.6837 67.0916 32.3137 67.8347 34.8406C68.3957 36.7042 69.1864 38.5415 70.4599 40.0327C71.3642 41.0947 72.564 41.9652 73.9494 42.2502C75.0932 42.4721 76.2785 42.2717 77.2856 41.6863C78.8594 40.8128 79.9858 39.3217 80.792 37.7431C81.7314 35.8795 82.2723 33.8444 82.6463 31.7984C83.2287 28.4776 83.3559 25.0952 83.3008 21.7283C83.2825 19.0775 83.0463 16.4327 82.5943 13.8206C82.2081 11.7961 81.6609 9.78081 80.7108 7.94344C79.9169 6.42314 78.812 4.99346 77.2856 4.15659C76.2785 3.60786 75.1153 3.41553 73.9849 3.61102ZM104.635 4.64249C103.922 4.80905 103.348 5.3363 103.121 6.03238C102.86 6.71129 102.931 7.44534 102.925 8.15633C102.925 9.66737 102.935 11.1768 102.914 12.6865C102.904 13.0971 102.969 13.5157 102.885 13.9218C102.764 14.3449 102.294 14.4199 101.956 14.5946C100.406 15.3302 100.402 17.9661 101.973 18.6834C102.211 18.8136 102.505 18.8827 102.66 19.1264C102.93 19.528 102.933 20.0306 102.931 20.4964C102.931 25.2042 102.931 29.9131 102.931 34.6229C102.999 35.9896 103.278 37.3374 103.76 38.6182C104.22 39.7782 104.933 40.8908 106.005 41.5697C106.982 42.2012 108.199 42.3743 109.337 42.2179C110.037 42.1105 110.775 41.8348 111.185 41.2233C111.596 40.6117 111.504 39.7904 111.392 39.0778C111.302 38.5691 111.037 37.9698 110.46 37.8993C109.474 37.6579 108.65 36.9812 108.221 36.0603C107.731 35.0932 107.66 33.9822 107.682 32.9171C107.682 28.7379 107.673 24.5603 107.682 20.3811C107.706 19.8064 107.95 19.0127 108.641 18.9849C109.258 18.9865 109.849 18.7336 110.273 18.2861C110.905 17.5735 110.989 16.4962 110.673 15.6256C110.378 14.8486 109.569 14.3905 108.773 14.297C108.493 14.2418 108.16 14.2726 107.941 14.0655C107.745 13.8897 107.645 13.63 107.674 13.3683C107.674 11.2918 107.674 9.21514 107.674 7.13866C107.662 6.36483 107.412 5.52954 106.787 5.03143C106.186 4.55322 105.357 4.4827 104.629 4.63615M87.3347 14.219C86.2051 14.4059 85.5707 15.58 85.5707 16.6465C85.5615 22.9808 85.5615 29.3151 85.5707 35.6496C85.5707 37.0872 85.724 38.5461 86.2128 39.9039C86.5193 40.7392 87.0052 41.5803 87.8113 42.0188C88.5146 42.4003 89.3607 42.3252 90.1208 42.1889C91.2151 41.9559 92.0962 41.1927 92.8011 40.3622C93.0294 40.0648 93.4647 39.9025 93.805 40.1201C94.2541 40.3699 94.2112 40.9615 94.49 41.3462C95.1398 42.419 96.6953 42.5876 97.7313 42.0113C98.5452 41.5193 98.8378 40.5095 98.8301 39.6098C98.8301 31.9964 98.8301 24.3849 98.8301 16.7755C98.8041 16.0354 98.6096 15.243 98.0409 14.7282C97.4556 14.1718 96.5758 14.106 95.8189 14.2378C95.1518 14.3752 94.596 14.8344 94.3354 15.4638C94.0367 16.1244 94.0489 16.8661 94.0611 17.574C94.0611 22.8151 94.0704 28.0579 94.0518 33.2974C94.0665 33.9795 93.7761 34.6327 93.2595 35.0783C92.8161 35.4467 92.2113 35.5534 91.6687 35.3588C90.9131 35.0876 90.4426 34.2984 90.3814 33.5198C90.2679 27.8649 90.3538 22.2083 90.3169 16.5504C90.2801 15.784 89.9676 14.9842 89.3146 14.5429C88.7399 14.1627 88.0027 14.1153 87.3392 14.2364M74.4509 10.4046C75.34 10.1858 76.2543 10.6541 76.5963 11.5034C77.2521 13.1631 77.4958 14.9501 77.6906 16.7138C78.0079 19.8493 78.0217 23.0063 77.9265 26.154C77.7948 28.5264 77.6354 30.9278 76.9565 33.2188C76.7542 33.8317 76.575 34.5138 76.0462 34.9353C75.2767 35.5491 74.1593 35.4442 73.5175 34.6977C73.0668 34.1262 72.9046 33.3906 72.6946 32.7056C72.0817 30.3072 71.9283 27.8199 71.8426 25.3495C71.7721 22.148 71.8135 18.9358 72.2074 15.7544C72.3531 14.4775 72.6194 13.2174 73.0027 11.9906C73.1927 11.2688 73.6707 10.5607 74.4402 10.3876M74.7679 11.931C74.5458 12.1547 74.5074 12.5041 74.3955 12.7891C73.9173 14.363 73.7335 16.0073 73.5787 17.6395C73.3683 20.6171 73.3279 23.6041 73.4576 26.5864C73.6002 28.7994 73.7641 31.0506 74.4798 33.1639C74.5917 33.3908 74.633 33.8014 74.967 33.7585C75.2597 33.5408 75.2934 33.1318 75.4267 32.8145C76.0643 30.6874 76.2175 28.4545 76.3463 26.2463C76.4568 23.4048 76.4134 20.5592 76.2161 17.7224C76.0415 15.8835 75.8453 14.0307 75.2231 12.2851C75.1648 12.0874 75.0224 11.7992 74.7711 11.9312M51.0172 14.5225C52.2048 13.2644 53.86 12.3066 55.6346 12.3771C56.9833 12.3791 58.286 12.8691 59.3019 13.7564C60.7148 14.9824 61.5655 16.7233 62.1553 18.4734C62.8406 20.6209 63.2237 22.8531 63.2939 25.1061C63.3077 26.6386 63.0349 28.2676 62.0387 29.4783C61.3811 30.2801 60.417 30.769 59.3814 30.8255C58.1294 30.8684 56.862 30.801 55.6221 31.0078C55.2942 31.2515 55.2359 31.7082 55.15 32.0807C55.0336 32.9772 55.0336 33.9196 55.3754 34.778C55.5209 35.1549 55.8581 35.5059 56.2949 35.5014C56.8236 35.3482 57.2283 34.9527 57.639 34.6049C58.3299 34.0044 59.2689 33.7759 60.1584 33.9919C61.0651 34.2505 61.8145 34.8903 62.2121 35.7453C62.5979 36.6212 62.6573 37.6064 62.3791 38.5221C61.9278 40.0786 60.9994 41.454 59.7247 42.4545C58.2465 43.5981 56.356 44.0684 54.5143 43.7511C52.8071 43.42 51.3788 42.2769 50.3213 40.9389C49.0315 39.2803 48.093 37.3767 47.5628 35.3436C47.5521 36.8377 47.5628 38.332 47.5628 39.8261C47.5445 40.9663 47.1259 42.1433 46.2646 42.9187C44.988 44.0451 42.9621 44.1448 41.5245 43.2726C40.3597 42.5478 39.7789 41.1532 39.7529 39.8198C39.7529 35.7147 39.7529 31.6092 39.7529 27.503C39.7529 26.0302 39.7529 24.5422 39.4541 23.094C39.4259 22.9699 39.3823 22.8499 39.324 22.7369C38.9531 24.2204 39.0175 25.7606 39.0021 27.2761C39.0021 31.465 39.0021 35.6503 39.0021 39.832C38.973 40.8757 38.6557 41.9498 37.9417 42.7329C36.616 44.2164 34.0078 44.2272 32.6608 42.7682C31.9297 41.979 31.588 40.8879 31.5758 39.8273C31.5758 35.4933 31.5758 31.1599 31.5758 26.8271C31.5914 25.6089 31.4944 24.3921 31.286 23.1919C31.2784 23.0572 31.2241 22.9295 31.1328 22.8303C30.9321 23.8106 30.8293 24.8087 30.8264 25.8094C30.811 30.5219 30.8264 35.2343 30.8264 39.9452C30.8144 41.0415 30.3744 42.0897 29.6003 42.8663C28.4785 43.9129 26.7331 44.1029 25.3352 43.5468C24.2441 43.1099 23.4579 42.0832 23.1898 40.9523C22.9645 40.1432 23.0472 39.2973 23.0366 38.4681C23.0305 31.1947 23.0305 23.9209 23.0366 16.6467C23.0472 15.7501 23.3229 14.8767 23.829 14.1365C24.9018 12.5841 27.3001 12.1335 28.848 13.2354C29.2789 13.5555 29.6396 13.9607 29.907 14.4262C31.0763 13.5695 32.4111 12.7543 33.9083 12.7511C35.4056 12.748 36.7143 13.7534 37.384 15.0423C38.4751 13.8838 39.8774 12.9059 41.4895 12.6991C42.829 12.5075 44.1775 13.0992 45.126 14.0249C46.5926 15.4423 47.4249 17.4531 47.549 19.4744C47.6073 20.0873 47.5291 20.7004 47.5858 21.3043C48.2769 18.8615 49.2517 16.4003 51.0111 14.5261M54.9742 13.9401C53.5827 14.1822 52.4349 15.1325 51.5874 16.2175C50.4764 17.6596 49.776 19.3684 49.2471 21.0971C48.5836 23.3252 48.2401 25.6363 48.2265 27.9611C48.1874 30.6241 48.5506 33.2776 49.3039 35.832C49.9584 37.6848 50.9069 39.4824 52.323 40.8664C53.3007 41.835 54.677 42.4832 56.0762 42.2977C57.7619 42.1858 59.2867 41.1437 60.165 39.7276C60.6432 38.9429 61.0676 38.0419 61.0048 37.104C60.9573 36.2994 60.329 35.4458 59.4723 35.4551C58.6431 35.4811 58.2004 36.2843 57.5138 36.6228C56.7427 37.1324 55.744 37.1415 54.9636 36.6459C54.159 36.134 53.7728 35.1823 53.6426 34.2719C53.4894 33.1991 53.5109 32.0743 53.8449 31.0352C54.0779 30.3441 54.5636 29.6177 55.336 29.4934C56.6647 29.2681 58.0225 29.3662 59.3636 29.288C60.1957 29.2511 60.9099 28.6565 61.2486 27.9209C61.8433 26.6689 61.8263 25.236 61.69 23.8873C61.5445 22.0483 61.1628 20.2358 60.5544 18.4945C60.0655 17.1902 59.4065 15.8891 58.3414 14.9698C57.4173 14.1591 56.1887 13.7855 54.9699 13.9446M26.2811 14.2283C25.1777 14.4398 24.5707 15.5983 24.5723 16.6451C24.5723 24.1451 24.5723 31.6458 24.5723 39.147C24.563 39.7432 24.5553 40.3608 24.7899 40.9202C24.9906 41.4997 25.4406 41.9587 26.016 42.1706C26.8205 42.4418 27.7892 42.3761 28.4681 41.8319C29.055 41.3446 29.2986 40.5568 29.3185 39.8166C29.3185 35.7125 29.3185 31.6085 29.3185 27.506C29.3291 26.1084 29.2801 24.7015 29.5147 23.3191C29.6419 22.6264 29.7829 21.8924 30.2381 21.3269C30.5967 20.8672 31.3109 20.674 31.8104 21.0096C32.2809 21.3314 32.5062 21.8892 32.6701 22.4133C33.1006 23.9166 33.1099 25.4953 33.1191 27.0461C33.1191 31.192 33.1191 35.3384 33.1191 39.4855C33.1191 40.2026 33.2217 40.9658 33.6631 41.5559C34.2638 42.3926 35.5129 42.5153 36.3864 42.0646C37.1679 41.6217 37.4714 40.6761 37.4974 39.8273C37.4974 35.1147 37.4974 30.4024 37.4974 25.6914C37.5173 24.5619 37.5923 23.4204 37.8959 22.329C38.0613 21.7559 38.3479 21.1366 38.9257 20.884C39.354 20.6862 39.8605 20.7793 40.19 21.117C40.6497 21.609 40.8443 22.2863 40.99 22.9284C41.3609 24.7291 41.2965 26.5773 41.3042 28.4041C41.3042 32.2108 41.3042 36.0176 41.3042 39.8243C41.3195 40.6994 41.6949 41.6633 42.518 42.0694C43.3409 42.4755 44.4521 42.4188 45.1968 41.8303C45.7853 41.343 46.0273 40.5523 46.0549 39.8119C46.0549 33.7074 46.0549 27.6038 46.0549 21.5014C46.0472 20.467 46.1146 19.4172 45.8633 18.4043C45.5062 16.976 44.7798 15.5614 43.5538 14.6941C42.8358 14.1889 41.9202 14.0558 41.0879 14.3354C39.7301 14.7752 38.6649 15.8082 37.796 16.9023C37.537 17.2284 37.0628 17.2831 36.7367 17.0241C36.7085 17.0017 36.682 16.9775 36.6574 16.9513C36.2682 16.5007 36.1685 15.8785 35.8191 15.4082C35.3027 14.6068 34.3097 14.1148 33.358 14.3248C32.2852 14.5668 31.3934 15.2274 30.5228 15.8573C30.0998 16.1454 29.45 16.4198 29.0272 15.9967C28.7115 15.5829 28.598 15.0312 28.1966 14.6726C27.7139 14.1469 26.9401 14.0764 26.2795 14.2251M17.3236 12.7156C18.4606 12.4887 19.7219 12.6772 20.6507 13.4038C21.6284 14.1609 22.1172 15.4191 22.131 16.6343C22.131 24.3632 22.131 32.0926 22.131 39.8227C22.1233 40.96 21.6957 42.1306 20.8437 42.9076C19.5702 44.0401 17.5396 44.1459 16.093 43.2708C14.9634 42.5689 14.3736 41.2309 14.3259 39.933C14.3259 32.1356 14.3259 24.3388 14.3259 16.5423C14.3718 15.5293 14.7137 14.501 15.4215 13.7561C15.9312 13.223 16.5925 12.8596 17.3156 12.7156M17.5595 14.2253C16.4607 14.4369 15.8539 15.5877 15.8523 16.6329C15.8523 24.135 15.8523 31.6373 15.8523 39.1393C15.8417 39.7384 15.8354 40.3654 16.0715 40.9202C16.286 41.5349 16.7807 42.0109 17.4033 42.2014C18.2063 42.4344 19.1641 42.3546 19.8109 41.7783C20.3856 41.2603 20.5956 40.4589 20.6094 39.7095C20.6094 32.3534 20.6094 25.0026 20.6094 17.6567C20.6094 17.056 20.6539 16.4428 20.4882 15.8591C20.3635 15.3036 20.0299 14.8174 19.5564 14.5013C18.9711 14.1243 18.2307 14.106 17.5642 14.2253M54.87 19.5384C55.3742 19.3178 55.9428 19.5506 56.3259 19.9031C56.8516 20.3951 57.0493 21.1368 57.0783 21.8356C57.1151 22.5943 57.0676 23.428 56.5709 24.0425C55.9686 24.7949 54.689 24.8089 54.0684 24.0746C53.4783 23.3697 53.4706 22.3751 53.5581 21.5077C53.6456 20.7 54.0578 19.822 54.87 19.5384ZM55.0323 21.9613C55.0106 22.2906 55.0323 22.6214 55.0967 22.9451C55.1464 23.0619 55.2816 23.1162 55.3982 23.0664C55.4836 23.0301 55.5388 22.946 55.5381 22.8531C55.5733 22.2325 55.673 21.5504 55.3512 20.9818C55.0294 21.1965 55.0447 21.6196 55.0323 21.9613Z" fill="white"/>
</svg>
