<svg width="45" height="37" viewBox="0 0 45 37" fill="none" xmlns="http://www.w3.org/2000/svg">
<path d="M22.5 0.5C20.4114 0.5 18.4084 1.32969 16.9315 2.80653C15.4547 4.28338 14.625 6.28642 14.625 8.375H19.125C19.125 7.47989 19.4806 6.62145 20.1135 5.98851C20.7464 5.35558 21.6049 5 22.5 5C23.3951 5 24.2536 5.35558 24.8865 5.98851C25.5194 6.62145 25.875 7.47989 25.875 8.375C25.875 9.27011 25.5194 10.1286 24.8865 10.7615C24.2536 11.3944 23.3951 11.75 22.5 11.75C21.2625 11.75 20.25 12.7625 20.25 14V17.9375L0.9 32.45C0.522212 32.7333 0.24315 33.1284 0.102345 33.5791C-0.0384608 34.0299 -0.0338714 34.5135 0.115463 34.9615C0.264797 35.4095 0.551304 35.7992 0.934402 36.0753C1.3175 36.3514 1.77776 36.5 2.25 36.5H42.75C43.2222 36.5 43.6825 36.3514 44.0656 36.0753C44.4487 35.7992 44.7352 35.4095 44.8845 34.9615C45.0339 34.5135 45.0385 34.0299 44.8977 33.5791C44.7569 33.1284 44.4778 32.7333 44.1 32.45L24.75 17.9375V15.9125C26.3737 15.4284 27.7979 14.4336 28.8113 13.0757C29.8246 11.7178 30.373 10.0693 30.375 8.375C30.375 6.28642 29.5453 4.28338 28.0685 2.80653C26.5916 1.32969 24.5886 0.5 22.5 0.5ZM22.5 21.875L36 32H9L22.5 21.875Z" fill="#FCFCFC"/>
</svg>
