<svg width="23" height="21" viewBox="0 0 23 21" fill="none" xmlns="http://www.w3.org/2000/svg">
<path d="M5.74339 12.1274C6.97859 12.118 7.97138 11.215 7.96085 10.1104C7.95033 9.0059 6.94047 8.11813 5.70527 8.12755C4.47007 8.13696 3.47728 9.03999 3.48781 10.1445C3.49834 11.249 4.5082 12.1368 5.74339 12.1274Z" fill="#FCFCFC"/>
<path d="M11.3352 12.0848C12.5704 12.0754 13.5632 11.1724 13.5526 10.0678C13.5421 8.9633 12.5323 8.07553 11.2971 8.08495C10.0619 8.09436 9.06908 8.99739 9.07961 10.1019C9.09013 11.2064 10.1 12.0942 11.3352 12.0848Z" fill="#FCFCFC"/>
<path d="M16.925 12.0422C18.1602 12.0328 19.153 11.1297 19.1425 10.0252C19.132 8.92067 18.1221 8.0329 16.8869 8.04231C15.6517 8.05173 14.6589 8.95475 14.6695 10.0593C14.68 11.1638 15.6898 12.0516 16.925 12.0422Z" fill="#FCFCFC"/>
</svg>
