<svg width="34" height="33" viewBox="0 0 34 33" fill="none" xmlns="http://www.w3.org/2000/svg">
<path d="M34 0V22.9167C34 24.6185 33.3401 26.2506 32.1656 27.4539C30.991 28.6573 29.3979 29.3333 27.7368 29.3333C26.0757 29.3333 24.4827 28.6573 23.3081 27.4539C22.1336 26.2506 21.4737 24.6185 21.4737 22.9167C21.4737 21.2149 22.1336 19.5828 23.3081 18.3794C24.4827 17.176 26.0757 16.5 27.7368 16.5C28.7032 16.5 29.6158 16.72 30.4211 17.1233V6.36167L12.5263 10.2667V26.5833C12.5263 28.2851 11.8664 29.9172 10.6919 31.1206C9.51731 32.324 7.92425 33 6.26316 33C4.60207 33 3.00901 32.324 1.83444 31.1206C0.659867 29.9172 0 28.2851 0 26.5833C0 24.8815 0.659867 23.2494 1.83444 22.0461C3.00901 20.8427 4.60207 20.1667 6.26316 20.1667C7.22947 20.1667 8.14211 20.3867 8.94737 20.79V5.5L34 0Z" fill="#FCFCFC"/>
</svg>
