<svg width="73" height="73" viewBox="0 0 73 73" fill="none" xmlns="http://www.w3.org/2000/svg">
<path d="M0 12C0 5.37259 5.37258 0 12 0H61C67.6274 0 73 5.37258 73 12V61C73 67.6274 67.6274 73 61 73H12C5.37259 73 0 67.6274 0 61V12Z" fill="#2E2A2A"/>
<path d="M54.6015 35.7217C54.6085 38.4735 53.9814 41.188 52.7714 43.6443C51.3367 46.5876 49.1311 49.0633 46.4016 50.794C43.6722 52.5246 40.5267 53.442 37.3175 53.4433C34.6336 53.4505 31.9861 52.8075 29.5905 51.5669L18 55.5282L21.8635 43.6443C20.6535 41.188 20.0264 38.4735 20.0334 35.7217C20.0347 32.4312 20.9294 29.2061 22.6173 26.4075C24.3053 23.6089 26.7198 21.3475 29.5905 19.8765C31.9861 18.6358 34.6336 17.9929 37.3175 18.0001H38.3342C42.5725 18.2398 46.5757 20.074 49.5772 23.1515C52.5787 26.229 54.3677 30.3336 54.6015 34.6792V35.7217Z" fill="#FCFCFC"/>
</svg>
