<svg width="73" height="73" viewBox="0 0 73 73" fill="none" xmlns="http://www.w3.org/2000/svg">
<path d="M0 12C0 5.37259 5.37258 0 12 0H61C67.6274 0 73 5.37258 73 12V61C73 67.6274 67.6274 73 61 73H12C5.37259 73 0 67.6274 0 61V12Z" fill="#2E2A2A"/>
<path d="M37.321 34.0946C39.6429 34.0946 41.8697 33.0888 43.5116 31.2983C45.1535 29.5078 46.0758 27.0794 46.0758 24.5473C46.0758 22.0152 45.1535 19.5868 43.5116 17.7963C41.8697 16.0059 39.6429 15 37.321 15C34.9991 15 32.7722 16.0059 31.1304 17.7963C29.4885 19.5868 28.5661 22.0152 28.5661 24.5473C28.5661 27.0794 29.4885 29.5078 31.1304 31.2983C32.7722 33.0888 34.9991 34.0946 37.321 34.0946ZM34.1952 37.6749C27.4581 37.6749 22 43.6271 22 50.974C22 52.1973 22.9097 53.1893 24.0314 53.1893H50.6106C51.7323 53.1893 52.642 52.1973 52.642 50.974C52.642 43.6271 47.1839 37.6749 40.4467 37.6749H34.1952Z" fill="#FCFCFC"/>
</svg>
