<svg width="24" height="24" viewBox="0 0 24 24" fill="none" xmlns="http://www.w3.org/2000/svg">
<path d="M12.5 0C3.886 0 2 6.497 2 9C2 11.813 4.691 16 6.5 16C6.723 16 6.919 15.852 6.981 15.637L7.375 14.257L6.01 20.398C5.994 20.477 5.629 22.336 7.146 23.853C7.243 23.95 7.371 24 7.5 24C7.585 24 7.671 23.978 7.749 23.934C7.814 23.896 9.363 22.996 9.954 21.709C10.366 20.814 11.308 18.392 11.742 17.265C12.307 17.589 13.266 18 14.5 18C20.036 18 22 13.152 22 9C22 5.887 20.015 0 12.5 0ZM7.978 11.545L7.932 11.752C7.9 11.696 7.857 11.645 7.804 11.604C7.771 11.578 7 10.954 7 9.5C7 6.064 9.851 4.5 12.5 4.5C15.279 4.5 17 6.576 17 8.5C17 10.556 15.122 14 14 14C12.804 14 12.561 13.094 12.512 12.684C13.639 11.387 14 9.069 14 8.465C14.001 8.107 14.003 7.361 13.406 6.762C12.902 6.256 12.092 6 11 6C8.237 6 7.5 8.2 7.5 9.5C7.5 10.26 7.834 11.183 7.978 11.545Z" fill="#CB1F27"/>
</svg>
