<svg width="32" height="33" viewBox="0 0 32 33" fill="none" xmlns="http://www.w3.org/2000/svg">
<path d="M8 32.5V24.5H0V18.1H10.32L13.04 22.18C13.1733 22.3933 13.36 22.5667 13.6 22.7C13.84 22.8333 14.0933 22.9 14.36 22.9C14.7067 22.9 15.0267 22.7933 15.32 22.58C15.6133 22.3667 15.8133 22.1 15.92 21.78L18.08 15.3L19.44 17.38C19.6 17.5933 19.8 17.7667 20.04 17.9C20.28 18.0333 20.5333 18.1 20.8 18.1H32V24.5H24V32.5H8ZM13.92 17.7L12.52 15.62C12.3867 15.4067 12.2 15.2333 11.96 15.1C11.72 14.9667 11.4667 14.9 11.2 14.9H0V8.5H8V0.5H24V8.5H32V14.9H21.64L18.92 10.82C18.7867 10.6067 18.6 10.4333 18.36 10.3C18.12 10.1667 17.8667 10.1 17.6 10.1C17.2533 10.1 16.9397 10.2067 16.6592 10.42C16.3787 10.6333 16.1856 10.9 16.08 11.22L13.92 17.7Z" fill="#FCFCFC"/>
</svg>
