<svg width="17" height="18" viewBox="0 0 17 18" fill="none" xmlns="http://www.w3.org/2000/svg">
<path d="M1.2681 0.590614C0.585978 0.250674 -0.163438 0.900994 0.0313532 1.6629L1.45935 7.22979C1.49514 7.3697 1.56954 7.49556 1.6733 7.59173C1.77707 7.6879 1.90563 7.75015 2.04302 7.77074L9.04418 8.81421C9.24676 8.84377 9.24676 9.14971 9.04418 9.18001L2.04373 10.2227C1.90634 10.2433 1.77778 10.3056 1.67401 10.4017C1.57025 10.4979 1.49585 10.6238 1.46006 10.7637L0.0313532 16.3335C-0.163438 17.0947 0.585978 17.745 1.2681 17.4058L16.4958 9.83181C17.1681 9.49778 17.1681 8.49865 16.4958 8.16388L1.2681 0.590614Z" fill="#FCFCFC"/>
</svg>
