<svg width="48" height="48" viewBox="0 0 48 48" fill="none" xmlns="http://www.w3.org/2000/svg">
<path d="M11.9234 10.3747C14.5564 8.04581 17.832 6.56736 21.3203 6.13344C21.4559 7.074 21.6265 8.12175 21.8453 9.21324C22.239 11.1819 22.7858 13.3255 23.5427 15.2875C24.1464 16.8603 24.9054 18.3695 25.8656 19.5857L23.4989 21.9524L11.9234 10.3747ZM10.3747 11.9256C8.0449 14.5582 6.56566 17.8339 6.13125 21.3225C7.07181 21.4581 8.11737 21.6287 9.20887 21.8474C11.1775 22.2412 13.3211 22.788 15.2832 23.5448C16.8559 24.1486 18.3674 24.9076 19.5813 25.8678L21.9524 23.4989L10.3747 11.9256ZM18.0218 27.4296C17.0812 26.7296 15.8738 26.115 14.5001 25.5857C12.6911 24.8901 10.6788 24.3739 8.78014 23.9933C7.85768 23.8086 6.93067 23.6474 6.00001 23.5098C5.99635 27.7697 7.55254 31.8835 10.3747 35.0744L18.0239 27.4274L18.0218 27.4296ZM11.919 36.6231L19.5682 28.9761C20.2682 29.9166 20.8806 31.1241 21.41 32.4977C22.1056 34.3045 22.6218 36.319 23.0024 38.2155C23.1992 39.1954 23.3567 40.1404 23.4836 41C19.2245 41.0031 15.1115 39.447 11.9212 36.6253L11.919 36.6231ZM21.1278 27.4143L23.4989 25.0476L35.0744 36.6231C32.4416 38.9527 29.166 40.4319 25.6775 40.8666C25.5397 39.926 25.3669 38.8783 25.1504 37.7868C24.7566 35.8181 24.2098 33.6745 23.4552 31.7125C22.8493 30.1419 22.0924 28.6305 21.13 27.4165L21.1278 27.4143ZM36.6231 35.0766C38.9529 32.444 40.4322 29.1683 40.8666 25.6797C39.926 25.5441 38.8783 25.3735 37.7868 25.1547C35.8181 24.761 33.6745 24.2142 31.7125 23.4595C30.1419 22.8536 28.6305 22.0968 27.4143 21.1344L25.0454 23.4989L36.6231 35.0744V35.0766ZM28.9739 19.5748C29.9144 20.2747 31.1241 20.8872 32.4955 21.4165C34.3045 22.1121 36.319 22.6283 38.2155 23.0089C39.1954 23.2058 40.1404 23.3633 41 23.4902C41.0037 19.2303 39.4475 15.1165 36.6253 11.9256L28.9739 19.5748ZM35.0744 10.3747C31.8835 7.55254 27.7697 5.99635 23.5098 6.00001C23.6367 6.85964 23.7942 7.80458 23.9911 8.78452C24.3717 10.6831 24.8879 12.6955 25.5835 14.5023C26.1128 15.8759 26.7253 17.0834 27.4252 18.0239L35.0744 10.3747Z" fill="white"/>
</svg>
