<svg width="24" height="20" viewBox="0 0 24 20" fill="none" xmlns="http://www.w3.org/2000/svg">
<path d="M23.3697 2.855C23.2177 2.688 22.9727 2.646 22.7717 2.749C22.6467 2.813 22.4117 2.897 22.1327 2.98C22.4847 2.512 22.7677 1.988 22.8927 1.517C22.9467 1.314 22.8677 1.1 22.6957 0.978996C22.5237 0.858996 22.2947 0.858996 22.1227 0.978996C21.8517 1.168 20.5437 1.736 19.7167 1.92C17.8477 0.282996 15.6727 0.112996 13.4117 1.433C11.5737 2.506 11.1737 4.688 11.2517 6.018C7.04467 5.613 4.42967 3.391 2.95767 1.552C2.85467 1.423 2.68867 1.355 2.53267 1.365C2.36867 1.377 2.22067 1.468 2.13667 1.609C1.44067 2.784 1.24767 4.083 1.58067 5.366C1.76267 6.066 2.08067 6.683 2.44967 7.183C2.27267 7.096 2.10167 6.987 1.94067 6.857C1.79267 6.735 1.58567 6.712 1.41067 6.793C1.23667 6.876 1.12567 7.052 1.12567 7.245C1.12567 9.448 2.50367 10.918 3.79067 11.686C3.58267 11.661 3.36567 11.615 3.14667 11.548C2.95867 11.491 2.75467 11.548 2.62467 11.696C2.49467 11.843 2.46367 12.053 2.54467 12.232C3.26767 13.831 4.63767 14.931 6.33267 15.33C4.85267 16.199 2.87167 16.625 1.05767 16.416C0.822674 16.383 0.598674 16.532 0.524674 16.758C0.450674 16.984 0.547674 17.232 0.754674 17.348C3.50667 18.893 5.99467 19.445 8.14467 19.445C11.2737 19.445 13.6887 18.277 15.1587 17.3C19.1217 14.67 21.5917 9.948 21.2477 5.723C21.8827 5.254 22.8327 4.388 23.4217 3.457C23.5437 3.269 23.5217 3.021 23.3697 2.855Z" fill="#FCFCFC"/>
</svg>
