<svg width="18" height="22" viewBox="0 0 18 22" fill="none" xmlns="http://www.w3.org/2000/svg">
<path d="M9 11C10.364 11 11.6721 10.4469 12.6365 9.46231C13.601 8.47775 14.1429 7.14239 14.1429 5.75C14.1429 4.35761 13.601 3.02226 12.6365 2.03769C11.6721 1.05312 10.364 0.5 9 0.5C7.63603 0.5 6.32792 1.05312 5.36345 2.03769C4.39898 3.02226 3.85714 4.35761 3.85714 5.75C3.85714 7.14239 4.39898 8.47775 5.36345 9.46231C6.32792 10.4469 7.63603 11 9 11ZM7.16384 12.9688C3.20625 12.9688 0 16.2418 0 20.2818C0 20.9545 0.534375 21.5 1.1933 21.5H16.8067C17.4656 21.5 18 20.9545 18 20.2818C18 16.2418 14.7938 12.9688 10.8362 12.9688H7.16384Z" fill="#FCFCFC"/>
</svg>
