<svg width="40" height="41" viewBox="0 0 40 41" fill="none" xmlns="http://www.w3.org/2000/svg">
<path d="M12.216 35.4843C10.0045 34.6654 8.03648 33.2945 6.49699 31.5005C4.95751 29.7065 3.89712 27.5483 3.41553 25.2289L0.0953691 9.52404C-0.384654 7.35231 0.995412 5.22079 3.15552 4.75829L22.6965 0.595794L22.7565 0.575685C24.8966 0.153403 26.9967 1.5409 27.4367 3.67242L28.1367 7.03057L36.8371 8.90067H36.8971C38.9972 9.38328 40.3573 11.5148 39.9173 13.6463L36.5971 29.3713C36.2139 31.1777 35.4805 32.8905 34.4388 34.4118C33.397 35.9332 32.0674 37.2333 30.5258 38.2379C28.9842 39.2426 27.2608 39.932 25.4542 40.2669C23.6475 40.6018 21.7929 40.5756 19.9963 40.1898C16.9485 39.5502 14.206 37.8916 12.216 35.4843ZM35.9971 12.8219L16.4562 8.63926L13.136 24.3642V24.4246C11.9959 29.8137 15.4561 35.1224 20.8364 36.2686C26.2166 37.4148 31.5369 33.9561 32.6769 28.5468L35.9971 12.8219ZM27.9967 29.5523C27.3649 30.6277 26.4127 31.4762 25.2749 31.9778C24.1371 32.4794 22.8713 32.6087 21.6564 32.3474C20.4453 32.0868 19.3454 31.4527 18.5099 30.5335C17.6745 29.6142 17.1453 28.4558 16.9962 27.2197L27.9967 29.5523ZM12.936 6.76915L3.99556 8.69959L7.31572 24.4045L7.33572 24.4648C7.63573 25.8925 8.23576 27.1794 9.0558 28.2854C8.85579 26.7371 8.89579 25.1284 9.23581 23.5197L10.0958 19.4979C9.19581 19.3371 8.41577 18.8344 7.99575 18.1104C8.11575 16.8838 9.1158 15.7979 10.4959 15.4762H10.9959L12.556 7.8148C12.636 7.43274 12.756 7.09089 12.936 6.76915ZM26.0566 20.9659C26.6966 19.9001 28.0567 19.3371 29.4368 19.6387C30.8168 19.9202 31.8169 20.986 31.9969 22.2327C31.3369 23.2784 29.9968 23.8414 28.5967 23.5197C27.2167 23.2583 26.2166 22.1925 26.0566 20.9659ZM16.2961 18.8746C16.9362 17.8088 18.2762 17.2458 19.6563 17.5474C20.9964 17.8289 22.0564 18.9148 22.2164 20.1414C21.5564 21.1871 20.2163 21.7702 18.8363 21.5088C17.4562 21.167 16.4562 20.1012 16.2961 18.8746ZM19.9363 5.28111L23.8565 6.12568L23.5365 4.51698L19.9363 5.28111Z" fill="white"/>
</svg>
