<svg width="24" height="24" viewBox="0 0 24 24" fill="none" xmlns="http://www.w3.org/2000/svg">
<path d="M16.7382 22.2197L16.7391 22.2188C17.087 21.8558 17.087 21.275 16.7391 20.9121L8.19835 11.9996L16.7391 3.08793L16.7391 3.08792C17.087 2.72495 17.087 2.1442 16.7391 1.78123C16.3798 1.40626 15.7873 1.40626 15.428 1.78123L6.26327 11.3448C6.26291 11.3452 6.26255 11.3456 6.26219 11.3459C6.08489 11.5297 6 11.7679 6 11.9996C6 12.2319 6.08525 12.4684 6.25889 12.6515L6.26066 12.6533L15.4271 22.2188L15.428 22.2197C15.788 22.5934 16.3782 22.5934 16.7382 22.2197Z" fill="#2E2A2A" stroke="#2E2A2A"/>
</svg>
