<svg width="32" height="33" viewBox="0 0 32 33" fill="none" xmlns="http://www.w3.org/2000/svg">
<path d="M25.9108 21.1078V15.7914C25.9108 15.3885 25.7504 15.0022 25.465 14.7173C25.1795 14.4324 24.7923 14.2724 24.3885 14.2724H22.8662C26.2762 11.8269 27.0678 7.08771 24.6169 3.63965C23.4309 2.0128 21.6486 0.919532 19.6583 0.598033C17.6681 0.276533 15.6311 0.752853 13.9913 1.92322C12.9713 2.65233 12.1493 3.63965 11.6013 4.7485C10.7506 4.22263 9.80405 3.86984 8.81618 3.71045C7.8283 3.55105 6.81858 3.58818 5.84514 3.81971C4.87171 4.05125 3.95378 4.4726 3.14419 5.05953C2.33461 5.64646 1.64936 6.38737 1.12789 7.2396C0.0704266 8.95585 -0.260618 11.0209 0.207555 12.9807C0.675728 14.9404 1.90478 16.6344 3.62445 17.6901C3.94413 17.8724 4.26382 18.0698 4.59872 18.1913V30.981C4.59872 31.3839 4.7591 31.7702 5.04459 32.0551C5.33007 32.34 5.71728 32.5 6.12101 32.5H24.3885C24.7923 32.5 25.1795 32.34 25.465 32.0551C25.7504 31.7702 25.9108 31.3839 25.9108 30.981V25.6647L32 31.7405V15.0319L25.9108 21.1078ZM18.2994 5.15862C19.1068 5.15862 19.8812 5.47869 20.4522 6.04841C21.0232 6.61813 21.3439 7.39084 21.3439 8.19655C21.3439 9.00226 21.0232 9.77497 20.4522 10.3447C19.8812 10.9144 19.1068 11.2345 18.2994 11.2345C17.4919 11.2345 16.7175 10.9144 16.1465 10.3447C15.5755 9.77497 15.2548 9.00226 15.2548 8.19655C15.2548 7.39084 15.5755 6.61813 16.1465 6.04841C16.7175 5.47869 17.4919 5.15862 18.2994 5.15862ZM7.64331 8.19655C8.45078 8.19655 9.22518 8.51662 9.79615 9.08634C10.3671 9.65606 10.6879 10.4288 10.6879 11.2345C10.6879 12.0402 10.3671 12.8129 9.79615 13.3826C9.22518 13.9523 8.45078 14.2724 7.64331 14.2724C6.83583 14.2724 6.06143 13.9523 5.49046 13.3826C4.91949 12.8129 4.59872 12.0402 4.59872 11.2345C4.59872 10.4288 4.91949 9.65606 5.49046 9.08634C6.06143 8.51662 6.83583 8.19655 7.64331 8.19655Z" fill="white"/>
</svg>
