<svg width="19" height="21" viewBox="0 0 19 21" fill="none" xmlns="http://www.w3.org/2000/svg">
<path d="M15.8008 20.5C14.9674 20.5 14.2591 20.2083 13.6758 19.625C13.0924 19.0417 12.8008 18.3333 12.8008 17.5C12.8008 17.3833 12.8091 17.2623 12.8258 17.137C12.8424 17.0117 12.8674 16.8993 12.9008 16.8L5.85078 12.7C5.56745 12.95 5.25078 13.146 4.90078 13.288C4.55078 13.43 4.18411 13.5007 3.80078 13.5C2.96745 13.5 2.25911 13.2083 1.67578 12.625C1.09245 12.0417 0.800781 11.3333 0.800781 10.5C0.800781 9.66667 1.09245 8.95833 1.67578 8.375C2.25911 7.79167 2.96745 7.5 3.80078 7.5C4.18411 7.5 4.55078 7.571 4.90078 7.713C5.25078 7.855 5.56745 8.05067 5.85078 8.3L12.9008 4.2C12.8674 4.1 12.8424 3.98767 12.8258 3.863C12.8091 3.73833 12.8008 3.61733 12.8008 3.5C12.8008 2.66667 13.0924 1.95833 13.6758 1.375C14.2591 0.791667 14.9674 0.5 15.8008 0.5C16.6341 0.5 17.3424 0.791667 17.9258 1.375C18.5091 1.95833 18.8008 2.66667 18.8008 3.5C18.8008 4.33333 18.5091 5.04167 17.9258 5.625C17.3424 6.20833 16.6341 6.5 15.8008 6.5C15.4174 6.5 15.0508 6.42933 14.7008 6.288C14.3508 6.14667 14.0341 5.95067 13.7508 5.7L6.70078 9.8C6.73411 9.9 6.75911 10.0127 6.77578 10.138C6.79245 10.2633 6.80078 10.384 6.80078 10.5C6.80078 10.6167 6.79245 10.7377 6.77578 10.863C6.75911 10.9883 6.73411 11.1007 6.70078 11.2L13.7508 15.3C14.0341 15.05 14.3508 14.8543 14.7008 14.713C15.0508 14.5717 15.4174 14.5007 15.8008 14.5C16.6341 14.5 17.3424 14.7917 17.9258 15.375C18.5091 15.9583 18.8008 16.6667 18.8008 17.5C18.8008 18.3333 18.5091 19.0417 17.9258 19.625C17.3424 20.2083 16.6341 20.5 15.8008 20.5Z" fill="#FCFCFC"/>
</svg>
